<svg width="1440" height="1806" viewBox="0 0 1440 1806" fill="none" xmlns="http://www.w3.org/2000/svg">
    <path d="M719.5 1862C1072.13 1862 1358 1576.13 1358 1223.5C1358 870.866 1072.13 585 719.5 585C366.866 585 81 870.866 81 1223.5C81 1576.13 366.866 1862 719.5 1862Z" fill="url(#paint0_radial_0_1)"/>
    <path opacity="0.21" d="M715.971 1357.03C895.999 1357.03 1041.94 1211.07 1041.94 1031.01C1041.94 850.962 895.999 705 715.971 705C535.942 705 390 850.962 390 1031.01C390 1211.07 535.942 1357.03 715.971 1357.03Z" fill="white"/>
    <path d="M191.581 1266.39C182.206 1264.51 173.456 1260.74 164.081 1258.23C137.207 1250.71 107.832 1253.22 82.8316 1265.76C69.0817 1272.66 57.2068 1282.07 42.8318 1287.09C28.4568 1291.48 12.8318 1290.85 -2.16818 1292.74C-17.1681 1294.62 -33.4181 1299.01 -42.168 1311.56C-50.293 1322.85 -50.293 1338.53 -54.668 1351.7C-57.793 1362.37 -64.043 1371.78 -67.793 1382.44C-71.543 1393.11 -72.793 1405.03 -67.168 1415.06C-58.418 1430.12 -37.168 1432 -19.6681 1432C69.7067 1431.37 162.206 1429.49 241.581 1388.72C270.331 1373.66 296.581 1354.21 325.331 1340.41C342.206 1332.26 360.956 1325.98 374.081 1311.56C408.456 1273.29 334.081 1262.63 309.706 1257.61C269.706 1248.82 231.581 1273.92 191.581 1266.39Z" fill="#8DAEB5"/>
    <path d="M740.904 1154C708.369 1154.63 624.529 1170.9 594.497 1184.05C582.61 1189.05 570.722 1195.31 558.209 1195.31C546.947 1195.31 536.31 1190.93 525.674 1191.56C517.54 1191.56 509.406 1194.69 501.898 1197.19C481.251 1204.7 459.979 1212.21 441.834 1223.48C431.823 1229.74 422.439 1237.25 411.802 1242.26C394.909 1249.77 374.888 1251.65 363 1266.05C336.096 1299.22 292.299 1313.62 254.134 1333.65C246.626 1337.41 238.492 1341.79 229.733 1343.04C222.224 1344.29 215.342 1343.04 207.834 1343.04C179.679 1343.04 152.775 1358.06 130.251 1374.96C107.727 1391.86 87.0801 1411.89 62.0534 1426.29C61.4277 1430.05 66.433 1434.43 70.187 1432.55H459.979C514.412 1432.55 561.963 1386.86 597 1344.92C604.508 1336.15 610.765 1326.76 618.898 1318.63C626.407 1311.12 635.166 1305.48 643.3 1299.22C668.952 1279.82 691.476 1257.28 710.246 1230.99C715.877 1222.86 721.508 1213.47 719.631 1204.08C716.503 1187.18 742.781 1171.53 740.904 1154Z" fill="#729EAB"/>
    <path d="M1041.8 1053.72C1028.68 1056.85 1017.42 1043.71 1003.67 1043.08C997.417 1042.46 991.166 1045.58 984.914 1047.46C964.909 1054.34 944.279 1058.1 923.023 1058.1C913.02 1058.1 903.018 1056.85 893.015 1058.72C881.137 1061.23 870.509 1067.49 859.882 1073.74C841.752 1084.38 823.622 1095.64 807.993 1109.41C799.866 1116.29 792.364 1123.8 783.612 1129.43C774.859 1135.07 764.232 1139.45 754.854 1144.45C726.097 1160.1 704.841 1186.38 675.458 1201.39C666.706 1205.77 657.954 1208.9 649.827 1214.53C635.448 1224.55 626.696 1240.82 612.942 1251.45C592.937 1267.1 563.554 1268.35 544.799 1285.87C524.169 1304.64 501.663 1319.66 476.031 1329.67C464.778 1334.05 452.9 1335.3 441.647 1340.31C421.017 1349.69 407.888 1370.34 389.134 1382.86C375.38 1392.25 356.625 1400.38 356 1416.65C526.044 1448.56 701.715 1419.15 874.886 1432.29C900.517 1434.17 926.149 1437.3 951.781 1435.42C969.91 1434.17 988.665 1431.67 1006.17 1427.91C1018.05 1425.41 1029.93 1422.91 1039.93 1416.65C1059.31 1404.76 1069.94 1381.61 1074.94 1359.08C1079.94 1336.55 1081.19 1313.4 1088.69 1291.5C1103.7 1248.32 1143.08 1211.41 1137.45 1166.35C1135.58 1151.96 1129.33 1138.82 1123.08 1125.68C1114.32 1108.16 1104.95 1090.64 1090.57 1076.87C1077.44 1063.11 1061.18 1048.71 1041.8 1053.72Z" fill="#3B7284"/>
    <path d="M1522 838C1511.38 851.131 1498.88 862.385 1485.13 871.764C1472.63 880.518 1458.26 886.771 1444.51 893.649C1398.26 915.533 1352.02 938.042 1303.28 953.049C1287.65 958.051 1271.41 961.802 1255.78 968.055C1243.28 973.057 1230.78 979.31 1218.29 983.061C1202.04 988.689 1184.54 990.565 1168.29 997.443C1134.55 1012.45 1112.67 1048.71 1078.3 1061.84C1063.31 1067.47 1047.06 1068.72 1033.31 1075.6C1010.81 1087.48 997.063 1113.12 973.316 1122.5C926.446 1141.25 885.826 1171.27 843.331 1199.4C803.336 1225.66 772.715 1266.31 728.97 1285.69C716.471 1291.32 703.348 1294.44 691.474 1301.32C670.227 1313.2 655.229 1334.46 634.606 1348.22C600.236 1371.35 553.991 1371.35 520.245 1395.11C505.872 1405.12 494.623 1418.87 479 1427H1516.38L1522 838Z" fill="#22485D"/>
    <path d="M372.597 1072.99C377.327 1074.42 382.53 1074.42 387.733 1075.37C408.546 1079.65 421.317 1100.55 439.765 1110.05C446.387 1113.38 453.956 1115.28 460.578 1119.56C486.121 1135.24 486.594 1173.25 507.88 1194.63C514.029 1200.8 522.07 1205.08 528.692 1210.78C541.464 1221.71 549.505 1237.39 550.924 1254.02C550.924 1255.92 551.397 1258.29 549.978 1260.19C548.086 1263.99 543.356 1264.94 539.099 1264.94C514.029 1265.89 489.905 1254.49 470.038 1238.81C450.172 1223.13 434.562 1203.18 419.425 1183.22C395.302 1151.86 371.651 1120.03 348.473 1088.2C342.797 1080.6 318.673 1058.26 331.917 1052.56C344.689 1048.29 361.244 1069.67 372.597 1072.99Z" fill="#5F8A9A"/>
    <path d="M142 934C173.849 950.256 205.698 966.033 237.547 982.289C244.678 985.635 251.808 989.46 258.938 992.329C267.019 995.676 275.101 998.544 282.706 1002.85C290.787 1007.63 297.442 1013.84 304.573 1020.06C326.439 1040.14 348.781 1060.22 367.795 1083.17C373.5 1089.86 378.729 1097.03 385.859 1101.82C394.416 1107.55 404.398 1110.42 412.004 1117.59C418.659 1123.81 421.986 1132.41 426.265 1140.06C432.92 1152.02 442.427 1162.53 453.36 1171.14C475.702 1187.87 492.815 1210.82 502.797 1236.64C503.748 1239.03 504.699 1241.9 503.273 1243.81C501.371 1247.64 496.142 1247.16 491.864 1246.68C429.117 1232.82 367.796 1209.39 316.457 1170.66C287.935 1149.15 262.741 1122.85 237.547 1097.03C222.811 1081.73 207.6 1065.96 194.289 1049.22C170.522 1018.15 155.31 970.814 142 934Z" fill="#437286"/>
    <path d="M-192.433 622C-170.013 632.039 -149.501 646.38 -131.851 663.111C-128.989 665.979 -125.65 669.325 -123.742 673.149C-121.357 677.929 -120.403 683.188 -117.54 687.968C-113.247 694.182 -105.615 696.573 -99.4136 700.397C-83.1948 710.435 -75.0855 730.035 -58.8667 739.595C-52.1884 743.419 -44.0791 745.332 -37.8778 749.634C-29.2914 755.37 -23.5671 764.931 -15.9347 771.623C-1.62409 784.052 20.7959 787.398 28.4283 804.607C59.4347 826.119 90.4411 849.542 113.338 879.658C126.218 896.389 135.758 915.032 149.115 931.285C157.224 940.846 166.288 949.928 175.351 958.532C204.449 986.258 235.933 1011.59 265.985 1038.84C279.819 1051.75 292.221 1066.09 305.101 1079.95C323.705 1099.07 345.171 1116.28 368.068 1130.15C376.654 1135.4 386.672 1143.05 384.764 1152.61C367.114 1152.61 349.464 1156.44 331.814 1155.96C300.808 1154.52 272.664 1138.27 245.95 1122.5C170.104 1077.08 95.2114 1030.24 20.3189 982.912C7.91635 975.264 -4.48622 967.137 -16.8888 959.489C-57.9127 933.675 -87.488 893.521 -128.989 868.663C-153.794 853.844 -181.938 839.025 -192.433 812.256C-196.249 803.173 -191.956 793.134 -191.479 783.574L-192.433 622Z" fill="#4D6E7D"/>
    <path d="M780 1270.92C807.061 1275.2 835.072 1279.96 861.659 1273.3C870.679 1270.92 879.699 1267.59 888.72 1267.11C916.256 1265.21 939.045 1288.53 964.682 1298.05C977.025 1302.81 990.319 1304.24 1002.66 1308.52C1026.4 1317.09 1044.92 1335.18 1065.33 1349.94C1101.89 1376.12 1146.99 1392.78 1175 1428C1174.53 1428 1174.53 1428 1174.53 1428H842.668C842.668 1420.38 842.668 1412.29 843.143 1404.68C836.496 1399.92 830.324 1393.73 825.577 1386.59C819.88 1378.5 816.082 1369.45 810.859 1361.36C807.061 1355.65 803.263 1350.41 799.465 1345.17C784.748 1324.23 781.899 1295.67 780 1270.92Z" fill="#729EAB"/>
    <path d="M89.2526 104.629C89.2526 103.59 89.2526 102.551 89.2526 101.511C89.2526 100.818 89.2526 100.125 88.9062 99.4325C88.5598 98.7396 88.2134 98.3932 87.867 97.7003C87.5206 97.3538 86.8278 97.0074 86.1349 96.6609C85.4421 96.3144 84.7493 96.3145 84.0565 96.3145C83.7101 96.3145 83.0173 96.3144 82.6708 96.6609C81.6316 97.0074 80.9388 97.3538 80.246 98.0467C79.8996 98.3932 79.5532 98.7396 79.5532 99.0861C79.2068 99.779 78.8604 100.818 78.8604 101.858C78.8604 102.897 78.8604 103.936 78.8604 104.976C78.8604 105.669 78.8603 106.362 79.2068 107.055C79.5532 107.747 79.8996 108.094 80.246 108.787C80.5924 109.133 81.2852 109.48 81.978 109.826C82.6709 110.173 83.3637 110.173 84.0565 110.173C84.4029 110.173 85.0957 110.173 85.4421 109.826C86.4814 109.48 87.1742 109.133 87.867 108.44C88.2134 108.094 88.5598 107.747 88.5598 107.401C89.2526 106.362 89.2526 105.322 89.2526 104.629Z" fill="white"/>
    <path d="M102.763 267.464C109.344 267.464 109.344 257.07 102.763 257.07C96.1809 257.07 96.1809 267.464 102.763 267.464Z" fill="white"/>
    <path d="M389.936 635.052C396.517 635.052 396.517 624.658 389.936 624.658C383.354 624.658 383.354 635.052 389.936 635.052Z" fill="white"/>
    <path d="M575.611 539.085C582.193 539.085 582.193 528.691 575.611 528.691C568.683 528.691 568.683 539.085 575.611 539.085Z" fill="white"/>
    <path d="M1039.11 496.124C1045.69 496.124 1045.69 485.73 1039.11 485.73C1032.18 485.73 1032.18 496.124 1039.11 496.124Z" fill="white"/>
    <path d="M998.922 669.005C1005.5 669.005 1005.5 658.611 998.922 658.611C991.994 658.611 991.994 669.005 998.922 669.005Z" fill="white"/>
    <path d="M1341.87 363.085C1348.45 363.085 1348.45 352.691 1341.87 352.691C1334.94 352.691 1334.94 363.085 1341.87 363.085Z" fill="white"/>
    <path d="M1366.46 733.792C1373.04 733.792 1373.04 723.398 1366.46 723.398C1359.88 723.398 1359.88 733.792 1366.46 733.792Z" fill="white"/>
    <path d="M896.732 873.067C903.314 873.067 903.314 862.674 896.732 862.674C890.15 862.674 890.15 873.067 896.732 873.067Z" fill="white"/>
    <path d="M359.105 894.548C365.687 894.548 365.687 884.154 359.105 884.154C352.523 884.154 352.523 894.548 359.105 894.548Z" fill="white"/>
    <path d="M480.695 209.606C480.695 210.645 480.695 211.685 480.695 212.724C480.695 213.417 480.695 214.11 481.041 214.803C481.388 215.496 481.734 215.842 482.08 216.535C482.427 216.881 483.12 217.228 483.812 217.574C484.505 217.921 485.198 217.921 485.891 217.921C486.237 217.921 486.93 217.921 487.277 217.574C488.316 217.228 489.009 216.881 489.701 216.188C490.048 215.842 490.394 215.496 490.394 215.149C490.741 214.456 491.087 213.417 491.087 212.377C491.087 211.338 491.087 210.299 491.087 209.259C491.087 208.566 491.087 207.874 490.741 207.181C490.394 206.488 490.048 206.141 489.701 205.448C489.355 205.102 488.662 204.755 487.969 204.409C487.277 204.062 486.584 204.062 485.891 204.062C485.544 204.062 484.852 204.062 484.505 204.409C483.466 204.755 482.773 205.102 482.08 205.795C481.734 206.141 481.388 206.488 481.388 206.834C481.041 207.874 480.695 208.566 480.695 209.606Z" fill="white"/>
    <path d="M1435.05 145.165C1436.09 144.126 1437.13 143.086 1438.17 142.047C1438.52 141.7 1438.86 141.008 1439.21 140.315C1439.55 139.622 1439.55 138.929 1439.55 138.236C1439.55 137.543 1439.55 136.85 1439.21 136.157C1438.86 135.464 1438.52 135.118 1438.17 134.425C1437.82 134.078 1437.48 133.732 1437.13 133.732C1436.44 133.386 1435.4 133.039 1434.36 133.039C1434.01 133.039 1433.32 133.039 1432.97 133.386C1431.93 133.732 1431.24 134.078 1430.55 134.771C1429.51 135.811 1428.47 136.85 1427.43 137.889C1427.08 138.236 1426.74 138.929 1426.39 139.622C1426.04 140.315 1426.04 141.008 1426.04 141.7C1426.04 142.393 1426.04 143.086 1426.39 143.779C1426.74 144.472 1427.08 144.819 1427.43 145.511C1427.78 145.858 1428.12 146.204 1428.47 146.204C1429.16 146.551 1430.2 146.897 1431.24 146.897C1431.59 146.897 1432.28 146.897 1432.63 146.551C1433.67 146.204 1434.36 145.858 1435.05 145.165Z" fill="white"/>
    <path d="M927.562 233.165C934.144 233.165 934.144 222.771 927.562 222.771C920.981 222.771 920.981 233.165 927.562 233.165Z" fill="white"/>
    <path d="M853.431 530.077C860.013 530.077 860.013 519.684 853.431 519.684C846.849 519.684 846.849 530.077 853.431 530.077Z" fill="white"/>
    <path d="M501.479 866.831C508.061 866.831 508.061 856.438 501.479 856.438C494.551 856.438 494.551 866.831 501.479 866.831Z" fill="white"/>
    <path d="M99.6449 665.888C106.227 665.888 106.227 655.494 99.6449 655.494C93.0631 655.494 93.0631 665.888 99.6449 665.888Z" fill="white"/>
    <path d="M723.874 789.571C730.456 789.571 730.456 779.178 723.874 779.178C716.946 779.178 716.946 789.571 723.874 789.571Z" fill="white"/>
    <path d="M331.393 165.953C334.857 165.953 334.857 160.756 331.393 160.756C327.928 160.756 327.928 165.953 331.393 165.953Z" fill="white"/>
    <path d="M139.135 194.015C139.135 192.975 139.135 191.936 139.135 190.897C139.135 190.204 138.789 189.511 138.443 189.164C138.096 188.818 138.096 188.818 137.75 188.471C137.403 188.471 137.057 188.125 136.711 188.125C136.018 188.125 135.325 188.471 134.979 188.818C134.632 189.164 134.286 189.857 134.286 190.55C134.286 191.59 134.286 192.629 134.286 193.668C134.286 194.361 134.632 195.054 134.979 195.401C135.325 195.747 135.325 195.747 135.671 196.093C136.018 196.093 136.364 196.44 136.711 196.44C137.403 196.44 138.096 196.093 138.443 195.747C139.136 195.401 139.135 194.708 139.135 194.015Z" fill="white"/>
    <path d="M12.6963 160.062C12.6963 159.022 12.6963 157.983 12.6963 156.944C12.6963 156.251 12.3499 155.558 12.0035 155.211C11.6571 154.865 11.6571 154.865 11.3106 154.518C10.9642 154.518 10.6178 154.172 10.2714 154.172C9.57862 154.172 8.8858 154.518 8.53939 154.865C8.19298 155.211 7.84656 155.904 7.84656 156.597C7.84656 157.636 7.84656 158.676 7.84656 159.715C7.84656 160.408 8.19298 161.101 8.53939 161.447C8.8858 161.794 8.88579 161.794 9.2322 162.14C9.57861 162.14 9.92503 162.487 10.2714 162.487C10.9643 162.487 11.6571 162.14 12.0035 161.794C12.3499 161.447 12.6963 160.755 12.6963 160.062Z" fill="white"/>
    <path d="M600.206 477.761C603.67 477.761 603.67 472.564 600.206 472.564C596.742 472.564 596.742 477.761 600.206 477.761Z" fill="white"/>
    <path d="M504.25 521.068C507.715 521.068 507.715 515.871 504.25 515.871C501.133 515.871 501.133 521.068 504.25 521.068Z" fill="white"/>
    <path d="M757.822 777.793C761.286 777.793 761.286 772.596 757.822 772.596C754.358 772.596 754.358 777.793 757.822 777.793Z" fill="white"/>
    <path d="M726.991 861.289C730.456 861.289 730.456 856.092 726.991 856.092C723.527 856.092 723.527 861.289 726.991 861.289Z" fill="white"/>
    <path d="M649.742 893.162C648.703 893.162 647.664 893.162 646.625 893.162C645.932 893.162 645.239 893.509 644.893 893.855C644.546 894.202 644.546 894.201 644.2 894.548C644.2 894.894 643.853 895.241 643.853 895.587C643.853 896.28 644.2 896.973 644.546 897.32C644.893 897.666 645.585 898.012 646.278 898.012C647.317 898.012 648.357 898.012 649.396 898.012C650.089 898.012 650.781 897.666 651.128 897.32C651.474 896.973 651.474 896.973 651.821 896.627C651.821 896.28 652.167 895.934 652.167 895.587C652.167 894.894 651.821 894.202 651.474 893.855C650.782 893.162 650.435 893.162 649.742 893.162Z" fill="white"/>
    <path d="M618.565 1000.22C622.03 1000.22 622.03 995.02 618.565 995.02C615.448 995.02 615.448 1000.22 618.565 1000.22Z" fill="white"/>
    <path d="M1150.3 1061.89C1153.77 1061.89 1153.77 1056.69 1150.3 1056.69C1146.84 1056.69 1146.84 1061.89 1150.3 1061.89Z" fill="white"/>
    <path d="M1316.93 1086.83C1320.39 1086.83 1320.39 1081.63 1316.93 1081.63C1313.81 1081.63 1313.81 1086.83 1316.93 1086.83Z" fill="white"/>
    <path d="M1375.82 997.099C1379.28 997.099 1379.28 991.902 1375.82 991.902C1372.35 991.902 1372.35 997.099 1375.82 997.099Z" fill="white"/>
    <path d="M618.565 134.771C622.03 134.771 622.03 129.574 618.565 129.574C615.448 129.574 615.448 134.771 618.565 134.771Z" fill="white"/>
    <path d="M485.891 17.3218C489.355 17.3218 489.355 12.125 485.891 12.125C482.427 12.125 482.427 17.3218 485.891 17.3218Z" fill="white"/>
    <path d="M590.853 5.19683C594.317 5.19683 594.317 0 590.853 0C587.735 0 587.735 5.19683 590.853 5.19683Z" fill="white"/>
    <path d="M1097.3 67.5597C1097.3 66.5203 1097.3 65.4809 1097.3 64.4416C1097.3 63.7487 1096.96 63.0557 1096.61 62.7093C1096.26 62.3628 1096.26 62.3628 1095.92 62.0164C1095.57 62.0164 1095.22 61.6699 1094.88 61.6699C1094.18 61.6699 1093.49 62.0164 1093.15 62.3628C1092.8 62.7093 1092.45 63.4022 1092.45 64.0951C1092.45 65.1345 1092.45 66.1738 1092.45 67.2132C1092.45 67.9061 1092.8 68.599 1093.15 68.9455C1093.49 69.2919 1093.49 69.2919 1093.84 69.6384C1094.18 69.6384 1094.53 69.9848 1094.88 69.9848C1095.57 69.9848 1096.26 69.6384 1096.61 69.2919C1096.96 68.599 1097.3 68.2526 1097.3 67.5597Z" fill="white"/>
    <path d="M992.687 110.173C996.151 110.173 996.151 104.977 992.687 104.977C989.223 104.977 989.223 110.173 992.687 110.173Z" fill="white"/>
    <path d="M1041.88 134.771C1045.34 134.771 1045.34 129.574 1041.88 129.574C1038.76 129.574 1038.76 134.771 1041.88 134.771Z" fill="white"/>
    <path d="M1264.62 323.243C1265.66 323.243 1266.7 323.243 1267.74 323.243C1268.43 323.243 1269.12 322.896 1269.47 322.55C1269.81 322.204 1269.81 322.204 1270.16 321.857C1270.16 321.511 1270.51 321.164 1270.51 320.818C1270.51 320.125 1270.16 319.432 1269.81 319.085C1269.47 318.739 1268.77 318.393 1268.08 318.393C1267.04 318.393 1266 318.393 1264.96 318.393C1264.27 318.393 1263.58 318.739 1263.23 319.085C1262.89 319.432 1262.89 319.432 1262.54 319.778C1262.54 320.125 1262.19 320.471 1262.19 320.818C1262.19 321.511 1262.54 322.204 1262.89 322.55C1263.23 323.243 1263.93 323.243 1264.62 323.243Z" fill="white"/>
    <path d="M1057.81 935.777C1057.81 936.816 1057.81 937.856 1057.81 938.895C1057.81 939.588 1058.16 940.281 1058.5 940.627C1058.85 940.974 1058.85 940.974 1059.2 941.32C1059.54 941.32 1059.89 941.666 1060.24 941.666C1060.93 941.666 1061.62 941.32 1061.97 940.974C1062.32 940.627 1062.66 939.934 1062.66 939.241C1062.66 938.202 1062.66 937.163 1062.66 936.123C1062.66 935.43 1062.32 934.737 1061.97 934.391C1061.62 934.044 1061.62 934.044 1061.28 933.698C1060.93 933.698 1060.58 933.352 1060.24 933.352C1059.54 933.352 1058.85 933.698 1058.5 934.045C1058.16 934.391 1057.81 935.084 1057.81 935.777Z" fill="white"/>
    <path d="M278.392 237.321C278.392 236.282 278.392 235.243 278.392 234.203C278.392 233.51 278.046 232.817 277.699 232.471C277.353 232.125 277.353 232.125 277.006 231.778C276.66 231.778 276.313 231.432 275.967 231.432C275.274 231.432 274.581 231.778 274.235 232.125C273.889 232.471 273.542 233.164 273.542 233.857C273.542 234.896 273.542 235.936 273.542 236.975C273.542 237.668 273.889 238.361 274.235 238.707C274.581 239.054 274.581 239.054 274.928 239.4C275.274 239.4 275.621 239.747 275.967 239.747C276.66 239.747 277.353 239.4 277.699 239.054C278.046 238.707 278.392 238.014 278.392 237.321Z" fill="white"/>
    <path d="M411.759 524.187C415.223 524.187 415.223 518.99 411.759 518.99C408.295 518.99 408.295 524.187 411.759 524.187Z" fill="white"/>
    <path d="M791.77 600.406C793.502 600.406 793.502 597.635 791.77 597.635C790.038 597.635 790.038 600.406 791.77 600.406Z" fill="white"/>
    <path d="M887.379 467.369C889.111 467.369 889.111 464.598 887.379 464.598C885.993 464.598 885.993 467.369 887.379 467.369Z" fill="white"/>
    <path d="M881.49 408.471C883.222 408.471 883.222 405.699 881.49 405.699C879.758 406.046 879.758 408.471 881.49 408.471Z" fill="white"/>
    <path d="M739.116 161.447C740.848 161.447 740.848 158.676 739.116 158.676C737.73 158.676 737.384 161.447 739.116 161.447Z" fill="white"/>
    <path d="M831.953 111.904C833.685 111.904 833.685 109.133 831.953 109.133C830.221 109.479 830.221 111.904 831.953 111.904Z" fill="white"/>
    <path d="M263.496 59.9375C262.457 59.9375 261.418 59.9375 260.379 59.9375C260.032 59.9375 259.686 59.9375 259.339 60.284C258.993 60.6304 258.993 60.9769 258.993 61.3233C258.993 62.0162 259.686 62.7091 260.379 62.7091C261.418 62.7091 262.457 62.7091 263.496 62.7091C263.843 62.7091 264.189 62.7091 264.536 62.3627C264.882 62.0162 264.882 61.6698 264.882 61.3233C264.536 60.6304 264.189 59.9375 263.496 59.9375Z" fill="white"/>
    <path d="M62.5791 383.873C64.3112 383.873 64.3112 381.102 62.5791 381.102C60.8471 381.448 60.8471 383.873 62.5791 383.873Z" fill="white"/>
    <path d="M22.3957 464.25C23.4349 464.25 24.4741 464.25 25.5134 464.25C25.8598 464.25 26.2062 464.25 26.5526 463.904C26.899 463.557 26.899 463.211 26.899 462.864C26.899 462.171 26.2062 461.479 25.5134 461.479C24.4741 461.479 23.4349 461.479 22.3957 461.479C22.0493 461.479 21.7029 461.478 21.3565 461.825C21.0101 462.171 21.0101 462.518 21.0101 462.864C21.0101 463.557 21.7029 464.25 22.3957 464.25Z" fill="white"/>
    <path d="M1024.9 759.777C1024.9 758.738 1024.9 757.699 1024.9 756.659C1024.9 756.313 1024.9 755.966 1024.56 755.62C1024.21 755.273 1023.86 755.273 1023.52 755.273C1022.82 755.273 1022.13 755.966 1022.13 756.659C1022.13 757.699 1022.13 758.738 1022.13 759.777C1022.13 760.124 1022.13 760.47 1022.48 760.817C1022.82 761.163 1023.17 761.163 1023.52 761.163C1024.21 760.817 1024.9 760.47 1024.9 759.777Z" fill="white"/>
    <path d="M967.746 807.24C969.478 807.24 969.478 804.469 967.746 804.469C966.36 804.815 966.36 807.24 967.746 807.24Z" fill="white"/>
    <path d="M1242.79 717.51C1244.53 717.51 1244.53 714.738 1242.79 714.738C1241.06 715.085 1241.06 717.51 1242.79 717.51Z" fill="white"/>
    <path d="M1215.08 609.414C1216.81 609.414 1216.81 606.643 1215.08 606.643C1213.35 606.989 1213.35 609.414 1215.08 609.414Z" fill="white"/>
    <path d="M1310.69 566.108C1312.42 566.108 1312.42 563.336 1310.69 563.336C1309.3 563.682 1309.3 566.108 1310.69 566.108Z" fill="white"/>
    <path d="M1279.86 427.18C1281.59 427.18 1281.59 424.408 1279.86 424.408C1278.13 424.755 1278.13 427.18 1279.86 427.18Z" fill="white"/>
    <path d="M1383.09 215.842C1383.09 214.802 1383.09 213.763 1383.09 212.724C1383.09 212.377 1383.09 212.031 1382.74 211.684C1382.4 211.338 1382.05 211.338 1381.7 211.338C1381.01 211.338 1380.32 212.031 1380.32 212.724C1380.32 213.763 1380.32 214.802 1380.32 215.842C1380.32 216.188 1380.32 216.535 1380.67 216.881C1381.01 217.228 1381.36 217.228 1381.7 217.228C1382.74 216.881 1383.09 216.535 1383.09 215.842Z" fill="white"/>
    <path d="M1323.16 1045.26C1324.89 1045.26 1324.89 1042.48 1323.16 1042.48C1321.43 1042.48 1321.43 1045.26 1323.16 1045.26Z" fill="white"/>
    <path d="M405.524 1008.19C407.256 1008.19 407.256 1005.41 405.524 1005.41C403.792 1005.41 403.792 1008.19 405.524 1008.19Z" fill="white"/>
    <path d="M297.444 940.279C299.176 940.279 299.176 937.508 297.444 937.508C295.712 937.508 295.712 940.279 297.444 940.279Z" fill="white"/>
    <path d="M139.828 893.856C141.56 893.856 141.56 891.084 139.828 891.084C138.096 891.084 138.096 893.856 139.828 893.856Z" fill="white"/>
    <path d="M323.079 737.258C322.039 736.218 321 735.179 319.961 734.139C319.615 733.793 319.268 733.793 318.922 733.793C318.575 733.793 318.229 733.793 317.883 734.139C317.536 734.486 317.536 735.525 317.883 735.872C318.922 736.911 319.961 737.95 321 738.99C321.347 739.336 321.693 739.336 322.039 739.336C322.386 739.336 322.732 739.336 323.079 738.99C323.425 738.297 323.425 737.604 323.079 737.258Z" fill="white"/>
    <path d="M393.053 745.572C394.092 745.572 395.132 745.572 396.171 745.572C396.517 745.572 396.864 745.572 397.21 745.226C397.557 744.88 397.557 744.533 397.557 744.187C397.557 743.494 396.864 742.801 396.171 742.801C395.132 742.801 394.092 742.801 393.053 742.801C392.707 742.801 392.36 742.801 392.014 743.147C391.668 743.494 391.668 743.84 391.668 744.187C392.014 744.879 392.36 745.572 393.053 745.572Z" fill="white"/>
    <path d="M436.354 742.453C438.086 742.453 438.086 739.682 436.354 739.682C434.622 739.682 434.622 742.453 436.354 742.453Z" fill="white"/>
    <path d="M510.486 770.17C512.218 770.17 512.218 767.398 510.486 767.398C508.754 767.745 508.754 770.17 510.486 770.17Z" fill="white"/>
    <path d="M98.2593 484.69C98.2593 485.73 98.2593 486.769 98.2593 487.809C98.2593 488.155 98.2593 488.501 98.6057 488.848C98.9521 489.194 99.2985 489.194 99.6449 489.194C100.338 489.194 101.031 488.501 101.031 487.809C101.031 486.769 101.031 485.73 101.031 484.69C101.031 484.344 101.031 483.998 100.684 483.651C100.338 483.305 99.9913 483.305 99.6449 483.305C98.9521 483.305 98.2593 483.998 98.2593 484.69Z" fill="white"/>
    <path d="M208.764 533.195C207.725 532.156 206.685 531.116 205.646 530.077C205.3 529.73 204.953 529.73 204.607 529.73C204.26 529.73 203.914 529.73 203.568 530.077C203.221 530.423 203.221 531.463 203.568 531.809C204.607 532.849 205.646 533.888 206.685 534.927C207.032 535.274 207.378 535.274 207.725 535.274C208.071 535.274 208.417 535.274 208.764 534.927C209.11 534.581 209.11 533.541 208.764 533.195Z" fill="white"/>
    <path d="M286.359 509.289C286.359 508.25 286.359 507.21 286.359 506.171C286.359 505.825 286.359 505.478 286.013 505.132C285.666 504.785 285.32 504.785 284.974 504.785C284.281 504.785 283.588 505.478 283.588 506.171C283.588 507.21 283.588 508.25 283.588 509.289C283.588 509.636 283.588 509.982 283.934 510.328C284.281 510.675 284.627 510.675 284.974 510.675C285.667 510.675 286.359 509.982 286.359 509.289Z" fill="white"/>
    <path d="M730.109 590.707C743.619 590.707 743.619 569.92 730.109 569.92C716.599 569.92 716.599 590.707 730.109 590.707Z" fill="white"/>
    <path d="M3.68967 742.108C17.1996 742.108 17.1996 721.32 3.68967 721.32C-9.47387 721.32 -9.47387 742.108 3.68967 742.108Z" fill="white"/>
    <path d="M952.504 173.574C966.014 173.574 966.014 152.787 952.504 152.787C938.994 152.787 938.994 173.574 952.504 173.574Z" fill="white"/>
    <path d="M1258.38 983.24C1271.89 983.24 1271.89 962.453 1258.38 962.453C1244.87 962.453 1244.87 983.24 1258.38 983.24Z" fill="white"/>
    <path d="M666.002 1260.77C679.287 1257.44 692.573 1254.58 706.332 1255.05C712.026 1255.05 717.245 1256.01 722.938 1256.48C729.107 1256.96 735.275 1257.91 741.443 1258.39C747.611 1259.34 754.253 1259.82 760.421 1261.73C768.013 1263.63 775.13 1267.45 782.721 1269.83C794.583 1273.64 807.394 1274.6 817.358 1282.22C849.621 1307.49 889.002 1322.27 922.689 1345.63C943.566 1359.93 964.443 1373.75 986.268 1386.62C991.013 1389 995.283 1391.86 1000.03 1394.73C1006.67 1399.02 1012.36 1404.26 1018.06 1409.5C1027.55 1418.08 1037.04 1426.66 1047 1435.24C1044.15 1436.67 1041.31 1435.72 1037.99 1435.24C1032.77 1434.29 1027.07 1434.77 1021.85 1434.77H734.326L734.8 1421.42C738.121 1411.89 731.479 1400.92 728.158 1391.86C726.26 1387.1 725.311 1381.85 723.413 1377.09C717.245 1362.79 703.96 1353.25 691.149 1344.67C678.338 1336.09 665.053 1326.56 658.885 1312.26C656.038 1305.11 655.09 1296.53 656.987 1288.9C657.936 1280.79 660.309 1268.4 666.002 1260.77Z" fill="#86ABB5"/>
    <path d="M526 1228C541.322 1228.47 556.165 1229.9 571.008 1232.74C576.754 1233.69 582.978 1235.11 589.202 1235.58C596.385 1236.05 604.046 1234.63 611.228 1236.05C624.155 1238.42 634.689 1247.9 646.181 1254.06C665.333 1264.48 687.837 1265.9 707.947 1274.43C718.959 1279.17 729.493 1286.28 737.633 1294.81C742.421 1299.54 746.73 1305.7 745.772 1312.34C751.039 1322.29 753.912 1333.66 750.56 1344.56C747.209 1355.45 737.154 1364.46 726.141 1363.98C721.832 1363.98 717.044 1362.56 713.214 1361.14C707.468 1359.24 702.201 1357.35 696.455 1355.45C689.273 1353.08 682.091 1350.72 675.388 1347.4C667.727 1343.61 660.545 1339.34 653.363 1335.08C632.774 1323.71 609.791 1316.13 593.991 1299.07C589.202 1294.33 585.372 1288.65 580.584 1283.91C573.402 1276.33 564.783 1270.64 556.644 1264.48C555.207 1263.54 553.292 1262.59 551.377 1261.17C539.885 1252.16 532.703 1240.79 526 1228Z" fill="#7FA4AE"/>
    <path d="M-153 856C-128.217 863.148 -115.349 891.741 -92.9484 904.608C-81.51 911.28 -67.6886 913.662 -56.2502 920.334C-46.7182 925.576 -38.616 933.678 -30.0372 940.826C-12.4031 955.599 7.13755 967.036 27.1547 978.473C32.8739 981.809 38.5931 985.145 44.7889 987.051C50.9847 988.957 57.6571 989.434 64.3295 989.434C98.1681 989.91 133.436 980.856 164.892 993.246C216.841 1013.74 262.118 1049.96 299.77 1091.42C308.825 1101.42 317.881 1111.91 328.366 1120.96C346.953 1137.16 370.307 1147.65 393.183 1158.13C436.554 1177.67 469.439 1213.89 514.716 1229.14C531.874 1234.86 549.985 1239.62 564.283 1250.58C573.338 1257.73 580.487 1267.26 589.543 1273.93C617.662 1294.43 661.033 1286.8 684.386 1312.06C697.254 1325.88 716.318 1333.98 734.429 1339.22C744.437 1342.08 754.923 1343.99 763.978 1349.23C776.37 1356.38 784.472 1369.24 793.527 1380.68C807.349 1398.31 824.983 1413.09 845 1424.05C843.094 1424.05 995.93 1552 994.5 1552L-138 2448L-153 856Z" fill="url(#paint1_linear_0_1)"/>
    <path d="M1513.62 1107.04C1437.33 1106.42 1361.03 1112.68 1285.36 1119.56C1273.48 1120.81 1261.6 1121.44 1250.34 1125.82C1240.96 1128.95 1231.58 1134.58 1223.45 1140.22C1177.79 1169.01 1134.02 1201.55 1090.87 1233.47C1062.73 1254.76 1033.96 1275.41 1005.82 1296.69C995.81 1304.2 985.178 1311.71 976.423 1321.1C969.544 1328.61 963.29 1336.75 957.036 1344.88C937.024 1371.8 -281.988 2271.09 -302 2298L1488 2392L1513.62 1107.04Z" fill="url(#paint2_linear_0_1)"/>
    <defs>
    <radialGradient id="paint0_radial_0_1" cx="0" cy="0" r="1" gradientUnits="userSpaceOnUse" gradientTransform="translate(719.5 1223.52) scale(638.516)">
    <stop offset="0.1531" stop-color="#FFFAF2"/>
    <stop offset="1" stop-color="#FFFAF2" stop-opacity="0"/>
    </radialGradient>
    <linearGradient id="paint1_linear_0_1" x1="347.14" y1="1427.76" x2="343.939" y2="853.302" gradientUnits="userSpaceOnUse">
    <stop stop-color="#93B4BB"/>
    <stop offset="1" stop-color="#D4DFE1"/>
    </linearGradient>
    <linearGradient id="paint2_linear_0_1" x1="1207.07" y1="1425.73" x2="1205.3" y2="1108.49" gradientUnits="userSpaceOnUse">
    <stop stop-color="#93B4BB"/>
    <stop offset="1" stop-color="#D4DFE1"/>
    </linearGradient>
    </defs>
    </svg>
    