<?xml version="1.0" encoding="utf-8"?>
<!-- Generator: Adobe Illustrator 25.4.1, SVG Export Plug-In . SVG Version: 6.00 Build 0)  -->
<svg version="1.1" id="Layer_1" xmlns="http://www.w3.org/2000/svg" xmlns:xlink="http://www.w3.org/1999/xlink" x="0px" y="0px"
	 viewBox="0 0 1440 549.7" style="enable-background:new 0 0 1440 549.7;" xml:space="preserve">
<style type="text/css">
	.st0{fill:#FFC359;}
	.st1{opacity:0.16;fill:#F5C878;enable-background:new    ;}
	.st2{opacity:0.32;fill:#F5C878;enable-background:new    ;}
	.st3{fill:url(#SVGID_1_);}
	.st4{opacity:0.26;fill:#422416;enable-background:new    ;}
	.st5{opacity:7.000000e-02;fill:#FFC359;enable-background:new    ;}
	.st6{fill:#822600;}
	.st7{opacity:0.11;enable-background:new    ;}
	.st8{opacity:0.57;fill:url(#SVGID_00000160910438593488960930000000633583795731189138_);enable-background:new    ;}
</style>
<g>
	<path class="st0" d="M646.8,157.4C533.4,138.4,426,215.1,407,328.6c-12.2,73.1,15.2,143.6,66.5,189.7h278
		c34.1-30.5,58.4-72.3,66.5-121C837,283.8,760.4,176.3,646.8,157.4z"/>
	<path class="st1" d="M0,271.7c0,0,130,36.6,239.8,36.6s179.3-20.1,285.4-28.3s395.2-92.9,455.6-72.7c0,0-110.4-40.4-193.3-36.4
		s-161,12.2-269.2,20.2s-295.5-20.5-295.5-20.5L0,154.5V271.7z"/>
	<path class="st2" d="M974.2,326.8h343c0,0-59.4-10.4-85.1-29.4s-37.5-35.2-54-33.2s-10,14.2-41.2,10.1s-39.3-26.6-64-10.3
		S998.9,316.7,974.2,326.8z"/>
	<path class="st2" d="M771.3,358.3h182c0,0-25.6-24.3-43.9-32.4s-23.8,4-44.8,0S785.9,338.1,771.3,358.3z"/>
	
		<linearGradient id="SVGID_1_" gradientUnits="userSpaceOnUse" x1="484.6583" y1="1383.5226" x2="563.2067" y2="1732.5732" gradientTransform="matrix(1 0 0 -1 0 1978)">
		<stop  offset="0" style="stop-color:#D46500"/>
		<stop  offset="0.16" style="stop-color:#C55600"/>
		<stop  offset="0.46" style="stop-color:#AE4000"/>
		<stop  offset="0.75" style="stop-color:#A13300"/>
		<stop  offset="1" style="stop-color:#9C2E00"/>
	</linearGradient>
	<path class="st3" d="M842.2,503.6l-0.2-17.4c2.6-2.5,5-5.2,7.3-8c2.3-3.1,4.6-12.5,5-16.3s2-10.7,0-10.4s-3,13.8-6,20.6
		c-1.5,3.3-3.7,6.2-6.5,8.5l-0.2-13.3c0,0,2.1-32.6-1.8-32.6c-3.2,0-3.2,20.4-3.1,35c-2.4-2.8-4.4-5.8-6-9.1
		c-2.7-5.9-3.2-12.7-5-12.7s-0.9,6.3,0,10.4c0.7,3.3,8.2,14.3,11.1,18.6V503c0,3.7-2.8,6.8-6.1,6.7l-21-0.5
		c0,0-68.6-24.1-100.4-22.7S552,436.4,552,436.4l-47.6-119.5l-47.6-24.4h-62.2l-14.6,23v-73.3c0,0-2.4-28.5-12.2-35.3
		s-65.8-50.2-74.4-53s-31.7,0-31.7,0l-39,61.1v69.1l-36.6,16.5L170.3,325l-7.3,53l-25.6,51.6c0,0-35.4,34-45.1,39.4S0,499.8,0,499.8
		v49.9l924-4.3l84.8-31.7l-160.7-3.5C844.8,510.2,842.2,507.2,842.2,503.6z"/>
	<path class="st4" d="M380,315.6l7,50.6l20.1,16.6l7.3,77.4l8.2,19.3l5.5,29.9V452l-6.4-89.8l6.4-46.7l28.7-23.1h-62.2L380,315.6z"
		/>
	<path class="st4" d="M222.7,284.2l26.8,8.3l13.5,20.3l5.7,109.9l19.2,111.9l32.3-0.3c0,0-8.5-12.5-10.4-25
		c-1.8-12.6-5.5-61.7-6.1-83.3s-2.4-96.2-4.9-113.9s-25-59.1-27.4-72s-4.9-61.8-4.9-61.8l-4.9-24.4l-39,61.1L222.7,284.2
		L222.7,284.2z"/>
	<path class="st5" d="M304.3,217.8c4.1,9.2,16,20.9,16,20.9l5.5,41.7l11,12.1l-3.7-59.4l-3.4-54.5c-16.1-11.9-32-23.3-36.3-24.6
		l6.7,32.2C300.2,186.2,300.1,208.7,304.3,217.8z"/>
	<path class="st4" d="M170.2,325.1l-7.3,53l-25.6,51.6c0,0-35.4,34-45.1,39.4S0,499.7,0,499.7v50.1l248.9-14.2l-45.1-78.8
		c0,0-8.6-50.2-11-61.8s-12.2-57.7-12.2-57.7l5.5-36.7L170.2,325.1z"/>
	<path class="st5" d="M458.1,293.1l39.2,28.1l12.4,56l37,66.2c0,0,25.2,26,35.2,32.6s74.1,21.3,74.1,21.3s33-7.1,46.2-7.1
		s49,2.2,49.2,2.2c-15.5-3.6-31-6.2-42-5.7C677.7,488,552,436.4,552,436.4l-47.5-119.5L458.1,293.1z"/>
	<path class="st6" d="M1398.5,197.7l-32.9-37.8c0,0-11-25.6-18.3-43.9c-6.1-53.7-7.3-69.6-7.3-69.6l-9.8-13.4V12.2L1277.8,0
		l-63.4,23.2l-20.7,92.7l-14.6,57.3c0,0-43.9,14.6-46.3,32.9c-1.2,9.3-7.6,42.2-13.5,72.1c-6.8,34.5-28.8,64.1-59.8,80.6
		c-56.1,29.8-145.4,77.7-184.1,101c-49.3,29.8-181.1,14.6-247.6,16.4c2.8-9.2,7.4-25.8,5-26.3s-6.5,17.3-8.4,26.4h-0.5
		c0.1-7.3,0.1-31.1-2.8-30.8c-1.9,0.2-1.7,10.7-1.1,19.8c-2-8.9-4.7-18.8-6.5-18.2c-2.4,0.7,2.4,17.9,5,26.9
		c-7.4-5.8-16.4-12.4-17.5-10.8s7.4,8.2,14.8,13.5c-5.9,0.3-11.8,1.2-17.6,2.6c-43.7,12.2-218.1,2.4-274.2,8.5s-324,43-324,43v29.3
		h1440V278.2L1398.5,197.7z"/>
	<path class="st4" d="M1179,173.3c0,0,25,8.2,29.6,18.3s9.2,58.6,9.2,58.6l17.4,58.9l21,128.7h-60.4l-8.2-109.8
		c-0.2-13,1.6-26,5.5-38.4c6.4-21,2.7-35.7,2.7-35.7l-16.7-24.7L1179,173.3L1179,173.3z"/>
	<path class="st5" d="M1083.8,366.7l11.9-6.6c11.5-6.3,19.9-17.1,23.2-29.8c4.7-18.3,11.2-43.8,13.1-52.1c3-13.4,6.7-67.7,6.7-67.7
		l7-20.9c-6.9,4.9-12.3,10.6-13.1,16.7c-1.2,9.3-7.6,42.2-13.5,72.1c-6.8,34.5-28.8,64.1-59.9,80.6c-34.9,18.5-82.6,44-123,66.3
		L1083.8,366.7z"/>
	<path class="st5" d="M1217.6,123.4c-0.4-20.1,6.6-93.9,6.6-93.9l25.4-19l-35.2,12.9l-20.7,92.7l-14.6,57.3l20.2,9.3
		C1199.3,182.7,1218.1,143.5,1217.6,123.4z"/>
	<path class="st4" d="M1437.7,273.7l-39.1-76l-32.9-37.8c0,0-11-25.6-18.3-43.9c-6.1-53.7-7.3-69.6-7.3-69.6l-9.8-13.4V12.2
		L1277.8,0v57l4.9,21l6.9,27.9l18.8,55.8l2.7,43l-4.6-27l-11.9-29.7l-16.8-4.1c0,0-7.9,10.1-10.7,22.9s0,119.9,0,119.9l27.4,134.5
		l5.5,49.4h140V283.1L1437.7,273.7z"/>
	<path class="st5" d="M1273.4,145.9l-26.3,11.1c-5.3,2.2-9.3,6.9-10.7,12.5l-10.6,42.2l3,21.5l11.6-23.3l6.1-44.5L1273.4,145.9z"/>
	<path class="st7" d="M709.4,477.9c0.4,0.1,85.6,17.5,121.7,27.5c36.1,10.1,110.3,0,141.4,0s82.3,12.8,82.3,12.8l45.7-47.6
		c0,0-124.4,1.8-172,0s-97.5,3.3-97.5,3.3C796,479.6,751,479.2,709.4,477.9z"/>
</g>
<radialGradient id="SVGID_00000132779939197700339550000017133959569840837037_" cx="612.5295" cy="280.0357" r="304.133" gradientUnits="userSpaceOnUse">
	<stop  offset="0" style="stop-color:#FFFFFF"/>
	<stop  offset="0.7686" style="stop-color:#FFFFFF;stop-opacity:0"/>
</radialGradient>
<path style="opacity:0.57;fill:url(#SVGID_00000132779939197700339550000017133959569840837037_);enable-background:new    ;" d="
	M918.7,534.7c25.8-48.5,40.5-103.9,40.5-162.7c0-191.5-155.2-346.7-346.6-346.7c-191.4,0-346.6,155.2-346.6,346.7
	c0,58.8,14.6,114.2,40.5,162.7H918.7z"/>
</svg>
