<svg width="1440" height="2131" viewBox="0 0 1440 2131" fill="none" xmlns="http://www.w3.org/2000/svg">
<path d="M1411.15 209.947L1376.3 169.912C1376.3 169.912 1364.68 142.796 1356.94 123.427C1350.49 66.6196 1349.19 49.8271 1349.19 49.8271L1338.87 35.6299V13.6854L1283.36 0.766602L1216.24 25.3065L1194.3 123.447L1178.81 184.128C1178.81 184.128 1132.34 199.623 1129.77 218.992C1128.45 228.87 1121.75 263.636 1115.52 295.304C1108.31 331.833 1085.06 363.171 1052.19 380.622C992.803 412.154 898.338 462.822 857.408 487.555C805.229 519.087 665.767 503.012 595.427 504.852C598.35 495.09 603.21 477.523 600.693 477.019C598.079 476.496 593.781 495.361 591.787 504.968C591.593 504.968 591.419 504.987 591.225 504.987C591.303 497.22 591.303 472.099 588.302 472.39C586.288 472.564 586.559 483.721 587.159 493.366C585.01 483.972 582.164 473.513 580.267 474.075C577.75 474.83 582.784 493.037 585.591 502.547C577.808 496.388 568.282 489.415 567.12 491.139C565.978 492.824 574.923 499.777 582.803 505.452C575.291 505.994 568.979 506.866 564.177 508.222C517.942 521.141 333.368 510.798 273.986 517.267C214.605 523.716 -28.5011 562.454 -28.5011 562.454L-28.5011 2099.5L762 2130.5H1455.04V295.168L1411.15 209.947Z" fill="url(#paint0_linear_423_3093)"/>
<path opacity="0.26" d="M1178.81 184.128C1178.81 184.128 1205.28 192.844 1210.12 203.497C1214.96 214.15 1219.8 265.476 1219.8 265.476L1238.19 327.785L1260.46 464.003H1196.56L1187.85 347.792C1187.85 347.792 1186.88 329.392 1193.66 307.118C1200.44 284.845 1196.56 269.35 1196.56 269.35L1178.81 243.202V184.128Z" fill="#422416"/>
<path opacity="0.07" d="M1078.13 388.795L1090.73 381.842C1102.89 375.141 1111.74 363.733 1115.23 350.271C1120.22 330.903 1127.13 303.923 1129.13 295.168C1132.36 280.971 1136.23 223.505 1136.23 223.505L1143.65 201.347C1136.39 206.518 1130.64 212.523 1129.79 218.992C1128.47 228.87 1121.77 263.636 1115.54 295.304C1108.33 331.833 1085.08 363.171 1052.2 380.622C1015.26 400.242 964.768 427.242 922.017 450.833L1078.13 388.795Z" fill="#FFC359"/>
<path opacity="0.07" d="M1219.72 131.33C1219.24 110.024 1226.65 31.9112 1226.65 31.9112L1253.56 11.8455L1216.33 25.4615L1194.4 123.602L1178.91 184.283L1200.34 194.142C1200.32 194.122 1220.2 152.635 1219.72 131.33Z" fill="#FFC359"/>
<path opacity="0.26" d="M1452.56 290.384L1411.15 209.947L1376.3 169.912C1376.3 169.912 1364.68 142.796 1356.94 123.427C1350.49 66.6195 1349.19 49.827 1349.19 49.827L1338.87 35.6299V13.6854L1283.36 0.766602V61.1383L1288.53 83.412L1295.79 112.949L1315.64 172.023L1318.54 217.539L1313.7 188.97L1301.12 157.497L1283.36 153.139C1283.36 153.139 1274.98 163.791 1272.07 177.349C1269.17 190.907 1272.07 304.213 1272.07 304.213L1301.12 446.572L1306.92 498.867H1393.08H1455.04V300.339L1452.56 290.384Z" fill="#422416"/>
<path opacity="0.07" d="M1278.73 155.153L1250.89 166.871C1245.26 169.234 1241.08 174.134 1239.59 180.061L1228.39 224.764L1231.57 247.56L1243.88 222.943L1250.33 175.819L1278.73 155.153Z" fill="#FFC359"/>
<path opacity="0.11" d="M681.915 506.537C682.36 506.633 772.469 525.034 810.689 535.667C849.005 546.32 927.419 535.667 960.334 535.667C993.249 535.667 1047.46 549.225 1047.46 549.225L1095.86 498.867C1095.86 498.867 964.206 500.804 913.866 498.867C863.526 496.93 810.689 502.372 810.689 502.372C773.495 508.338 725.962 507.815 681.915 506.537Z" fill="black"/>
<defs>
<linearGradient id="paint0_linear_423_3093" x1="1033" y1="1831" x2="683.951" y2="391.956" gradientUnits="userSpaceOnUse">
<stop stop-color="#F5C878"/>
<stop offset="0.162835" stop-color="#DFAA61"/>
<stop offset="0.582759" stop-color="#BF7C40"/>
<stop offset="0.721875" stop-color="#A65825"/>
<stop offset="1" stop-color="#822600"/>
</linearGradient>
</defs>
</svg>
