<svg width="1440" height="781" viewBox="0 0 1440 781" fill="none" xmlns="http://www.w3.org/2000/svg">
<path opacity="0.32" d="M542.512 780.703H1054.86C1054.86 780.703 984.943 765.744 955.881 757.197C926.819 748.649 886.179 738.734 859.073 736.212C831.967 733.691 823.254 764.377 790.34 736.212C757.425 708.048 726.446 715.228 702.244 736.212C678.043 757.197 554.129 759.334 542.512 780.703Z" fill="#F5C878"/>
<path opacity="0.16" d="M-34.5204 510.257C-34.5204 510.257 4.20268 514.83 63.5845 514.83C122.966 514.83 117.797 506.282 194.604 514.83C271.411 523.377 290.773 542.866 355.305 550.217C419.837 557.568 462.994 515.77 571.147 511.026C679.301 506.282 684.451 524.489 763.195 531.07C841.938 537.652 831.599 540.473 916.79 531.925C1001.98 523.377 1036.83 503.419 1071.68 531.925C1106.53 560.431 1196.24 583.211 1260.46 588.895C1324.68 594.579 1440.85 588.895 1440.85 588.895V749.162C1440.85 749.162 1200.77 692.235 1127.19 686.166C1053.62 680.097 995.378 706.253 905.754 676.08C816.129 645.907 777.406 663.601 693.493 649.07C609.599 634.496 555.387 657.318 453.41 663.002C351.433 668.686 326.921 677.234 254.625 651.591C182.348 625.948 -39.6706 649.07 -39.6706 649.07L-34.5204 510.257Z" fill="#F5C878"/>
<path opacity="0.16" d="M-47.4346 311.141C-47.4346 311.141 68.7347 341.058 184.904 341.058C301.073 341.058 374.647 319.689 486.944 311.141C599.241 302.594 905.154 212.844 969.047 234.213C969.047 234.213 852.219 191.475 764.453 195.749C676.687 200.023 594.072 208.57 479.529 217.118C364.966 225.665 166.84 195.45 166.84 195.45L-62.9238 178.654L-47.4346 311.141Z" fill="#F5C878"/>
<path opacity="0.32" d="M950.653 430.807C950.653 430.807 1098.77 430.807 1134.59 430.807C1170.41 430.807 1313.68 430.807 1313.68 430.807C1313.68 430.807 1250.76 419.824 1223.65 399.694C1196.54 379.522 1183.96 362.427 1166.53 364.564C1149.11 366.7 1155.89 379.565 1122.97 375.291C1090.06 371.017 1081.34 347.126 1055.21 364.393C1029.07 381.659 976.791 420.123 950.653 430.807Z" fill="#F5C878"/>
<path opacity="0.32" d="M747.357 393.882H940.004C940.004 393.882 912.898 368.196 893.537 359.649C874.175 351.101 868.367 363.923 846.101 359.649C823.835 355.375 762.846 372.513 747.357 393.882Z" fill="#F5C878"/>
<path d="M876.681 390.844C903.692 229.029 794.46 75.9471 632.703 48.9261C470.946 21.905 317.92 131.177 290.908 292.992C263.897 454.806 373.13 607.888 534.886 634.909C696.643 661.93 849.669 552.658 876.681 390.844Z" fill="#FFC359"/>
<path d="M822.383 547.704L822.151 529.321C824.28 527.144 828.172 523.114 829.876 520.83C832.296 517.597 834.716 507.641 835.2 503.589C835.684 499.537 837.369 492.274 835.2 492.555C833.032 492.835 832.064 507.102 828.908 514.365C827.049 518.653 824.145 521.606 822.073 523.33L821.899 509.235C821.899 509.235 824.164 474.753 819.963 474.753C816.536 474.753 816.555 496.305 816.671 511.843C814.599 509.321 811.889 505.701 810.282 502.231C807.378 496.024 806.894 488.762 804.957 488.762C803.021 488.762 803.989 495.486 804.957 499.796C805.732 503.244 813.593 514.903 816.729 519.472C816.729 520.032 816.729 520.571 816.729 521.067V547.166C816.729 551.131 813.786 554.342 810.224 554.256L788.016 553.76C788.016 553.76 715.507 528.244 681.895 529.687C648.284 531.131 515.328 476.52 515.328 476.52L464.988 350.079L414.648 324.217H348.819L333.33 348.635V271.05C333.33 271.05 330.754 240.879 320.415 233.702C310.096 226.525 250.714 180.535 241.672 177.669C232.63 174.802 208.118 177.669 208.118 177.669L166.82 242.344V315.446L128.097 332.86L111.311 358.721L103.566 414.754L76.4598 469.344C76.4598 469.344 39.0339 505.27 28.6949 511.003C18.3752 516.757 -39.7095 539.105 -39.7095 539.105V636H909.006L998.708 558.415L828.617 554.665C825.21 554.622 822.441 551.54 822.383 547.704Z" fill="url(#paint0_linear_423_3064)"/>
<path opacity="0.26" d="M333.349 348.7L340.764 402.233L362.062 419.819L369.806 501.714L378.519 522.188L384.328 553.803V493.094L377.551 398.095L384.328 348.7L414.667 324.282H348.838L333.349 348.7Z" fill="#422416"/>
<path opacity="0.26" d="M166.839 315.489L195.243 324.282L209.435 345.833L215.495 462.167L239.116 599.406L270.095 620.375C270.095 620.375 261.053 567.101 259.117 553.803C257.18 540.506 253.327 488.481 252.669 465.616C251.992 442.75 250.094 363.786 247.5 345.101C244.925 326.416 221.032 282.602 218.457 268.96C215.882 255.318 213.288 203.595 213.288 203.595L208.118 177.733L166.82 242.409V315.489H166.839Z" fill="#422416"/>
<path opacity="0.07" d="M253.153 245.254C257.509 254.952 270.094 267.344 270.094 267.344L275.903 311.524L287.52 324.282L283.648 261.417L280.104 203.767C263.008 191.138 246.183 179.156 241.71 177.733L248.816 211.849C248.797 211.849 248.797 235.556 253.153 245.254Z" fill="#FFC359"/>
<path opacity="0.26" d="M111.33 358.764L103.585 414.798L76.4791 469.387C76.4791 469.387 39.0532 505.313 28.7142 511.046C18.3945 516.8 -39.6902 539.149 -39.6902 539.149V592.122L194.585 581.432L146.82 498.093C146.82 498.093 137.778 444.926 135.203 432.728C132.628 420.509 122.289 371.673 122.289 371.673L128.097 332.881L111.33 358.764Z" fill="#422416"/>
<path opacity="0.07" d="M415.926 324.929L457.437 354.626L470.506 413.892L509.713 483.934C509.713 483.934 536.335 511.412 546.984 518.416C557.633 525.42 625.398 541.045 625.398 541.045C625.398 541.045 660.249 533.502 674.286 533.502C688.285 533.502 726.175 535.787 726.349 535.787C709.95 531.972 693.59 529.235 681.915 529.731C648.303 531.175 515.347 476.564 515.347 476.564L465.007 350.122L415.926 324.929Z" fill="#FFC359"/>
<defs>
<linearGradient id="paint0_linear_423_3064" x1="456.602" y1="675.026" x2="545.327" y2="280.745" gradientUnits="userSpaceOnUse">
<stop stop-color="#D46500"/>
<stop offset="0.1573" stop-color="#C55600"/>
<stop offset="0.4606" stop-color="#AE4000"/>
<stop offset="0.7478" stop-color="#A13300"/>
<stop offset="1" stop-color="#9C2E00"/>
</linearGradient>
</defs>
</svg>
