<svg width="259" height="253" viewBox="0 0 259 253" fill="none" xmlns="http://www.w3.org/2000/svg">
<path d="M55.7747 193.39C57.519 192.809 60.6123 189.965 60.6123 189.96C60.6123 189.954 58.1237 188.512 57.9551 188.442C55.9956 187.616 51.722 187.175 50.1695 188.983C49.924 189.29 49.7454 189.646 49.6453 190.027C49.5452 190.407 49.5257 190.805 49.5881 191.194C49.6505 191.582 49.7934 191.954 50.0077 192.284C50.222 192.614 50.5029 192.896 50.8324 193.111C52.2046 194.088 54.2629 193.879 55.7747 193.39Z" fill="#FCF4F5"/>
<path d="M87.9926 165.981C88.0333 165.981 86.7134 163.405 86.6087 163.248C85.4458 161.504 82.1083 158.753 79.8175 159.405C79.4398 159.524 79.0913 159.72 78.7945 159.983C78.4978 160.245 78.2595 160.566 78.095 160.926C77.9306 161.287 77.8436 161.677 77.8399 162.073C77.8361 162.469 77.9155 162.862 78.0731 163.225C78.6953 164.783 80.5268 165.748 82.0618 166.173C83.8643 166.673 87.9867 165.987 87.9926 165.981Z" fill="#FCF4F5"/>
<path d="M64.8976 201.478C66.3977 200.495 68.4676 197.21 68.6305 196.949C70.5071 198.136 72.4613 199.197 74.4798 200.123C75.6427 200.67 76.8521 201.187 78.0615 201.687C77.48 201.536 76.9509 201.414 76.8986 201.402C74.788 201.123 70.5492 201.827 69.5317 203.978C69.3722 204.342 69.2912 204.735 69.294 205.132C69.2968 205.528 69.3834 205.92 69.5481 206.281C69.7127 206.643 69.9517 206.965 70.2495 207.227C70.5473 207.49 70.8971 207.686 71.276 207.804C72.8576 208.386 74.7647 207.624 76.1195 206.752C77.4742 205.88 79.2883 203.094 79.7593 202.356L81.1548 202.937C83.3933 203.827 85.6261 204.682 87.7949 205.635C88.5566 205.961 89.295 206.316 90.0392 206.659C89.5159 206.531 89.0799 206.426 89.0101 206.42C86.8994 206.141 82.6665 206.845 81.6432 208.996C81.4837 209.359 81.4028 209.752 81.4056 210.148C81.4085 210.545 81.4951 210.936 81.6598 211.297C81.8245 211.658 82.0636 211.979 82.3613 212.241C82.659 212.503 83.0088 212.699 83.3875 212.816C84.9749 213.398 86.9053 212.636 88.231 211.764C89.5567 210.892 91.2196 208.38 91.7894 207.508C92.5336 207.886 93.2837 208.264 93.9931 208.671C94.4699 208.955 94.9525 209.194 95.4176 209.508L96.8014 210.397C97.6562 210.979 98.5458 211.607 99.3714 212.212C99.9529 212.63 100.488 213.037 101.034 213.444C100.278 213.113 98.7842 212.485 98.6504 212.45C96.6096 211.868 92.3127 211.909 90.9812 213.88C90.7678 214.214 90.6273 214.589 90.5688 214.98C90.5102 215.372 90.535 215.772 90.6415 216.153C90.7479 216.534 90.9337 216.889 91.1866 217.194C91.4395 217.499 91.7539 217.746 92.1092 217.921C93.5861 218.718 95.5979 218.276 97.0573 217.613C98.6446 216.886 101.127 214.078 101.406 213.723C102.308 214.404 103.18 215.072 103.988 215.718C106.349 217.584 108.314 219.264 109.803 220.579L110.965 219.52C109.407 218.206 107.326 216.497 104.82 214.601C103.907 213.909 102.918 213.183 101.912 212.45C102.449 211.376 102.923 210.271 103.331 209.142C105.116 209.322 108.477 208.397 108.913 208.275C109.291 209.339 109.646 210.38 109.965 211.363C110.884 214.171 111.588 216.596 112.105 218.52L113.408 217.357C112.867 215.561 112.169 213.369 111.303 210.897C110.925 209.816 110.5 208.671 110.047 207.496C110.448 207.269 113.681 205.385 114.698 203.967C115.623 202.676 116.443 200.775 115.943 199.164C115.837 198.783 115.653 198.428 115.402 198.123C115.151 197.818 114.838 197.569 114.485 197.392C114.131 197.215 113.745 197.114 113.35 197.096C112.955 197.077 112.561 197.142 112.192 197.286C110 198.222 109.128 202.426 109.32 204.542C109.32 204.67 109.611 206.013 109.797 206.868C109.611 206.385 109.436 205.92 109.215 205.432C108.832 204.455 108.419 203.496 107.983 202.461C107.75 201.966 107.523 201.472 107.285 200.972C107.047 200.472 106.767 199.966 106.506 199.455C105.884 198.292 105.192 197.129 104.465 195.966C105.32 195.629 108.326 194.384 109.442 193.245C110.558 192.105 111.652 190.338 111.396 188.692C111.351 188.299 111.224 187.92 111.022 187.58C110.821 187.239 110.55 186.945 110.228 186.716C109.905 186.488 109.538 186.329 109.15 186.252C108.762 186.175 108.362 186.18 107.977 186.267C105.651 186.849 104.168 190.884 104.04 193.006C104.04 193.134 104.11 194.669 104.168 195.512C103.726 194.826 103.29 194.14 102.825 193.46C101.476 191.5 100.046 189.558 98.633 187.616C98.1969 187.035 97.7725 186.424 97.348 185.826C97.6504 185.709 101.255 184.308 102.505 183.035C103.616 181.872 104.715 180.127 104.465 178.476C104.419 178.083 104.291 177.704 104.089 177.363C103.888 177.023 103.616 176.729 103.293 176.5C102.97 176.271 102.603 176.113 102.214 176.036C101.826 175.959 101.426 175.964 101.04 176.051C98.7144 176.633 97.2317 180.668 97.1038 182.79C97.1038 182.953 97.2085 185.157 97.2666 185.698C96.3247 184.378 95.4002 183.058 94.5396 181.721C93.3664 179.922 92.3136 178.047 91.3882 176.11C91.5277 176.057 95.2955 174.61 96.5747 173.301C97.6852 172.138 98.7842 170.394 98.5342 168.749C98.4892 168.356 98.362 167.977 98.1607 167.636C97.9595 167.296 97.6887 167.002 97.3661 166.773C97.0436 166.544 96.6764 166.386 96.2885 166.308C95.9007 166.231 95.5009 166.236 95.1153 166.324C92.7895 166.905 91.3068 170.941 91.1789 173.063C91.1789 173.202 91.2545 174.883 91.3126 175.679L91.1847 175.714C90.3001 173.741 89.5956 171.692 89.0799 169.592C88.7833 168.429 88.5624 167.318 88.3705 166.231C89.0973 166.033 92.4406 165.097 93.7082 164.045C94.9757 162.992 96.22 161.411 96.156 159.73C96.1528 159.335 96.0665 158.944 95.9028 158.584C95.739 158.224 95.5015 157.902 95.2055 157.64C94.9095 157.377 94.5617 157.18 94.1846 157.06C93.8075 156.94 93.4094 156.901 93.0162 156.945C90.6614 157.277 88.7252 161.114 88.3647 163.213C88.3647 163.324 88.2717 164.504 88.231 165.365C88.1554 164.87 88.0623 164.364 87.9984 163.888C87.7484 162.103 87.6263 160.457 87.5274 158.998C87.4809 158.166 87.4576 157.41 87.4402 156.707C88.0507 156.125 90.5044 153.8 91.144 152.329C91.7836 150.857 92.1615 148.84 91.3301 147.375C91.1459 147.024 90.89 146.716 90.5789 146.471C90.2679 146.226 89.9086 146.049 89.5247 145.952C89.1407 145.855 88.7406 145.84 88.3504 145.907C87.9602 145.975 87.5886 146.125 87.2599 146.345C85.3179 147.729 85.3702 152.026 86.0156 154.055C86.0738 154.23 87.2541 156.87 87.289 156.841L87.3239 156.806C87.3239 157.48 87.3239 158.207 87.3704 159.004C87.4344 160.469 87.5158 162.126 87.7309 163.923C87.9407 165.858 88.2629 167.78 88.6961 169.679C89.1707 171.81 89.8362 173.894 90.6846 175.906L90.7195 175.976C90.266 175.447 88.9461 174.011 88.8298 173.912C87.2251 172.516 83.3003 170.766 81.2711 171.999C80.9379 172.212 80.6535 172.494 80.4365 172.825C80.2195 173.156 80.0747 173.529 80.0116 173.919C79.9485 174.31 79.9685 174.71 80.0703 175.092C80.1721 175.474 80.3534 175.831 80.6024 176.139C81.6141 177.482 83.6317 177.93 85.2249 177.935C87.0157 177.935 90.5509 176.336 90.8358 176.191C91.7464 178.218 92.7915 180.182 93.964 182.069C94.6385 183.168 95.3537 184.261 96.0863 185.343C95.6793 184.901 95.3129 184.506 95.2548 184.453C93.65 183.064 89.7253 181.308 87.696 182.54C87.3628 182.754 87.0785 183.035 86.8614 183.366C86.6444 183.697 86.4996 184.07 86.4365 184.461C86.3734 184.852 86.3934 185.251 86.4952 185.634C86.597 186.016 86.7784 186.373 87.0274 186.68C88.0333 188.029 90.0567 188.471 91.6498 188.477C93.243 188.483 96.3014 187.175 97.1038 186.82C97.3887 187.233 97.6852 187.651 97.9585 188.064C99.3307 190.035 100.709 192.006 102.029 193.972C102.488 194.669 102.912 195.367 103.337 196.065C102.976 195.669 102.668 195.344 102.616 195.297C101.011 193.902 97.0864 192.152 95.0571 193.384C94.7244 193.598 94.4405 193.88 94.2241 194.211C94.0076 194.542 93.8634 194.916 93.8008 195.306C93.7383 195.697 93.7588 196.096 93.8611 196.479C93.9633 196.861 94.145 197.217 94.3943 197.524C95.4002 198.867 97.4236 199.315 99.0109 199.321C100.598 199.327 103.372 198.158 104.325 197.728C104.744 198.455 105.163 199.181 105.529 199.908C105.773 200.408 106.041 200.873 106.25 201.391C106.459 201.908 106.698 202.403 106.913 202.897C107.302 203.874 107.704 204.874 108.076 205.833C108.326 206.496 108.552 207.136 108.779 207.775C108.337 207.077 107.43 205.734 107.343 205.63C106.076 204.247 104.474 203.213 102.691 202.629C102.559 202.468 102.411 202.32 102.25 202.187C101.952 201.927 101.603 201.732 101.225 201.616C100.847 201.499 100.449 201.463 100.057 201.51C99.664 201.557 99.2858 201.686 98.9463 201.889C98.6069 202.092 98.3139 202.364 98.0864 202.687C96.7724 204.676 98.3655 208.665 99.697 210.328C99.7726 210.426 100.744 211.392 101.366 211.991L100.052 211.136C99.197 210.554 98.3074 209.973 97.3887 209.339L95.9874 208.479C95.5223 208.182 94.999 207.926 94.4989 207.647C93.336 207.019 92.1208 206.438 90.8882 205.903C91.4115 205.153 93.2139 202.461 93.5337 200.891C93.8535 199.321 93.7779 197.263 92.6557 196.012C92.4008 195.71 92.0851 195.465 91.7291 195.292C91.3731 195.12 90.9848 195.024 90.5894 195.011C90.1941 194.999 89.8005 195.069 89.4342 195.219C89.068 195.368 88.7372 195.593 88.4635 195.879C86.8646 197.623 87.8356 201.827 88.8938 203.67C88.9636 203.786 89.8706 205.019 90.3881 205.688C89.6439 205.362 88.8996 205.031 88.1379 204.723C85.9284 203.833 83.6666 202.978 81.4164 202.158C80.7245 201.903 80.0384 201.635 79.3523 201.373C79.5442 201.112 81.7769 197.955 82.1142 196.199C82.4165 194.64 82.3642 192.57 81.2362 191.32C80.9812 191.018 80.6655 190.772 80.3095 190.6C79.9535 190.427 79.5652 190.332 79.1699 190.319C78.7745 190.307 78.3809 190.377 78.0146 190.527C77.6484 190.676 77.3177 190.901 77.044 191.186C75.445 192.931 76.416 197.135 77.48 198.978C77.5556 199.117 78.8697 200.891 79.2244 201.304C77.7126 200.722 76.2125 200.141 74.7531 199.495C72.783 198.642 70.8716 197.659 69.0317 196.553C69.1189 196.431 71.4679 193.146 71.811 191.349C72.1075 189.791 72.0552 187.721 70.933 186.471C70.678 186.169 70.3623 185.923 70.0063 185.751C69.6503 185.578 69.262 185.482 68.8667 185.47C68.4713 185.457 68.0777 185.528 67.7114 185.677C67.3452 185.827 67.0145 186.052 66.7408 186.337C65.1418 188.082 66.1128 192.285 67.171 194.129C67.2408 194.251 68.2409 195.605 68.7351 196.239L68.6421 196.338C66.8182 195.178 65.1019 193.857 63.5137 192.39C62.6241 191.594 61.8217 190.785 61.06 189.977C61.5601 189.396 63.8161 186.797 64.3103 185.209C64.8045 183.622 64.9499 181.628 63.9731 180.267C63.7514 179.939 63.4633 179.662 63.1275 179.452C62.7917 179.243 62.4157 179.106 62.0237 179.051C61.6318 178.997 61.2328 179.025 60.8524 179.134C60.4721 179.243 60.1189 179.431 59.8157 179.686C58.0365 181.267 58.5424 185.535 59.3913 187.483C59.4378 187.587 60.0309 188.611 60.4728 189.349C60.1355 188.983 59.7809 188.611 59.4611 188.25C58.2982 186.901 57.2574 185.593 56.3736 184.424C55.8736 183.756 55.4375 183.145 55.0305 182.569C55.234 181.755 56.0015 178.47 55.7107 176.871C55.42 175.272 54.6293 173.383 53.1291 172.638C52.7829 172.448 52.4004 172.333 52.0066 172.3C51.6127 172.267 51.2165 172.318 50.8435 172.448C50.4705 172.579 50.1292 172.786 49.8418 173.058C49.5543 173.329 49.3273 173.657 49.1753 174.022C48.3206 176.243 50.7336 179.796 52.3849 181.133C52.5302 181.25 54.9723 182.796 54.9839 182.756C54.9852 182.738 54.9852 182.721 54.9839 182.703C55.3619 183.285 55.7747 183.866 56.234 184.517C57.0946 185.68 58.083 187.041 59.2517 188.419C60.4964 189.918 61.8263 191.345 63.2346 192.692C64.8076 194.196 66.51 195.558 68.3223 196.763L68.3921 196.803C67.7234 196.611 65.8279 196.14 65.6767 196.123C63.5661 195.844 59.3331 196.547 58.3098 198.699C58.1503 199.062 58.0693 199.455 58.0721 199.852C58.075 200.249 58.1615 200.641 58.3262 201.002C58.4908 201.363 58.7298 201.685 59.0276 201.948C59.3254 202.21 59.6752 202.407 60.0541 202.525C61.6415 203.094 63.5719 202.356 64.8976 201.478Z" fill="#FCF4F5"/>
<path d="M173.68 53.9771C174.924 56.0587 179.407 59.1113 179.413 59.1113C179.419 59.1113 180.53 55.547 180.576 55.3086C181.053 52.5933 180.378 47.0579 177.669 45.6159C177.208 45.3888 176.705 45.2611 176.192 45.2413C175.679 45.2214 175.168 45.3098 174.691 45.5006C174.214 45.6915 173.783 45.9806 173.426 46.3491C173.068 46.7176 172.792 47.1572 172.616 47.6394C171.773 49.6628 172.622 52.2095 173.68 53.9771Z" fill="#FCF4F5"/>
<path d="M217.643 86.8521C217.643 86.9044 220.55 84.4914 220.707 84.317C222.609 82.311 225.097 77.3397 223.614 74.6127C223.356 74.1691 223.006 73.785 222.589 73.4854C222.172 73.1857 221.697 72.9773 221.194 72.8736C220.691 72.77 220.172 72.7734 219.67 72.8837C219.168 72.994 218.696 73.2087 218.283 73.5138C216.486 74.7522 215.794 77.3455 215.695 79.4038C215.585 81.8226 217.643 86.8463 217.643 86.8521Z" fill="#FCF4F5"/>
<path d="M166.069 67.8563C167.749 69.4669 172.506 71.1415 172.884 71.2694C171.924 73.9881 171.147 76.7678 170.558 79.5899C170.203 81.2296 169.895 82.8983 169.61 84.5729C169.61 83.7879 169.61 83.0844 169.61 82.9855C169.354 80.2411 167.244 75.0779 164.226 74.4092C163.721 74.311 163.202 74.3202 162.702 74.4362C162.201 74.5521 161.731 74.7723 161.321 75.0822C160.911 75.3922 160.571 75.785 160.323 76.235C160.075 76.6851 159.925 77.1824 159.882 77.6944C159.627 79.8632 161.127 82.0959 162.615 83.5088C164.104 84.9217 168.151 86.4684 169.22 86.8521C169.116 87.4917 169.005 88.1371 168.906 88.7767C168.424 91.8642 167.959 94.9458 167.406 97.9577C167.214 99.016 166.982 100.057 166.755 101.098C166.755 100.4 166.755 99.8125 166.755 99.7253C166.499 96.9751 164.389 91.8177 161.371 91.1432C160.867 91.0459 160.347 91.056 159.847 91.1727C159.347 91.2894 158.877 91.5102 158.468 91.8207C158.059 92.1312 157.719 92.5244 157.472 92.9746C157.225 93.4249 157.075 93.9222 157.033 94.4342C156.778 96.5971 158.272 98.8299 159.76 100.249C161.249 101.667 164.906 103.051 166.156 103.516C165.895 104.575 165.633 105.633 165.331 106.645C165.104 107.331 164.941 108.005 164.679 108.685L163.947 110.691C163.441 111.947 162.923 113.25 162.394 114.471C162.034 115.314 161.673 116.116 161.313 116.924C161.516 115.872 161.894 113.802 161.894 113.628C162.057 110.872 160.731 105.453 157.871 104.325C157.387 104.151 156.872 104.082 156.359 104.121C155.847 104.16 155.348 104.306 154.896 104.551C154.444 104.796 154.048 105.133 153.735 105.541C153.422 105.949 153.199 106.418 153.08 106.918C152.498 109.017 153.661 111.453 154.894 113.087C156.277 114.889 160.539 117.192 161.074 117.477C160.493 118.808 159.877 120.105 159.295 121.314C157.609 124.844 156.051 127.809 154.818 130.083L156.498 131.28C157.719 128.955 159.278 125.809 160.952 122.088C161.569 120.733 162.202 119.273 162.836 117.768C164.349 118.141 165.883 118.423 167.43 118.611C167.72 120.936 169.854 124.914 170.133 125.425C168.895 126.21 167.685 126.96 166.528 127.646C163.243 129.623 160.353 131.216 158.092 132.42L159.923 133.728C162.045 132.53 164.615 131.019 167.482 129.21C168.744 128.42 170.075 127.547 171.43 126.64C171.831 127.082 175.145 130.629 177.244 131.513C179.146 132.309 181.785 132.804 183.675 131.705C184.128 131.463 184.526 131.129 184.841 130.724C185.156 130.318 185.383 129.851 185.505 129.352C185.627 128.853 185.643 128.334 185.551 127.829C185.459 127.324 185.262 126.843 184.972 126.419C183.158 123.913 177.587 124.024 174.959 124.879C174.808 124.931 173.186 125.664 172.174 126.146C172.727 125.774 173.267 125.414 173.831 125.024C174.953 124.256 176.052 123.46 177.233 122.611L178.919 121.303C179.5 120.872 180.041 120.355 180.611 119.878C181.908 118.75 183.169 117.552 184.408 116.296C185.082 117.273 187.524 120.721 189.286 121.803C191.048 122.884 193.583 123.768 195.612 122.966C196.097 122.795 196.54 122.525 196.914 122.172C197.287 121.819 197.582 121.391 197.779 120.917C197.975 120.442 198.07 119.932 198.057 119.418C198.043 118.905 197.921 118.4 197.7 117.936C196.287 115.186 190.757 114.447 188.036 114.895C187.867 114.924 185.949 115.477 184.902 115.779C185.64 115.029 186.385 114.279 187.106 113.488C189.199 111.22 191.246 108.837 193.292 106.511C193.92 105.79 194.56 105.08 195.188 104.371C195.426 104.72 198.235 108.877 200.211 110.092C201.956 111.168 204.508 112.058 206.543 111.255C207.028 111.085 207.47 110.814 207.843 110.46C208.216 110.107 208.51 109.679 208.706 109.205C208.902 108.731 208.997 108.22 208.983 107.707C208.969 107.194 208.847 106.689 208.625 106.226C207.212 103.476 201.682 102.737 198.961 103.185C198.758 103.214 195.996 103.999 195.304 104.232C196.7 102.662 198.101 101.109 199.549 99.6323C201.49 97.6322 203.558 95.7599 205.741 94.0272C205.851 94.19 208.764 98.545 210.788 99.7893C212.532 100.865 215.085 101.749 217.12 100.952C217.604 100.781 218.047 100.511 218.42 100.157C218.792 99.804 219.086 99.3762 219.283 98.9018C219.479 98.4273 219.573 97.9169 219.559 97.4036C219.545 96.8903 219.423 96.3857 219.201 95.9227C217.789 93.1724 212.259 92.434 209.538 92.8875C209.358 92.8875 207.259 93.5097 206.264 93.812L206.183 93.655C208.429 91.9711 210.82 90.4903 213.329 89.2302C214.701 88.5209 216.05 87.922 217.399 87.3638C217.858 88.2302 220.004 92.1665 221.702 93.4864C223.399 94.8063 225.772 95.911 227.865 95.3412C228.365 95.2247 228.834 95.0043 229.244 94.6943C229.653 94.3843 229.992 93.9917 230.239 93.542C230.486 93.0923 230.636 92.5955 230.679 92.0841C230.722 91.5726 230.657 91.0579 230.487 90.5734C229.383 87.6661 223.975 86.3405 221.219 86.5033C221.068 86.5033 219.55 86.7649 218.451 86.9568C219.033 86.7184 219.672 86.4567 220.254 86.2358C222.44 85.4043 224.487 84.7764 226.312 84.2356C227.347 83.9333 228.295 83.6542 229.179 83.4565C230.074 84.0728 233.708 86.5091 235.79 86.887C237.872 87.265 240.506 87.1719 242.11 85.6951C242.5 85.3611 242.816 84.9488 243.036 84.4849C243.256 84.0209 243.376 83.5158 243.389 83.0024C243.401 82.489 243.304 81.9788 243.106 81.5051C242.908 81.0313 242.612 80.6046 242.238 80.2527C239.912 78.2002 234.511 79.5027 232.133 80.8981C231.923 81.0202 228.929 83.2821 228.975 83.3169L229.028 83.3518C228.173 83.5495 227.254 83.7763 226.254 84.0379C224.423 84.5438 222.347 85.1311 220.138 85.916C217.746 86.7492 215.405 87.7199 213.125 88.8232C210.567 90.0397 208.121 91.4795 205.817 93.1259L205.741 93.1899C206.276 92.4631 207.718 90.3815 207.811 90.2071C209.113 87.7708 210.201 82.3052 208.055 80.0783C207.687 79.7199 207.249 79.4427 206.767 79.2645C206.285 79.0864 205.772 79.0114 205.259 79.0443C204.747 79.0772 204.247 79.2172 203.792 79.4554C203.337 79.6937 202.937 80.0247 202.619 80.4272C201.212 82.0959 201.229 84.7822 201.682 86.794C202.194 89.0616 205.235 93.0794 205.479 93.3992C203.178 95.1357 200.994 97.0238 198.944 99.0508C197.74 100.214 196.572 101.446 195.409 102.685C195.856 102.039 196.246 101.458 196.292 101.371C197.595 98.9404 198.682 93.469 196.537 91.2479C196.17 90.8879 195.732 90.6093 195.251 90.4302C194.77 90.2511 194.256 90.1755 193.743 90.2084C193.231 90.2413 192.731 90.382 192.277 90.6212C191.822 90.8605 191.423 91.1929 191.106 91.5967C189.693 93.2597 189.711 95.9459 190.164 97.9577C190.618 99.9695 193.153 103.481 193.833 104.389L192.507 105.825C190.402 108.15 188.315 110.447 186.193 112.651C185.449 113.43 184.681 114.168 183.919 114.913C184.315 114.331 184.646 113.854 184.687 113.75C185.989 111.319 187.077 105.848 184.931 103.627C184.564 103.267 184.126 102.989 183.644 102.81C183.163 102.631 182.649 102.555 182.136 102.587C181.624 102.619 181.124 102.759 180.668 102.998C180.213 103.236 179.813 103.567 179.495 103.97C178.087 105.639 178.105 108.325 178.558 110.337C179.012 112.348 181.297 115.517 182.105 116.605C181.303 117.337 180.5 118.076 179.686 118.756C179.105 119.204 178.611 119.675 178.018 120.099L176.302 121.367C175.186 122.14 174.035 122.937 172.924 123.663C172.151 124.169 171.412 124.64 170.662 125.117C171.418 124.35 172.86 122.82 172.988 122.681C174.371 120.684 175.22 118.366 175.454 115.948C175.618 115.733 175.762 115.503 175.884 115.262C176.128 114.809 176.273 114.311 176.312 113.799C176.351 113.286 176.281 112.772 176.108 112.288C175.934 111.804 175.661 111.363 175.306 110.991C174.951 110.62 174.522 110.328 174.046 110.133C171.139 109.046 166.563 112.209 164.848 114.372C164.743 114.5 163.801 116.006 163.22 116.965C163.476 116.349 163.732 115.756 163.987 115.116C164.499 113.86 164.976 112.593 165.488 111.226C165.714 110.558 165.947 109.883 166.174 109.203C166.4 108.523 166.586 107.796 166.802 107.086C167.261 105.423 167.645 103.726 167.994 101.999C169.093 102.446 173.029 103.976 175.099 103.906C177.169 103.836 179.75 103.173 181.024 101.388C181.333 100.979 181.553 100.508 181.669 100.008C181.785 99.5075 181.794 98.9884 181.696 98.4843C181.597 97.9802 181.394 97.5025 181.099 97.0822C180.804 96.6618 180.424 96.3084 179.983 96.0448C177.291 94.5272 172.273 96.9635 170.25 98.8357C170.122 98.9578 168.819 100.464 168.121 101.307C168.319 100.272 168.529 99.2369 168.703 98.1787C169.191 95.1261 169.593 92.027 170.011 88.9337C170.133 87.9859 170.273 87.044 170.407 86.1021C170.796 86.2649 175.436 88.1836 177.756 88.1022C179.814 88.0325 182.408 87.3696 183.675 85.5846C183.985 85.1752 184.205 84.7052 184.321 84.2051C184.438 83.705 184.447 83.186 184.349 82.682C184.252 82.178 184.049 81.7001 183.755 81.2796C183.46 80.859 183.08 80.5052 182.64 80.2411C179.942 78.7293 174.924 81.1598 172.901 83.0379C172.75 83.1774 170.878 85.3636 170.43 85.9451C170.726 83.8693 171.011 81.7994 171.43 79.7701C171.951 77.0284 172.649 74.3229 173.517 71.6706C173.698 71.7462 178.529 73.7754 180.907 73.694C182.966 73.6184 185.559 72.9614 186.827 71.1764C187.137 70.7665 187.357 70.296 187.473 69.7955C187.589 69.295 187.599 68.7756 187.501 68.2711C187.404 67.7666 187.201 67.2883 186.906 66.8672C186.612 66.4461 186.232 66.0918 185.792 65.8271C183.094 64.3153 178.082 66.7458 176.052 68.6238C175.919 68.7459 174.494 70.4031 173.831 71.2054L173.68 71.1182C174.613 68.4763 175.78 65.9232 177.169 63.4897C177.925 62.1407 178.715 60.8906 179.495 59.6928C180.355 60.1638 184.315 62.2628 186.472 62.4314C188.53 62.5826 191.187 62.2105 192.635 60.5766C192.988 60.2034 193.258 59.76 193.428 59.2755C193.598 58.791 193.664 58.2761 193.622 57.7643C193.579 57.2526 193.43 56.7555 193.183 56.3053C192.936 55.8552 192.597 55.4622 192.187 55.1518C189.676 53.3493 184.425 55.2157 182.204 56.8612C182.088 56.9484 180.96 57.9892 180.152 58.7625C180.518 58.2276 180.89 57.6694 181.256 57.1636C182.617 55.268 183.983 53.6109 185.199 52.1515C185.902 51.3317 186.553 50.599 187.164 49.9246C188.251 49.9246 192.629 49.9711 194.571 49.1396C196.513 48.3082 198.642 46.7731 199.188 44.6567C199.329 44.162 199.365 43.6432 199.292 43.1339C199.219 42.6247 199.04 42.1365 198.765 41.7014C198.491 41.2662 198.128 40.8938 197.7 40.6086C197.272 40.3233 196.788 40.1315 196.281 40.0458C193.222 39.6039 189.42 43.6857 188.205 46.1626C188.1 46.3778 186.85 49.9188 186.902 49.9188H186.972C186.39 50.5583 185.722 51.2503 185.036 52.0236C183.786 53.4539 182.379 55.0878 180.966 56.96C179.425 58.967 178.002 61.0618 176.704 63.2338C175.242 65.6597 173.998 68.2107 172.988 70.8566L172.953 70.9554C173.006 70.0484 173.052 67.5191 173.035 67.3214C172.779 64.5712 170.668 59.4138 167.651 58.7451C167.147 58.6478 166.628 58.6577 166.128 58.7741C165.628 58.8905 165.158 59.1108 164.749 59.4206C164.34 59.7305 164.001 60.123 163.753 60.5726C163.506 61.0222 163.356 61.5188 163.313 62.0303C163.086 64.199 164.58 66.4318 166.069 67.8563Z" fill="#FCF4F5"/>
<path d="M201.235 170.208V168.26C201.235 158.23 213.934 157.794 213.934 150.654C213.934 147.555 211.41 145.531 207.654 145.531C203.543 145.531 200.944 147.77 200.944 150.945V151.741C200.944 152.532 200.514 152.904 199.717 152.904L192.002 152.613C191.281 152.613 190.775 152.253 190.775 151.753V150.956C190.775 142.235 197.7 136.24 207.875 136.24C217.829 136.24 224.248 141.868 224.248 150.305C224.248 162.283 211.335 162.358 211.335 168.911V170.208C211.354 170.374 211.336 170.542 211.281 170.7C211.226 170.858 211.137 171.001 211.019 171.119C210.901 171.237 210.757 171.327 210.599 171.382C210.442 171.436 210.274 171.454 210.108 171.435H202.462C202.296 171.454 202.128 171.436 201.97 171.382C201.812 171.327 201.669 171.237 201.551 171.119C201.433 171.001 201.343 170.858 201.288 170.7C201.233 170.542 201.215 170.374 201.235 170.208V170.208ZM200.584 181.837C200.584 178.662 203.398 176.063 206.788 176.063C210.038 176.063 212.922 178.662 212.922 181.837C212.922 185.012 210.015 187.611 206.718 187.611C203.421 187.611 200.584 185 200.584 181.825V181.837Z" fill="#FFA42E"/>
<path d="M48.7799 87.5846V85.8926C48.7799 77.1709 59.8274 76.8046 59.8274 70.6006C59.8274 67.9027 57.6353 66.1525 54.3793 66.1525C50.8034 66.1525 48.5648 68.0946 48.5648 70.8506V71.5425C48.5648 72.2286 48.1927 72.5426 47.5008 72.5426L40.7967 72.2926C40.1687 72.2926 39.7327 71.9786 39.7327 71.5425V70.8506C39.7327 63.2918 45.7448 58.0588 54.5828 58.0588C63.2288 58.0588 68.8107 62.9488 68.8107 70.2692C68.8107 80.6712 57.5888 80.7352 57.5888 86.4392V87.5672C57.6056 87.7109 57.5896 87.8567 57.5421 87.9934C57.4945 88.1301 57.4166 88.2543 57.3143 88.3567C57.2119 88.459 57.0877 88.5369 56.951 88.5844C56.8143 88.632 56.6686 88.648 56.5248 88.6312H49.844C49.7018 88.6475 49.5578 88.6318 49.4225 88.5852C49.2872 88.5386 49.164 88.4624 49.062 88.362C48.96 88.2617 48.8817 88.1398 48.8329 88.0053C48.7841 87.8708 48.766 87.727 48.7799 87.5846V87.5846ZM48.1985 97.6727C48.1985 94.9166 50.6406 92.6606 53.5827 92.6606C56.4027 92.6606 58.9145 94.9166 58.9145 97.6727C58.9145 100.429 56.4027 102.685 53.5245 102.685C52.1573 102.719 50.8318 102.212 49.8374 101.273C48.8429 100.334 48.26 99.0397 48.2159 97.6727H48.1985Z" fill="#FFA42E"/>
<path d="M189.117 20.8638V20.009C189.117 15.6075 194.688 15.4156 194.688 12.2816C194.688 10.9211 193.577 10.0314 191.932 10.0314C190.129 10.0314 188.989 11.0141 188.989 12.4096V12.7584C188.989 13.1073 188.798 13.2643 188.449 13.2643L185.065 13.1364C184.745 13.1364 184.524 12.9794 184.524 12.7584V12.4096C184.524 8.57784 187.565 5.94971 192.03 5.94971C196.397 5.94971 199.217 8.42085 199.217 12.1247C199.217 17.3577 193.548 17.41 193.548 20.2649V20.8463C193.557 20.9191 193.548 20.993 193.524 21.0621C193.5 21.1313 193.46 21.1941 193.408 21.2457C193.356 21.2972 193.293 21.3362 193.223 21.3597C193.154 21.3832 193.08 21.3906 193.007 21.3813H189.652C189.581 21.3903 189.509 21.3833 189.442 21.3607C189.374 21.3382 189.312 21.3006 189.261 21.251C189.209 21.2013 189.17 21.1407 189.145 21.0737C189.12 21.0066 189.111 20.9349 189.117 20.8638V20.8638ZM188.832 25.963C188.795 25.4194 188.922 24.877 189.197 24.4066C189.472 23.9361 189.882 23.5593 190.375 23.3251C190.867 23.0909 191.418 23.0102 191.956 23.0935C192.495 23.1768 192.996 23.4202 193.394 23.792C193.793 24.1639 194.07 24.647 194.19 25.1786C194.31 25.7101 194.267 26.2655 194.068 26.7725C193.868 27.2795 193.52 27.7147 193.07 28.0214C192.619 28.3281 192.087 28.4922 191.542 28.4923C191.198 28.5047 190.855 28.4491 190.532 28.3286C190.209 28.2081 189.914 28.0252 189.662 27.7902C189.41 27.5552 189.208 27.2729 189.065 26.9593C188.923 26.6458 188.844 26.3072 188.832 25.963Z" fill="#FFA42E"/>
<path d="M25.8303 138.455V137.379C25.8303 131.832 32.8541 131.594 32.8541 127.64C32.8541 125.925 31.4587 124.809 29.3655 124.809C27.092 124.809 25.6558 126.047 25.6558 127.803V128.239C25.6558 128.681 25.4175 128.879 24.9756 128.879L20.7078 128.722C20.3066 128.722 20.0275 128.518 20.0275 128.239V127.803C20.0275 122.977 23.8592 119.663 29.4876 119.663C34.9939 119.663 38.5407 122.774 38.5407 127.443C38.5407 134.065 31.4005 134.106 31.4005 137.74V138.455C31.4118 138.547 31.402 138.641 31.3718 138.728C31.3416 138.816 31.2918 138.896 31.2262 138.961C31.1607 139.027 31.081 139.076 30.9934 139.107C30.9057 139.137 30.8123 139.147 30.7202 139.135H26.4989C26.4078 139.145 26.3157 139.134 26.2295 139.103C26.1433 139.071 26.0652 139.021 26.001 138.956C25.9368 138.891 25.8881 138.812 25.8585 138.725C25.829 138.638 25.8193 138.546 25.8303 138.455V138.455ZM25.4698 144.88C25.4243 144.195 25.586 143.512 25.934 142.92C26.282 142.329 26.8001 141.855 27.4208 141.562C28.0416 141.269 28.7362 141.169 29.4144 141.276C30.0925 141.383 30.7227 141.692 31.2229 142.162C31.7231 142.633 32.0701 143.243 32.2189 143.913C32.3676 144.583 32.3111 145.282 32.0567 145.92C31.8024 146.558 31.3619 147.104 30.7927 147.488C30.2235 147.872 29.5519 148.075 28.8654 148.072C27.9904 148.1 27.1399 147.78 26.501 147.181C25.8621 146.583 25.487 145.755 25.4582 144.88H25.4698Z" stroke="#FCF4F5" stroke-miterlimit="10"/>
<path d="M79.3233 38.0864V37.348C79.3233 33.5337 84.1551 33.3651 84.1551 30.6497C84.1551 29.4868 83.1957 28.7019 81.7653 28.7019C80.2012 28.7019 79.2128 29.5508 79.2128 30.7602V31.0626C79.2128 31.3649 79.05 31.4986 78.7476 31.4986L75.8404 31.3882C75.5671 31.3882 75.3752 31.2544 75.3752 31.0626V30.7602C75.3752 27.4402 78.0092 25.1609 81.8758 25.1609C85.7424 25.1609 88.0449 27.3006 88.0449 30.5102C88.0449 35.0687 83.1317 35.0978 83.1317 37.5922V38.0864C83.1392 38.1493 83.1323 38.2131 83.1116 38.2729C83.0908 38.3327 83.0568 38.3871 83.012 38.4319C82.9672 38.4767 82.9129 38.5107 82.853 38.5314C82.7932 38.5522 82.7294 38.559 82.6666 38.5516H79.7593C79.6988 38.5545 79.6383 38.5442 79.5821 38.5214C79.5259 38.4987 79.4753 38.464 79.4338 38.4197C79.3924 38.3755 79.361 38.3228 79.3419 38.2652C79.3228 38.2077 79.3164 38.1467 79.3233 38.0864V38.0864ZM79.079 42.5054C79.0535 42.0408 79.1678 41.5792 79.4073 41.1803C79.6468 40.7814 80.0005 40.4635 80.4226 40.2677C80.8447 40.0718 81.3158 40.0071 81.775 40.0819C82.2343 40.1567 82.6605 40.3675 82.9987 40.6871C83.3369 41.0067 83.5715 41.4203 83.6721 41.8746C83.7727 42.3289 83.7347 42.8029 83.5631 43.2354C83.3914 43.6679 83.094 44.039 82.7093 44.3006C82.3245 44.5623 81.8701 44.7025 81.4048 44.7032C80.8043 44.7237 80.2202 44.5049 79.7809 44.095C79.3415 43.685 79.0828 43.1175 79.0616 42.517L79.079 42.5054Z" fill="#FCF4F5"/>
<path d="M165.377 197.489V196.751C165.377 192.937 170.209 192.774 170.209 190.053C170.209 188.89 169.249 188.105 167.819 188.105C166.255 188.105 165.266 188.954 165.266 190.163V190.465C165.266 190.768 165.104 190.907 164.801 190.907L161.894 190.797C161.621 190.797 161.429 190.657 161.429 190.465V190.163C161.429 186.843 164.063 184.564 167.93 184.564C171.796 184.564 174.163 186.703 174.163 189.919C174.163 194.472 169.249 194.501 169.249 196.995V197.489C169.257 197.552 169.25 197.616 169.229 197.676C169.208 197.736 169.174 197.791 169.13 197.836C169.085 197.881 169.031 197.916 168.971 197.938C168.911 197.959 168.847 197.967 168.784 197.96H165.877C165.811 197.973 165.743 197.969 165.679 197.951C165.615 197.932 165.556 197.898 165.507 197.852C165.458 197.806 165.421 197.749 165.398 197.686C165.376 197.623 165.368 197.556 165.377 197.489V197.489ZM165.133 201.908C165.107 201.444 165.222 200.982 165.461 200.583C165.701 200.184 166.054 199.866 166.476 199.67C166.898 199.475 167.37 199.41 167.829 199.485C168.288 199.56 168.714 199.77 169.052 200.09C169.391 200.409 169.625 200.823 169.726 201.277C169.826 201.732 169.788 202.206 169.617 202.638C169.445 203.071 169.148 203.442 168.763 203.703C168.378 203.965 167.924 204.105 167.459 204.106C166.86 204.12 166.28 203.897 165.846 203.485C165.411 203.074 165.157 202.507 165.139 201.908H165.133Z" stroke="#FCF4F5" stroke-miterlimit="10"/>
<path d="M142.614 208.511C142.573 208.382 142.532 208.254 142.486 208.125C142.439 207.997 142.404 207.862 142.358 207.733C142.311 207.605 142.276 207.476 142.23 207.347C142.183 207.219 142.148 207.084 142.102 206.956C142.055 206.827 142.02 206.698 141.974 206.57C141.927 206.441 141.893 206.307 141.846 206.178L141.718 205.792C141.677 205.658 141.631 205.529 141.59 205.4L141.462 205.015C141.422 204.88 141.375 204.751 141.334 204.623L141.206 204.237C141.166 204.102 141.119 203.974 141.079 203.845L140.956 203.435C140.916 203.3 140.869 203.172 140.828 203.043L140.695 202.657C140.654 202.523 140.613 202.394 140.567 202.265C140.52 202.137 140.485 202.008 140.439 201.88C140.392 201.751 140.358 201.616 140.311 201.488C140.264 201.359 140.23 201.231 140.183 201.102C138.288 195.028 132.427 190.571 125.978 190.571C119.728 190.571 114.291 194.404 112.024 199.804C111.966 199.926 111.913 200.055 111.861 200.177L111.704 200.557C111.646 200.68 111.593 200.802 111.541 200.931C111.489 201.059 111.431 201.182 111.378 201.304L111.221 201.678C111.163 201.806 111.111 201.929 111.059 202.057C111.006 202.186 110.948 202.302 110.896 202.431C110.843 202.559 110.785 202.676 110.733 202.804L110.576 203.178C110.518 203.3 110.465 203.429 110.413 203.551C110.361 203.674 110.303 203.802 110.25 203.925L110.093 204.304C110.035 204.427 109.983 204.549 109.931 204.678C109.878 204.806 109.82 204.929 109.768 205.051L109.611 205.425C109.553 205.553 109.5 205.676 109.448 205.804C109.396 205.933 109.337 206.049 109.285 206.178L109.128 206.551C109.07 206.674 109.018 206.803 108.965 206.925C108.913 207.047 108.855 207.176 108.803 207.305C107.805 209.542 107.293 211.985 107.302 214.456C107.302 224.314 115.384 232.372 125.38 232.372C135.159 232.372 143.666 224.314 143.666 214.456C143.664 212.577 143.351 210.712 142.741 208.946C142.701 208.768 142.66 208.639 142.614 208.511Z" fill="#FCF4F5"/>
<path d="M128.781 72.8933C98.7959 72.8933 78.3813 91.4765 78.3813 118.577V121.026C78.3868 121.431 78.4913 121.827 78.6848 122.177C78.8784 122.526 79.1544 122.818 79.4861 123.022C79.6115 123.149 79.7478 123.264 79.8931 123.365C80.0191 123.494 80.1575 123.609 80.3059 123.708C80.4319 123.837 80.5703 123.952 80.7187 124.051C80.8436 124.181 80.9821 124.296 81.1316 124.394C81.2555 124.522 81.3919 124.637 81.5386 124.736C81.6644 124.867 81.8028 124.984 81.9514 125.085C82.0789 125.213 82.2171 125.327 82.3642 125.428C82.4906 125.557 82.6289 125.672 82.7771 125.771C82.9013 125.9 83.0377 126.015 83.1841 126.114C83.3207 126.253 83.4707 126.376 83.6318 126.481C83.7503 126.595 83.8767 126.7 84.0097 126.794C84.1372 126.921 84.2754 127.036 84.4226 127.137C84.548 127.264 84.6843 127.379 84.8296 127.48C84.9571 127.607 85.0952 127.722 85.2424 127.822C85.3687 127.951 85.507 128.066 85.6552 128.165C85.7795 128.294 85.9158 128.409 86.0622 128.508C86.1886 128.637 86.3269 128.752 86.4751 128.851C86.5993 128.98 86.7357 129.095 86.8821 129.194C87.0096 129.321 87.1477 129.436 87.2949 129.537C87.4192 129.665 87.5555 129.78 87.7019 129.88C88.3737 130.502 89.2503 130.823 90.144 130.774L108.843 131.508C110.768 131.508 111.814 130.59 111.814 128.563V126.543C111.814 118.442 118.106 112.742 128.095 112.742C137.183 112.742 143.3 117.891 143.3 125.808C143.3 126.71 143.218 127.61 143.055 128.496C133.671 141.452 109.244 147.165 109.244 172.312V178.361C109.244 180.811 110.518 182.164 112.861 182.164H135.375C137.7 182.164 138.991 180.823 138.991 178.361V174.326C138.991 153.949 177.058 153.723 177.058 116.55C177.058 90.356 158.126 72.8933 128.781 72.8933Z" fill="#FCF4F5"/>
<path d="M109.215 178.373V172.324C109.215 141.195 146.643 139.872 146.643 117.683C146.643 108.051 139.201 101.763 128.141 101.763C116.018 101.763 108.372 108.706 108.372 118.558V121.007C108.372 123.457 107.093 124.595 104.756 124.595L81.998 123.695C79.8757 123.695 78.3872 122.575 78.3872 121.007V118.558C78.3872 91.458 98.8017 72.8748 128.787 72.8748C158.132 72.8748 177.047 90.3374 177.047 116.544C177.047 153.716 138.98 153.943 138.98 174.32V178.355C138.98 180.804 137.7 182.157 135.363 182.157H112.832C110.489 182.176 109.215 180.835 109.215 178.373ZM107.302 214.456C107.302 204.604 115.594 196.54 125.589 196.54C135.159 196.54 143.666 204.604 143.666 214.456C143.666 224.308 135.142 232.341 125.38 232.341C115.373 232.341 107.302 224.283 107.302 214.456Z" fill="#FF730C" stroke="#FF730C" stroke-miterlimit="10"/>
<path d="M124.449 252.418C141.986 252.418 156.202 249.071 156.202 244.942C156.202 240.813 141.986 237.466 124.449 237.466C106.913 237.466 92.6965 240.813 92.6965 244.942C92.6965 249.071 106.913 252.418 124.449 252.418Z" fill="#FCF4F5"/>
</svg>
