<?xml version="1.0" encoding="utf-8"?>
<!-- Generator: Adobe Illustrator 25.4.1, SVG Export Plug-In . SVG Version: 6.00 Build 0)  -->
<svg version="1.1" id="Layer_1" xmlns="http://www.w3.org/2000/svg" xmlns:xlink="http://www.w3.org/1999/xlink" x="0px" y="0px"
	 viewBox="0 0 1440 712" style="enable-background:new 0 0 1440 712;" xml:space="preserve">
<style type="text/css">
	.st0{fill:#FFC359;}
	.st1{opacity:0.32;fill:#F5C878;enable-background:new    ;}
	.st2{opacity:0.16;fill:#F5C878;enable-background:new    ;}
	.st3{fill:url(#SVGID_1_);}
	.st4{opacity:0.33;fill:#422416;enable-background:new    ;}
	.st5{opacity:0.16;fill:#FFC359;enable-background:new    ;}
	.st6{fill:url(#SVGID_00000026145753672098697260000007098028658441655429_);}
	.st7{opacity:7.000000e-02;fill:#FFC359;enable-background:new    ;}
	.st8{opacity:9.000000e-02;fill:#FFC359;enable-background:new    ;}
	.st9{opacity:0.22;fill:#422416;enable-background:new    ;}
	.st10{opacity:0.26;fill:#422416;enable-background:new    ;}
	.st11{fill:#9C2E00;}
	.st12{opacity:0.57;fill:url(#SVGID_00000156579696612691702530000005047154235453321357_);enable-background:new    ;}
</style>
<path class="st0" d="M915.6,375.4c17.9-107.5-54.6-209.2-162.1-227.1c-107.4-17.9-209.1,54.6-227,162.1
	c-17.9,107.5,54.6,209.2,162.1,227.1C796,555.5,897.6,482.9,915.6,375.4z"/>
<path class="st1" d="M568.5,195.9h410.1c0,0-56-5.4-79.2-8.5c-23.3-3.1-55.8-6.7-77.5-7.6c-21.7-0.9-28.7,10.2-55,0
	c-26.3-10.2-51.1-7.6-70.5,0C677,187.4,577.8,188.1,568.5,195.9z"/>
<path class="st2" d="M0,93.4c0,0,42.7,2,100.4,2c57.8,0,52.7-3.8,127.4,0c74.7,3.8,93.5,12.3,156.3,15.6
	c62.8,3.2,104.7-15.2,209.9-17.3c105.2-2.1,110.2,5.9,186.8,8.8c76.6,2.9,66.5,4.1,149.4,0.4c82.9-3.8,116.8-12.6,150.7,0
	s121.1,22.6,183.6,25.1c62.5,2.5,175.5,0,175.5,0v70.6c0,0-233.5-25.1-305.1-27.7c-71.6-2.7-128.2,8.8-215.4-4.4
	c-87.2-13.3-124.8-5.5-206.5-11.9c-81.6-6.4-134.3,3.6-233.5,6.1c-99.2,2.5-123,6.3-193.3-5C215.9,144.4,0,154.6,0,154.6V93.4z"/>
<path class="st2" d="M144.9,42.7c0,0,61.2,16.1,154.2,16.1c93,0,151.9-7.7,241.8-10.8c89.9-3.1,334.8-35.6,385.9-27.9
	c0,0-93.5-15.5-163.8-13.9S626.6,10.8,535,13.9C443.2,17,284.6,6.1,284.6,6.1L100.7,0L144.9,42.7z"/>
<path class="st1" d="M895.2,69c0,0,118.6,0,147.2,0c28.7,0,143.4,0,143.4,0s-50.4-4-72.1-11.3c-21.7-7.3-31.8-13.5-45.7-12.7
	c-13.9,0.8-8.5,5.4-34.9,3.9c-26.3-1.5-33.3-10.2-54.2-4S916.1,65.2,895.2,69z"/>
<path class="st1" d="M732.5,55.7h154.2c0,0-21.7-9.3-37.2-12.4c-15.5-3.1-20.1,1.5-38,0C793.7,41.7,744.9,47.9,732.5,55.7z"/>
<linearGradient id="SVGID_1_" gradientUnits="userSpaceOnUse" x1="720" y1="1545.1566" x2="720" y2="1779.4371" gradientTransform="matrix(1 0 0 -1 0 2140)">
	<stop  offset="0" style="stop-color:#F59D00"/>
	<stop  offset="1" style="stop-color:#F56600"/>
</linearGradient>
<path class="st3" d="M0,156l142.1-1.5l23.8,18.5l5.3,61.6l23.8,13.7l39.7,38.8v42.1h35.7l80,42l212.3,17.2l60.9-27.8l23.8,6.2
	l29.1,91.1h32l40.6-41.5l13.3-37.4l18.5-8l14.5,22.1c0,0,2.5,32.1,9.2,44c6.7,11.9,17.3,20.7,17.3,20.7h20.4l9.9-45.3l19.3-76
	l77.2-30.5l6.6,60.7l45.9,53.4l160.4,7.5l79.4-140.6l18.5-63.9l35.4-27.8l30.8,13.4l26.4,120.4l87.7,187.4v83.6L0,603.5V156z"/>
<path class="st4" d="M192.2,375l6.3-79.8l-23.8-13.7l5.9,57.8L192.2,375z"/>
<path class="st5" d="M784.5,418.1L770,479.6l-57.9,25.3l40.6-41.5l13.3-37.4L784.5,418.1z"/>
<path class="st5" d="M846,504.9l57.2-132.3l-27.9,11L846,504.9z"/>
<linearGradient id="SVGID_00000081645594264488750960000014086723520388545697_" gradientUnits="userSpaceOnUse" x1="984.3928" y1="1369.9219" x2="872.0424" y2="1681.9894" gradientTransform="matrix(1 0 0 -1 0 2140)">
	<stop  offset="0" style="stop-color:#F58000"/>
	<stop  offset="1" style="stop-color:#B54B00"/>
</linearGradient>
<path style="fill:url(#SVGID_00000081645594264488750960000014086723520388545697_);" d="M618.2,518.9l24.8-66.4l50.3-17.2l41.3,6.6
	c0,0,10.1,37,18.1,42.3l19.2,7.3c0,0,10.1,29.7,21.3,39c11.2,9.3,70.7,0,70.7,0l39.4-84.6l22.9-129.6l7.1-48.9l86.7-34.2l27.8,14.3
	l18.5-27.7c0,0,28.4-11.3,38.4-10c9.9,1.3,45.6,7.9,45.6,7.9s29.1,37,39,46.3l5.3,17.4l26.4,15l9.9,95.8l129,259.9l-829.3,18.5
	L618.2,518.9z"/>
<path class="st7" d="M611.7,555.1l50.8-91.7l26.8-15.5l45.3-5.9l-41.3-6.6L643,452.5l-24.8,66.4l-32.1,55.6L611.7,555.1z"/>
<path class="st8" d="M782.6,543.1h18.5l62.8-12.6c0,0-59.5,9.3-70.7,0c-11.2-9.3-21.3-39-21.3-39l-19.2-7.3l12.7,13.1L782.6,543.1z"
	/>
<path class="st7" d="M926.2,316.3l-22.9,129.6l-39.4,84.6L817,591.2l54.2,11.7c0,0,32.5-40,38.4-53.9c6-13.9,17.2-75.4,17.2-75.4
	l13.2-59.5l-10.6,8.6l-14.5,30.4l6.6-39l23.8-68.1l8.6-78.7l66.1-34.2l-86.7,34.2L926.2,316.3z"/>
<path class="st9" d="M1020,233.2c0,0,0.3,31.7,0,41.1c-0.3,9.4-2.3,43.1-2.3,43.1l-6,40.7l4.2,34.2l6.7-43.6l20.8-86.8l4.3-14.4
	L1020,233.2z"/>
<path class="st7" d="M1015.9,392.3l-4.2,51.6l-18.8,65.4l-68.1,97.2l55.6,11.2l24.5-104.1l25-76.4l2.8-77.3l27.1-111.1l11.9-23.1
	l30.4-11.9l48.3,4c0,0-35.7-6.6-45.6-7.9c-9.9-1.3-38.4,10-38.4,10l-18.5,27.7l-25.1,101.1L1015.9,392.3z"/>
<path class="st10" d="M1125.8,233.2l-35.7,121.4l26.5,141.5l-9.5,161.7l252.9-5.6l-129-259.9l-9.9-95.8l-26.4-15l15.2,115.5
	l-34.4-16.5l-25.1-38.4l5.3-39l-5.3-31.7v-53.5L1125.8,233.2z"/>
<path class="st11" d="M1176.7,577.9l-0.3-21c2.9-2.5,8.2-7.1,10.5-9.7c3.3-3.7,6.6-15,7.2-19.7c0.6-4.6,2.9-12.9,0-12.6
	c-2.9,0.3-4.3,16.6-8.5,24.9c-2.5,4.9-6.5,8.3-9.3,10.2l-0.2-16.1c0,0,3.1-39.3-2.6-39.3c-4.6,0-4.6,24.6-4.5,42.3
	c-2.8-2.9-6.5-7-8.7-11c-3.9-7.1-4.6-15.4-7.2-15.4c-2.6,0-1.3,7.7,0,12.6c1.1,3.9,11.7,17.2,16,22.4c0,0.6,0,1.3,0,1.8v29.8
	c0,4.5-4,8.2-8.8,8.1l-30.1-0.6c0,0-98.3-29.1-143.9-27.5c-45.6,1.6-225.8-60.6-225.8-60.6l-68.2-144.2L624,323h-89.2l-21,27.8
	v-88.5c0,0-3.5-34.4-17.5-42.6c-14-8.2-94.5-60.6-106.7-63.9c-12.3-3.3-45.5,0-45.5,0l-56,73.8V313l-52.5,19.9l-22.8,29.5
	l-10.5,63.9l-36.7,62.3c0,0-50.7,41-64.8,47.5C86.8,542.6,0,571.3,0,571.3V712h637.6H1440V584.8l-254.8,1
	C1180.6,585.8,1176.8,582.2,1176.7,577.9z"/>
<path class="st10" d="M513.8,350.9l10.1,61.1l28.9,20.1l10.5,93.4l11.8,23.3l7.9,36.1v-69.2l-9.2-108.3l9.2-56.3l41.1-27.9h-89.2
	L513.8,350.9z"/>
<path class="st10" d="M288,313.1l38.5,10l19.2,24.6l8.2,132.7l32,156.5l42,23.9c0,0-12.3-60.8-14.9-75.9
	c-2.6-15.2-7.8-74.5-8.7-100.6c-0.9-26.1-3.5-116.1-7-137.4c-3.5-21.3-35.9-71.3-39.4-86.8c-3.5-15.6-7-74.5-7-74.5l-7-29.5
	l-56,73.8L288,313.1L288,313.1z"/>
<path class="st7" d="M405,233c5.9,11.1,23,25.2,23,25.2l7.9,50.4l15.7,14.6l-5.3-71.7l-4.8-65.7c-23.2-14.4-46-28.1-52-29.7
	l9.6,38.9C399.1,194.9,399.1,221.9,405,233z"/>
<path class="st10" d="M212.8,362.4l-10.5,63.9l-36.7,62.3c0,0-50.7,41-64.8,47.5C86.8,542.6,0,571.3,0,571.3v57.5l325.6-12.5
	l-64.8-95c0,0-12.3-60.6-15.7-74.5c-3.5-13.9-17.5-69.6-17.5-69.6l7.9-44.2L212.8,362.4z"/>
<path class="st7" d="M625.7,323.8l56.3,33.9l17.7,67.6l53.2,79.9c0,0,36.1,31.3,50.5,39.3c14.4,8,106.3,25.8,106.3,25.8
	s47.2-8.6,66.3-8.6c19,0,70.3,2.6,70.6,2.6c-22.2-4.4-44.4-7.5-60.2-6.9c-45.6,1.6-225.8-60.6-225.8-60.6l-68.2-144.2L625.7,323.8z"
	/>
<radialGradient id="SVGID_00000063631556980861366040000016745192911950171274_" cx="-238.6475" cy="1611.2997" r="0.5303" gradientTransform="matrix(624.065 0 0 -624.289 149652.5938 1006259.5625)" gradientUnits="userSpaceOnUse">
	<stop  offset="0" style="stop-color:#FFFFFF"/>
	<stop  offset="1" style="stop-color:#FFFFFF;stop-opacity:0"/>
</radialGradient>
<path style="opacity:0.57;fill:url(#SVGID_00000063631556980861366040000016745192911950171274_);enable-background:new    ;" d="
	M721,674c182.8,0,330.9-148.2,330.9-331.1S903.8,11.8,721,11.8S390.1,160.1,390.1,342.9S538.2,674,721,674z"/>
</svg>
