<svg width="1440" height="843" viewBox="0 0 1440 843" fill="none" xmlns="http://www.w3.org/2000/svg">
<path d="M976.715 483.736C998.536 353.017 910.294 229.352 779.622 207.524C648.95 185.695 525.33 273.969 503.51 404.688C481.689 535.407 569.931 659.071 700.603 680.899C831.275 702.728 954.894 614.455 976.715 483.736Z" fill="#FFC359"/>
<path opacity="0.32" d="M554.627 265.424H1053.41C1053.41 265.424 985.347 258.829 957.055 255.061C928.762 251.293 889.198 246.921 862.809 245.81C836.421 244.698 827.939 258.226 795.895 245.81C763.852 233.393 733.693 236.558 710.132 245.81C686.57 255.061 565.936 256.003 554.627 265.424Z" fill="#F5C878"/>
<path opacity="0.16" d="M-7.13282 146.193C-7.13282 146.193 30.5654 148.209 88.3756 148.209C146.186 148.209 141.153 144.441 215.927 148.209C290.702 151.978 309.551 160.57 372.375 163.81C435.199 167.051 477.214 148.624 582.505 146.532C687.796 144.441 692.809 152.468 769.469 155.369C846.128 158.271 836.063 159.514 918.999 155.746C1001.93 151.978 1035.86 143.179 1069.79 155.746C1103.72 168.313 1191.05 178.356 1253.57 180.862C1316.09 183.368 1429.19 180.862 1429.19 180.862V251.519C1429.19 251.519 1195.46 226.421 1123.83 223.746C1052.21 221.07 995.507 232.602 908.255 219.299C821.002 205.997 783.304 213.797 701.612 207.391C619.939 200.966 567.161 211.028 467.883 213.534C368.605 216.04 344.742 219.808 274.36 208.503C203.996 197.198 -12.1467 207.391 -12.1467 207.391L-7.13282 146.193Z" fill="#F5C878"/>
<path opacity="0.16" d="M-19.7051 58.4095C-19.7051 58.4095 93.3894 71.5987 206.484 71.5987C319.579 71.5987 391.205 62.1778 500.53 58.4095C609.855 54.6411 907.67 15.0734 969.872 24.4943C969.872 24.4943 856.137 5.65253 770.694 7.53671C685.251 9.42089 604.822 13.1892 493.311 16.9576C381.781 20.7259 188.898 7.4048 188.898 7.4048L-34.7844 0L-19.7051 58.4095Z" fill="#F5C878"/>
<path opacity="0.32" d="M951.966 111.166C951.966 111.166 1096.16 111.166 1131.03 111.166C1165.9 111.166 1305.39 111.166 1305.39 111.166C1305.39 111.166 1244.13 106.324 1217.74 97.4496C1191.35 88.5563 1179.1 81.0196 1162.13 81.9617C1145.17 82.9038 1151.77 88.5752 1119.72 86.691C1087.68 84.8068 1079.2 74.2743 1053.75 81.8863C1028.3 89.4984 977.412 106.456 951.966 111.166Z" fill="#F5C878"/>
<path opacity="0.32" d="M754.05 94.8871H941.599C941.599 94.8871 915.21 83.5632 896.361 79.7949C877.512 76.0265 871.857 81.679 850.181 79.7949C828.504 77.9107 769.13 85.4663 754.05 94.8871Z" fill="#F5C878"/>
<path d="M-29.9057 215H36.0401L64.9955 237.552L71.438 312.493L100.393 329.16L148.652 376.363V427.594H192.085L289.399 478.729L547.585 499.641L621.59 465.873L650.545 473.447L685.943 584.254H724.888L774.305 533.819L790.496 488.377L813.009 478.681L830.695 505.599C830.695 505.599 833.784 544.649 841.891 559.121C849.999 573.593 862.932 584.254 862.932 584.254H887.786L899.85 529.188L923.377 436.736L1017.29 399.639L1025.32 473.447L1081.14 538.33L1276.25 547.399L1372.79 376.387L1395.3 298.648L1438.32 264.88L1475.72 281.137L1507.86 427.618L1560.3 559.145L1492.93 816H-46L-29.9057 215Z" fill="url(#paint0_linear_1038_3225)"/>
<path opacity="0.33" d="M97.0297 483.267L104.751 386.184L75.7958 369.517L82.9864 439.827L97.0297 483.267Z" fill="#422416"/>
<path opacity="0.16" d="M817.366 535.657L799.679 610.501L729.245 641.254L778.663 590.819L794.853 545.377L817.366 535.657Z" fill="#FFC359"/>
<path opacity="0.16" d="M892.167 641.254L961.684 480.325L927.758 493.736L892.167 641.254Z" fill="#FFC359"/>
<path d="M615.089 658.282L645.251 577.528L706.371 556.616L756.609 564.648C756.609 564.648 768.915 609.68 778.663 616.096L802.02 624.948C802.02 624.948 814.35 661.128 827.935 672.392C841.52 683.656 913.884 672.392 913.884 672.392L961.781 569.472L989.675 411.896L998.265 352.391L1103.71 310.857L1137.49 328.271L1160 294.551C1160 294.551 1194.58 280.851 1206.65 282.443C1218.71 284.059 1262.14 292.091 1262.14 292.091C1262.14 292.091 1297.54 337.123 1309.61 348.363L1316.05 369.493L1348.21 387.751L1360.28 504.251L1517.12 820.297L508.534 842.801L615.089 658.282Z" fill="url(#paint1_linear_1038_3225)"/>
<path opacity="0.07" d="M607.175 702.327L668.971 590.819L701.546 571.909L756.609 564.673L706.371 556.617L645.251 577.529L615.09 658.283L576.072 725.868L607.175 702.327Z" fill="#FFC359"/>
<path opacity="0.09" d="M814.954 687.685H837.467L913.861 672.417C913.861 672.417 841.496 683.681 827.911 672.417C814.327 661.153 801.996 624.973 801.996 624.973L778.639 616.121L794.034 632.016L814.954 687.685Z" fill="#FFC359"/>
<path opacity="0.07" d="M989.675 411.92L961.781 569.497L913.884 672.417L856.794 746.176L922.691 760.455C922.691 760.455 962.167 711.805 969.406 694.921C976.645 678.037 990.326 603.265 990.326 603.265L1006.42 530.905L993.56 541.349L975.873 578.325L983.908 530.881L1012.86 448.076L1023.31 352.392L1103.73 310.857L998.289 352.392L989.675 411.92Z" fill="#FFC359"/>
<path opacity="0.22" d="M1103.71 310.857C1103.71 310.857 1104.12 349.377 1103.71 360.834C1103.3 372.291 1100.89 413.295 1100.89 413.295L1093.65 462.741L1098.76 504.276L1106.92 451.284L1132.26 345.759L1137.49 328.272L1103.71 310.857Z" fill="#422416"/>
<path opacity="0.07" d="M1098.76 504.276L1093.65 567.061L1070.73 646.657L987.889 764.845L1055.45 778.521L1085.2 651.891L1115.56 559.029L1118.98 464.96L1151.97 329.888L1166.5 301.74L1203.44 287.268L1262.14 292.092C1262.14 292.092 1218.71 284.06 1206.65 282.444C1194.58 280.828 1160 294.552 1160 294.552L1137.49 328.272L1106.92 451.284L1098.76 504.276Z" fill="#FFC359"/>
<path opacity="0.26" d="M1232.39 310.857L1188.96 458.544L1221.15 630.593L1209.54 827.196L1517.12 820.346L1360.28 504.276L1348.21 387.776L1316.05 369.517L1334.56 509.993L1292.72 489.901L1262.17 443.252L1268.59 395.832L1262.17 357.24V292.116L1232.39 310.857Z" fill="#422416"/>
<defs>
<linearGradient id="paint0_linear_1038_3225" x1="757.172" y1="804.472" x2="757.172" y2="490.902" gradientUnits="userSpaceOnUse">
<stop stop-color="#F59D00"/>
<stop offset="1" stop-color="#F56600"/>
</linearGradient>
<linearGradient id="paint1_linear_1038_3225" x1="1060.43" y1="963.723" x2="923.795" y2="584.199" gradientUnits="userSpaceOnUse">
<stop stop-color="#F58000"/>
<stop offset="1" stop-color="#B54B00"/>
</linearGradient>
</defs>
</svg>
