<svg width="183" height="207" viewBox="0 0 183 207" fill="none" xmlns="http://www.w3.org/2000/svg">
<g clip-path="url(#clip0_959_1603)">
<path d="M140.302 43.8545C158.376 52.8849 171.908 69.558 178.447 88.6751C178.996 90.5499 179.913 93.1248 180.314 94.9996C182.46 103.621 183.401 112.573 182.84 121.473C182.308 131.67 179.88 141.761 175.904 151.159C174.995 153.214 174.013 155.368 172.956 157.361C172.485 158.241 171.838 159.551 171.327 160.395C169.984 162.777 168.297 165.475 166.733 167.685C166.225 168.385 165.193 169.769 164.681 170.465C162.671 173.13 160.235 175.942 157.966 178.374C156.836 179.507 155.456 180.969 154.281 182.045C147.922 187.94 140.687 193.033 132.969 196.987C99.6931 213.902 58.4942 209.174 30.4099 184.453C12.9796 169.4 1.6501 147.271 0.188361 124.252C-1.20787 103.719 5.2328 82.1335 19.0436 66.9382C19.7069 66.0867 20.9352 66.844 20.4439 67.7896C5.71185 92.13 5.20004 123.933 19.0231 148.773C31.9085 172.045 55.5134 187.83 82.0417 190.392C97.4493 191.862 113.344 188.955 127.098 181.808C133.104 178.75 138.796 174.804 143.836 170.334C144.479 169.814 145.359 168.921 145.969 168.357C148.213 166.285 150.432 163.776 152.422 161.459C170.929 139.051 176.064 108.459 165.889 81.2247C165.615 80.5821 165.091 79.1575 164.82 78.5066C164.378 77.2703 163.535 75.6534 163.035 74.5072C162.335 72.8902 161.144 70.8803 160.345 69.3165C159.469 67.9861 158.204 65.6405 157.241 64.3592C152.373 57.0481 146.24 50.5843 139.32 45.1603C138.968 44.882 138.902 44.3703 139.181 44.0182C139.447 43.6703 139.946 43.6129 140.302 43.8545Z" fill="#521737"/>
<path d="M123.089 69.2183C125.055 69.4107 127.147 69.7259 129.038 70.3236C130.234 70.6961 131.475 71.0604 132.638 71.5517C133.039 71.74 134.292 72.2967 134.718 72.4973C137.494 73.799 140.114 75.4897 142.509 77.4219C143.259 77.995 144.233 78.7768 144.872 79.44L147.116 81.6137C147.816 82.3792 148.471 83.1897 149.151 83.988C151.534 86.7757 153.458 89.9564 155.125 93.2149C155.743 94.6149 156.455 96.1418 157 97.5623L157.999 100.559C158.932 103.559 159.526 106.711 159.87 109.831C161.201 122.996 157.02 137.524 146.485 146.03L146.338 146.145C146.149 146.288 145.879 146.251 145.732 146.063C145.629 145.928 145.617 145.748 145.691 145.605C147.345 142.342 148.684 138.924 149.671 135.42C151.079 130.61 151.796 125.624 151.853 120.625C151.923 119.766 151.808 117.449 151.783 116.544C151.783 115.783 151.632 114.6 151.554 113.83C151.464 113.044 151.378 111.89 151.223 111.128C150.948 109.495 150.572 107.383 150.117 105.803C149.789 104.272 149.036 102.106 148.557 100.592C148.115 99.3593 147.533 98.0207 147.058 96.7927C146.69 95.9494 145.687 93.9763 145.285 93.1166L143.926 90.7587L143.242 89.5798L142.477 88.454C141.609 87.1073 140.282 85.3102 139.267 84.0535C138.792 83.3903 138.059 82.5798 137.506 81.9739C136.458 80.7417 134.89 79.1821 133.69 78.0768C132.4 76.8365 130.91 75.6739 129.53 74.5359C128.285 73.6599 126.348 72.1821 125.018 71.437L122.676 70.0084C122.471 69.8815 122.405 69.6154 122.528 69.4107C122.618 69.2674 122.774 69.1897 122.934 69.2019L123.089 69.2183Z" fill="#732648"/>
<path d="M41.4201 139.231C41.4201 139.231 36.433 125.186 32.6824 114.78C28.7107 103.764 20.6282 88.3804 23.7441 69.9429C23.7441 69.9429 23.8464 73.4593 25.9551 75.7681C25.9551 75.7681 25.7545 37.2066 59.6529 17.9258C59.6529 17.9258 59.5014 24.7048 57.2413 27.5662C57.2413 27.5662 72.7595 9.64043 111.932 10.0948C111.932 10.0948 152.909 14.4627 156.828 0.00415039C156.828 0.00415039 163.007 34.3452 120.972 42.782L132.421 50.6131C132.421 50.6131 110.134 40.3709 81.3538 46.6955C90.6074 40.8212 90.9882 40.068 111.481 34.4966C111.481 34.4966 129.26 32.3885 134.382 25.1592C134.382 25.1592 81.1982 22.7481 67.4898 36.7563C67.4898 36.7563 34.4963 59.6517 38.7136 115.234L41.4201 139.231Z" fill="white"/>
<path d="M60.2221 166.699L48.8189 149.661C48.8189 149.661 55.321 148.605 54.0763 144.438C52.8315 140.271 46.1452 142.358 46.1452 142.358C46.1452 142.358 43.1235 130.999 43.3937 118.824L50.8048 138.699C50.8048 138.699 61.7207 139.607 56.8482 153.022L60.2221 166.699Z" fill="white"/>
<path d="M43.3772 115.68C45.4326 111.214 48.3643 108.312 51.3738 107.133C54.2154 106.02 58.9322 106.257 63.3175 103.416C62.8261 103.731 60.6642 102.466 60.2711 102.229C58.2853 101.03 57.2699 99.0974 57.7653 96.7641C57.9987 95.6506 58.5228 94.6149 59.1533 93.6693C63.9603 86.4442 72.9682 86.5301 80.6905 87.2588C64.7833 82.5798 74.7944 50.8095 130.611 61.5061C130.611 61.5061 93.2483 46.9943 67.3342 67.6301C67.3342 67.6301 46.5423 83.4476 43.3772 115.68Z" fill="white"/>
<path d="M67.8387 99.3612C70.0672 98.0748 71.0553 95.6146 70.0456 93.8662C69.036 92.1179 66.4108 91.7434 64.1823 93.0298C61.9537 94.3162 60.9656 96.7763 61.9753 98.5247C62.985 100.273 65.6101 100.648 67.8387 99.3612Z" fill="white"/>
<path d="M87.794 77.68C90.3966 76.1777 91.5505 73.3044 90.3712 71.2624C89.1919 69.2203 86.1261 68.7827 83.5235 70.2851C80.9209 71.7874 79.767 74.6607 80.9463 76.7027C82.1256 78.7448 85.1914 79.1823 87.794 77.68Z" fill="white"/>
</g>
<defs>
<clipPath id="clip0_959_1603">
<rect width="183" height="207" fill="white"/>
</clipPath>
</defs>
</svg>
