<svg width="183" height="207" viewBox="0 0 183 207" fill="none" xmlns="http://www.w3.org/2000/svg">
<g clip-path="url(#clip0_959_1575)">
<path d="M41.4169 139.217C41.4169 139.217 36.4297 125.173 32.679 114.769C28.7072 103.754 20.6245 88.3717 23.7405 69.936C23.7405 69.936 23.8429 73.4521 25.9516 75.7606C25.9516 75.7606 25.7509 37.2029 59.6502 17.9241C59.6502 17.9241 59.4986 24.7024 57.2384 27.5635C57.2384 27.5635 72.757 9.63948 111.93 10.0938C111.93 10.0938 152.909 14.4612 156.827 0.00415039C156.827 0.00415039 163.006 34.3418 120.971 42.7778L132.419 50.6081C132.419 50.6081 110.132 40.3669 81.3515 46.6909C90.6053 40.8172 90.9861 40.064 111.48 34.4932C111.48 34.4932 129.258 32.3853 134.381 25.1567C134.381 25.1567 81.1959 22.7458 67.4872 36.7527C67.4872 36.7527 34.4929 59.6458 38.7104 115.223L41.4169 139.217Z" fill="url(#paint0_linear_959_1575)"/>
<path d="M60.2193 166.682L48.8158 149.647C48.8158 149.647 55.3181 148.59 54.0733 144.424C52.8285 140.257 46.1421 142.344 46.1421 142.344C46.1421 142.344 43.1202 130.986 43.3905 118.813L50.8017 138.685C50.8017 138.685 61.7179 139.594 56.8453 153.007L60.2193 166.682Z" fill="url(#paint1_linear_959_1575)"/>
<path d="M43.3782 115.669C45.4337 111.203 48.3654 108.301 51.375 107.122C54.2166 106.009 58.9336 106.247 63.3189 103.406C62.8276 103.721 60.6656 102.456 60.2725 102.219C58.2866 101.02 57.2712 99.0876 57.7666 96.7545C58 95.6411 58.5241 94.6056 59.1547 93.66C63.9618 86.4356 72.9699 86.5215 80.6923 87.2501C64.7848 82.5716 74.7961 50.8045 130.614 61.5C130.614 61.5 93.2504 46.9897 67.3357 67.6234C67.3316 67.6234 46.5392 83.4394 43.3782 115.669Z" fill="url(#paint2_linear_959_1575)"/>
<path d="M140.301 43.8502L143 45.2787L144.347 46.0195C144.793 46.2692 145.215 46.5557 145.653 46.8218C146.525 47.3621 147.385 47.9229 148.253 48.4836C149.117 49.0526 149.924 49.6829 150.771 50.2846C152.471 51.4839 154.023 52.8551 155.628 54.1977C156.451 54.8526 157.167 55.6098 157.929 56.3302C158.674 57.067 159.46 57.7751 160.177 58.5446C165.995 64.6312 170.978 71.7369 174.737 79.5713C175.196 80.5536 175.634 81.5483 176.076 82.547C176.539 83.5376 176.911 84.5609 177.296 85.5801L178.447 88.6581L179.425 91.8017L179.913 93.3817C179.999 93.6436 180.068 93.9097 180.13 94.1798L180.318 94.9821L181.067 98.2075L181.252 99.018L181.395 99.8325L181.677 101.466C181.858 102.559 182.062 103.651 182.218 104.748C182.758 109.149 183.115 113.606 182.967 118.088C182.959 118.649 182.963 119.21 182.943 119.77L182.844 121.453C182.767 122.574 182.73 123.7 182.615 124.821C182.492 125.939 182.374 127.064 182.226 128.182L182.12 129.021L181.976 129.856L181.686 131.526C181.338 133.765 180.777 135.963 180.281 138.181C179.667 140.367 179.106 142.582 178.344 144.731C177.661 146.912 176.756 149.008 175.908 151.132C175.45 152.18 174.962 153.212 174.483 154.255C174.238 154.771 174.012 155.303 173.746 155.807L172.956 157.333L172.162 158.86L171.76 159.621L171.33 160.366L169.59 163.342C168.992 164.32 168.345 165.274 167.707 166.232C167.383 166.707 167.076 167.194 166.736 167.66L165.713 169.052L164.685 170.44L164.169 171.131L163.624 171.803L161.438 174.484C160.689 175.36 159.906 176.207 159.137 177.071C158.748 177.496 158.371 177.938 157.966 178.348L156.75 179.584L155.529 180.816L154.919 181.43L154.28 182.019C153.429 182.801 152.561 183.571 151.701 184.344C150.821 185.097 149.916 185.818 149.019 186.55C148.564 186.911 148.126 187.291 147.66 187.635L146.263 188.671L144.863 189.702L144.163 190.218L143.442 190.701L140.543 192.633C139.564 193.255 138.557 193.836 137.562 194.438C137.063 194.733 136.567 195.044 136.059 195.322L134.524 196.149C134.012 196.427 133.496 196.697 132.98 196.964C132.464 197.234 131.944 197.5 131.412 197.733L128.235 199.19C127.17 199.661 126.081 200.074 125 200.512L123.374 201.155L121.724 201.728C117.335 203.308 112.81 204.495 108.237 205.387L104.789 205.973L101.321 206.394C100.166 206.554 99.0034 206.623 97.8446 206.705L96.1044 206.824C95.5229 206.865 94.9456 206.906 94.3642 206.91L90.8797 206.98C90.589 206.984 90.2982 206.992 90.0075 206.988L89.1354 206.963L87.3952 206.91C85.0735 206.877 82.756 206.652 80.4466 206.427C71.2215 205.289 62.111 202.98 53.6475 199.194C45.1921 195.429 37.2813 190.496 30.4147 184.422C29.5344 183.693 28.7072 182.895 27.876 182.113C27.0489 181.324 26.1973 180.566 25.4152 179.727L23.0403 177.263C22.2746 176.416 21.5376 175.548 20.8006 174.684C20.0472 173.833 19.3593 172.924 18.6632 172.028C17.9712 171.123 17.2506 170.251 16.6159 169.31L14.6628 166.527L12.8407 163.661C12.2224 162.716 11.6737 161.725 11.1168 160.747C10.5682 159.761 10.0031 158.786 9.51994 157.767L8.0377 154.738C7.5791 153.711 7.14098 152.675 6.69467 151.648C4.98312 147.506 3.4845 143.286 2.48951 138.943C1.45767 134.62 0.642847 130.265 0.327563 125.873L0.188346 124.232C0.139211 123.688 0.139211 123.135 0.114644 122.591L0.00408936 119.316L0.0573192 116.046C0.0736976 115.501 0.0614138 114.961 0.10236 114.421L0.229292 112.796C0.818915 104.155 2.77204 95.7025 5.97811 87.905C9.16781 80.1075 13.5777 72.9444 19.044 66.9234L19.1423 66.8129C19.4453 66.4813 19.9571 66.4568 20.2887 66.7597C20.5795 67.0257 20.6327 67.4514 20.4402 67.7748C16.4316 74.4957 13.4016 81.7857 11.4813 89.3499C9.56498 96.9141 8.72559 104.748 9.06135 112.53L9.11048 113.991C9.12277 114.478 9.18009 114.961 9.21694 115.448L9.45033 118.358L9.83113 121.252C9.90074 121.735 9.94578 122.218 10.0359 122.697L10.2979 124.134L10.56 125.57C10.646 126.049 10.7319 126.528 10.8507 126.999L11.5222 129.84C11.6246 130.314 11.7679 130.781 11.903 131.248L12.3084 132.647L12.7137 134.047C12.8611 134.51 13.0249 134.968 13.1805 135.427C14.372 139.127 15.9362 142.7 17.6682 146.175C18.1186 147.035 18.5567 147.903 19.0153 148.758L20.4812 151.275C20.948 152.127 21.5089 152.921 22.0289 153.74C22.5572 154.554 23.0731 155.377 23.6545 156.155L25.3579 158.516L27.1677 160.796C27.7532 161.57 28.4206 162.278 29.0512 163.015C29.6899 163.743 30.3164 164.484 31.0043 165.172L33.023 167.268L35.1317 169.273C35.8196 169.957 36.5771 170.567 37.3059 171.205C38.0388 171.84 38.7636 172.486 39.5416 173.068C45.5934 177.922 52.3536 181.888 59.5314 184.815L62.2379 185.879L64.9936 186.812C65.4563 186.96 65.9067 187.136 66.3776 187.263L67.7779 187.656L69.1783 188.049L69.8785 188.245L70.5868 188.409L73.4203 189.06C74.3661 189.268 75.3284 189.408 76.2783 189.588L77.7114 189.841C78.1905 189.911 78.6737 189.964 79.1527 190.026C80.115 190.14 81.0731 190.275 82.0394 190.378C83.9721 190.509 85.9047 190.713 87.8415 190.713L89.2951 190.746L90.0198 190.762C90.2614 190.762 90.503 190.75 90.7445 190.746L93.6517 190.668C94.1349 190.664 94.618 190.627 95.1012 190.586L96.5507 190.472C97.517 190.398 98.4833 190.337 99.4415 190.193L102.324 189.825L105.182 189.313C108.982 188.577 112.753 187.643 116.405 186.35L117.781 185.887L119.137 185.359C120.033 184.999 120.946 184.668 121.835 184.283L124.484 183.092C124.93 182.899 125.364 182.687 125.794 182.461L127.088 181.802L128.382 181.143C128.812 180.918 129.226 180.664 129.647 180.431C130.487 179.944 131.334 179.477 132.166 178.978L134.614 177.415L135.228 177.022L135.822 176.6L137.009 175.761L138.197 174.922C138.594 174.643 138.963 174.328 139.347 174.034C140.109 173.432 140.883 172.847 141.628 172.233L143.831 170.333L144.38 169.859L144.908 169.359L145.96 168.356L147.017 167.353C147.369 167.018 147.692 166.658 148.028 166.31C148.695 165.606 149.379 164.918 150.03 164.202L151.938 162.008L152.417 161.459L152.868 160.886L153.769 159.744L154.669 158.602C154.968 158.222 155.239 157.816 155.525 157.423C156.082 156.629 156.659 155.852 157.204 155.049L158.776 152.602L159.169 151.992L159.534 151.361L160.263 150.101L160.992 148.84C161.237 148.423 161.442 147.98 161.667 147.555C162.105 146.691 162.56 145.836 162.99 144.964C163.788 143.196 164.623 141.444 165.307 139.626C166.069 137.842 166.642 135.988 167.289 134.154C167.813 132.287 168.419 130.441 168.82 128.538L169.156 127.122L169.324 126.414L169.455 125.697L169.979 122.832C170.147 121.874 170.245 120.908 170.38 119.946L170.573 118.501C170.626 118.018 170.655 117.535 170.696 117.048C171.113 113.18 171.048 109.284 170.929 105.399C170.511 97.6345 168.947 89.9393 166.38 82.588C166.302 82.3587 166.233 82.1254 166.151 81.8962L165.885 81.2167L165.348 79.8578L164.812 78.4989C164.632 78.0445 164.464 77.5902 164.251 77.1522L163.027 74.4998C162.818 74.0619 162.633 73.6075 162.4 73.1777L161.712 71.8884L160.336 69.3097L158.813 66.8129L158.052 65.5644C157.794 65.151 157.503 64.7581 157.233 64.3529L155.57 61.942C150.984 55.6221 145.465 49.9817 139.307 45.1559C138.954 44.8775 138.889 44.3659 139.167 44.0139C139.413 43.6987 139.847 43.6168 140.191 43.7969L140.301 43.8502Z" fill="white"/>
<path d="M123.092 69.2115C124.103 69.2893 125.09 69.453 126.093 69.6168L127.592 69.9074C128.091 70.0138 128.554 70.1816 129.041 70.3167C130.012 70.595 130.962 70.9348 131.936 71.2622C132.186 71.3359 132.411 71.4423 132.641 71.5487L133.332 71.8598L134.721 72.4943C136.6 73.3252 138.295 74.4508 140.048 75.556C140.912 76.1249 141.69 76.7839 142.513 77.4183L143.737 78.3843C144.15 78.7036 144.498 79.0843 144.879 79.4363L147.123 81.6098C147.823 82.3752 148.478 83.1856 149.158 83.9838L150.169 85.1872C150.489 85.6006 150.775 86.0386 151.078 86.4643C151.68 87.3197 152.274 88.1875 152.847 89.0675C153.38 89.9721 153.879 90.8931 154.391 91.814C154.645 92.2766 154.903 92.735 155.128 93.2098L155.779 94.6465C156.193 95.6125 156.635 96.5744 157.007 97.5568L158.007 100.553C158.346 101.552 158.572 102.579 158.817 103.606L159.161 105.146C159.276 105.657 159.399 106.169 159.456 106.697C159.599 107.741 159.755 108.78 159.874 109.824L159.968 110.606L160.013 111.392C160.046 111.916 160.058 112.444 160.078 112.968C160.222 115.059 160.058 117.163 159.898 119.242C159.874 119.762 159.788 120.278 159.714 120.798C159.636 121.314 159.575 121.829 159.477 122.345C159.296 123.372 159.133 124.392 158.883 125.403C157.904 129.438 156.393 133.311 154.33 136.827C153.285 138.579 152.139 140.253 150.829 141.8C149.531 143.347 148.114 144.784 146.488 146.028L146.341 146.143C146.153 146.286 145.882 146.249 145.735 146.061C145.633 145.926 145.62 145.746 145.694 145.602C147.348 142.34 148.687 138.922 149.674 135.419C150.69 131.919 151.361 128.329 151.672 124.707C151.766 123.802 151.775 122.894 151.807 121.985L151.856 120.626C151.873 120.172 151.906 119.717 151.877 119.267L151.787 116.545L151.766 115.866C151.758 115.64 151.721 115.415 151.701 115.186L151.558 113.831L151.414 112.476L151.345 111.801L151.226 111.13L150.751 108.449C150.685 107.998 150.571 107.56 150.456 107.123L150.124 105.805C149.899 104.924 149.707 104.036 149.396 103.185L148.564 100.594C148.266 99.7384 147.901 98.9075 147.569 98.0602L147.062 96.7954C146.886 96.3779 146.669 95.9768 146.476 95.5675L145.285 93.1198L143.925 90.7621L143.241 89.5833L142.476 88.4576C141.964 87.7086 141.464 86.9513 140.94 86.2064L139.266 84.0575C138.983 83.7014 138.721 83.3289 138.418 82.9932L137.505 81.9822C136.891 81.315 136.301 80.6192 135.662 79.9684L133.689 78.0814C133.353 77.7745 133.046 77.4347 132.69 77.1523L131.637 76.2845C130.933 75.7074 130.249 75.1016 129.529 74.5408L127.305 72.9445C126.933 72.6825 126.568 72.4042 126.187 72.1545L125.016 71.4423L122.674 70.0138C122.47 69.8869 122.404 69.6208 122.527 69.4162C122.617 69.2729 122.773 69.1952 122.932 69.2074L123.092 69.2115Z" fill="white"/>
<path d="M67.8363 99.352C70.0649 98.0657 71.053 95.6058 70.0433 93.8576C69.0336 92.1094 66.4084 91.7349 64.1798 93.0212C61.9512 94.3075 60.9631 96.7674 61.9728 98.5156C62.9825 100.264 65.6077 100.638 67.8363 99.352Z" fill="white"/>
<path d="M87.7956 77.671C90.3983 76.1688 91.5521 73.2958 90.3728 71.254C89.1935 69.2121 86.1276 68.7746 83.5249 70.2768C80.9223 71.779 79.7684 74.652 80.9477 76.6938C82.1271 78.7357 85.193 79.1732 87.7956 77.671Z" fill="white"/>
</g>
<defs>
<linearGradient id="paint0_linear_959_1575" x1="26.5135" y1="149.331" x2="123.44" y2="-18.6582" gradientUnits="userSpaceOnUse">
<stop stop-color="#521735"/>
<stop offset="0.25" stop-color="#732648"/>
<stop offset="0.65" stop-color="#FF703C"/>
<stop offset="1" stop-color="#FFA42F"/>
</linearGradient>
<linearGradient id="paint1_linear_959_1575" x1="42.6363" y1="158.634" x2="139.563" y2="-9.35571" gradientUnits="userSpaceOnUse">
<stop stop-color="#521735"/>
<stop offset="0.25" stop-color="#732648"/>
<stop offset="0.65" stop-color="#FF703C"/>
<stop offset="1" stop-color="#FFA42F"/>
</linearGradient>
<linearGradient id="paint2_linear_959_1575" x1="114.431" y1="51.5303" x2="47.5435" y2="107.916" gradientUnits="userSpaceOnUse">
<stop stop-color="#521735"/>
<stop offset="0.25" stop-color="#732648"/>
<stop offset="0.65" stop-color="#FF703C"/>
<stop offset="1" stop-color="#FFA42F"/>
</linearGradient>
<clipPath id="clip0_959_1575">
<rect width="183" height="207" fill="white"/>
</clipPath>
</defs>
</svg>
