<?xml version="1.0" encoding="utf-8"?>
<!-- Generator: Adobe Illustrator 25.4.1, SVG Export Plug-In . SVG Version: 6.00 Build 0)  -->
<svg version="1.1" id="Layer_1" xmlns="http://www.w3.org/2000/svg" xmlns:xlink="http://www.w3.org/1999/xlink" x="0px" y="0px"
	 viewBox="0 0 1440 616.7" style="enable-background:new 0 0 1440 616.7;" xml:space="preserve">
<style type="text/css">
	.st0{fill:url(#SVGID_1_);}
	.st1{fill:url(#SVGID_00000103266145375669684050000013004822893323136418_);}
	.st2{opacity:0.32;fill:#F5C878;enable-background:new    ;}
	.st3{opacity:0.16;fill:#F5C878;enable-background:new    ;}
	.st4{fill:#451400;}
</style>
<linearGradient id="SVGID_1_" gradientUnits="userSpaceOnUse" x1="720" y1="1339.2412" x2="720" y2="1768.386" gradientTransform="matrix(1 0 0 -1 0 2158)">
	<stop  offset="0" style="stop-color:#BA4B00"/>
	<stop  offset="0.998" style="stop-color:#631D00"/>
</linearGradient>
<path class="st0" d="M0,395.6c0,0,185.7-24.2,227.8-15.2c42.1,9,131.6,33.2,131.6,33.2s25.8,7.3,51.6,15.7c2.9,1,6-1.2,5.9-4.2
	c0-9.6,0-18.8,0.2-23.6c0.1-2,0.1-5.1,0.2-9c-6-6.3-20.6-22.3-23.6-31.1c-3.7-11-9.8-53.8-10.2-63.4c-0.5-9.5,7.9-15.4,8.8,0
	c0.9,15.4,9.3,47.2,12.5,57.2c2,6,8.1,12.5,12.6,16.7c0.1-21.4,0.1-48-0.3-61.7c-0.6-22.4,0-45.4,14.2-45.1
	c8.6,0.2,8.9,23.2,7.7,47.5c1.9-1.6,6.2-4,10.6-7.1c0-12.9,0.4-57.7,5.5-61.6c5.2-4,2.6,43.6,1.8,55.6c0.5-0.5,0.9-0.9,1.3-1.4
	c6.2-6.9,9.4-34.1,15.4-34.5c6-0.5,4,14.8,1.6,25.2c-2.1,9.4-11.2,30.5-36.7,36.4c-0.7,11.3-1.6,22.8-2,32.8
	c-1.1,27.8-0.5,59.4-0.2,73.2c0.1,4.4,2.8,8.3,6.9,10c5.7,2.4,13.4,5.8,15.8,7.6c16.5,11.7,45.8,23.8,45.8,23.8s0.3,10,52.8,19.7
	c52.5,9.7,90.2,21.8,90.2,21.8s135.8,0,158.7,0s125.6-13.3,129.4-13.3c3.7,0,102.8-22.4,130-28.1c13.2-2.8,45.8-17.4,79.9-32.5
	c2.5-1.1,4.2-3.6,4.2-6.3c0-12.3,0.1-31,0.1-51.5c0-4.6-4.2-8-8.8-7.4c-12.4,1.7-28.5-1.8-29.9-14.5c-0.4-4.3-0.3-20,0.4-38.4
	c0,0-19.9-6.3-19.5-34c0.5-27.7,4.2-28.6,7.4-27.2c3.2,1.4-2.4,26.8,2.3,33.6c0.4,0.6,0.9,1.2,1.3,1.8c3.2,3.8,9.4,1.7,9.7-3.1
	c1.3-22.4,3.1-42.2,5.2-44c4.6-4.1,7.9,2.7,7,18.6c-0.9,15.9-1.9,86.2,3.7,90.7c2.9,2.4,7.4,0.3,7.4-3.4c0.1-15,0.7-41.1,3.7-40.9
	c3.1,0.2,2.5,26.9,2,41.6c-0.1,2.4,2.1,4.3,4.6,3.9l0.1,0c1.9-0.3,3.3-1.9,3.3-3.8c0-33.8,0-66.8-0.2-79.5
	c-0.5-29.9,4.6-69,14.9-68.5c10.2,0.5,4.6,56.7,3.2,110.7c-0.1,4.6-0.2,9.3-0.4,14.1c-0.1,3.4,2.2,6.5,5.6,7.3
	c1.4,0.3,2.8,0.6,4.2,0.8c0.6-16.7,0.8-156.7,5.4-156.4c4.6,0.3,3.9,138.5,3,156c1.8-0.6,3.4-1.7,4.4-3.5c5.6-9.5-1.9-113,7.4-113
	c9.3,0,7,113.9,3.2,121.6c-3,6.2-15.6,6-26.5,5.4c-4-0.2-7.4,2.8-7.5,6.8c-0.6,23.4-1.2,45.6-1.7,60.8c-0.2,6.2,6.4,10.5,12.2,8
	c24.8-10.7,47.5-19.7,60.5-22.3c2.7-0.6,5.9-1.2,9.3-1.8c-5.9-4.1-18.4-12.8-19.1-14.2c-0.9-1.8,8.4,2.7,11.6,3.6
	c3.2,0.9,15.8,7.3,15.8,5.9s-8.8-9.1-10.2-10.4c-1.4-1.4-12.5-11.3-12.5-13.2c0-1.8,9.8,3.6,18.1,10c8.4,6.4,10.2,5.4,10.2,5.4
	l2.3-4.4c0,0-5.6-15.6-7.4-18.7c-1.9-3.2-8.4-18.1-8.4-18.1l16.3,19.1c0,0,10.2,19.5,13.3,17.7c3.1-1.8-0.3-22.2,0.1-23.6
	c0.5-1.4-0.5-19.5,0-31.3c0.5-11.8,3.7-24,3.7-24s6,22.2,3.6,38.5c-2.5,16.2,2.5,33.2,2.5,33.2s6-18.1,8.4-26.8
	c2.3-8.6,18.1-26.8,18.1-26.8s-5.1,24-9.3,33.6c-4.2,9.5-7.9,19.5-7.9,19.5s17.2-19.5,19.5-24c2.3-4.5,18.1-10,18.1-10l-8.4,7.7
	c0,0-4.6,6.8-7.4,12.3c-2.8,5.4-13.9,19.1-13.9,19.1l3.3-2.7c0,0,15.8-7.3,18.6-11.8c2.8-4.5,15.3-4.1,15.3-4.1l-5.1,3.6
	c0,0-7.9,10.4-13,15.4c-2.8,2.7-7.6,6-11.5,8.4c33.3-5.6,63.5-10.4,63.5-10.4l64.3,13.3l-0.4,230.1L0,634.1V395.6z"/>
<linearGradient id="SVGID_00000072999659834545553150000007686891130496994233_" gradientUnits="userSpaceOnUse" x1="943.4156" y1="1473.8253" x2="943.4156" y2="1619.8933" gradientTransform="matrix(1 0 0 -1 0 2158)">
	<stop  offset="0" style="stop-color:#BA4B00"/>
	<stop  offset="0.998" style="stop-color:#631D00"/>
</linearGradient>
<path style="fill:url(#SVGID_00000072999659834545553150000007686891130496994233_);" d="M446.8,560.7c0,0,102.7-19.4,204.6-33.9
	c102-14.5,139.7-0.4,204.6-14.5c64.9-14.2,106.9-52.1,180.8-54.5c73.9-2.4,79.7,52,175.8,18.7S1440,431,1440,431l-0.4,192.8
	l-992.8-6.4V560.7z"/>
<path class="st2" d="M545.8,255.9h495.3c0,0-67.6-6.4-95.7-10c-28.1-3.6-67.4-7.8-93.6-8.9c-26.2-1.1-34.6,12-66.4,0
	c-31.8-12-61.8-8.9-85.2,0C676.9,245.9,557.1,246.8,545.8,255.9z"/>
<path class="st3" d="M0,141.4c0,0,25.4,1.4,82.8,1.4c57.4,0,52.4-3.6,126.7,0c74.3,3.6,93,11.9,155.4,15
	c62.4,3.1,104.1-14.6,208.7-16.7c104.6-2,109.5,5.7,185.7,8.5c76.1,2.8,66.1,4,148.5,0.4c82.4-3.6,116.1-12.1,149.7,0
	c33.7,12.1,120.4,21.8,182.5,24.2s174.4,0,174.4,0v68.1c0,0-232.1-24.2-303.2-26.8c-71.1-2.6-127.4,8.5-214.1-4.3
	c-86.6-12.8-124.1-5.3-205.2-11.5c-81.1-6.2-133.5,3.5-232.1,5.9s-122.3,6-192.2-4.9C197.6,190.1,0,202.7,0,202.7V141.4z"/>
<path class="st3" d="M43,78.8c0,0,112.3,12.7,224.6,12.7c112.3,0,183.4-9.1,292-12.7c108.6-3.6,404.3-41.8,466.1-32.7
	c0,0-112.9-18.2-197.8-16.3c-84.8,1.8-164.7,5.4-275.5,9.1c-110.8,3.6-302.3-9.2-302.3-9.2L28,22.5L43,78.8z"/>
<path class="st4" d="M175.8,541.7c-0.9-30.5-2.8-86.4-5.4-134.9c-14.1-3.7-54.6-15.9-64.7-38.3c-12.3-27.2-17.1-106.4-16-122.5
	c1.1-16.1-2.7-148.6-1.4-162C89.8,70.7,85.1,0.4,96.8,1c11.7,0.6,15.1,48.4,17.9,98.7c2.8,50.2,7.1,141.6,9.7,171.9
	c2.6,30.3,2.9,69,10.8,78.6c1.4,1.8,3.7,3.4,6.4,5c-0.1-29.3,0.2-102.5,6.5-102.6c6.8-0.1,6.5,84.6,6.3,108.3
	c4.8,1.7,9.6,3.1,13.4,4.2c-0.6-8.1-1.2-15.5-1.9-22.1c-6.5-64.4,6.1-119.6,1.3-165.3c-4.9-45.7-5.4-128,14.5-128.2
	c28.2-0.2,19.8,104.3,20.8,127c0.9,19.5,5,113.7,8,155c6.7-14.4,16.2-37.5,20.3-60.8c6.8-37.8-1.6-134.7,13.1-140.1
	c11.6-4.3,14.2,39.2,15.1,78.5c5.5-4.9,15.9-16.4,18-34.9c2.8-25.4-8.5-92-0.7-95.1c7.8-3.1,15.8,10.2,17.2,38.3s4.7,71.1-2.3,94.2
	c-5.2,16.8-22.9,33.1-32.1,40.7c-2.6,44.8-18.3,115.3-44.1,139.3c1.1,19.1,2.3,40.9,4.1,61.1c9.6-11.3,31.2-38.1,41.5-61.4
	c13.4-30.4,23.5-80.5,39.6-77.4c16.1,3.1-19.3,98.6-39.2,129.4c-12.7,19.6-28,36.6-37.4,46.4c3.3,21.8,4,41.3,4,54.8
	c0,4,3.5,7,7.4,6.5c0,0,0.1,0,0.1,0c100.6-12.1,142-5.4,259.7,12.1c23.7,3.5,45.2,7.1,65.2,10.4c5.3-0.5,11.1-0.6,15.3,0.6
	c9.5,2.7,34.2,0,34.2,0l-12.7-6.8c0,0-17.5-11.4-25.2-15c-7.7-3.6-16.7-9.1-16.7-9.1s17.2,3.2,31.2,9.5c14,6.4,33.5,16.3,33.5,16.3
	l-12.4-11.4c0,0-24.3-21.3-28.8-25.4c-4.5-4.1-11.8-13.2-11.8-13.2s33.5,18.6,42.8,26.3c9.3,7.7,22.7,23.6,22.7,23.6
	s-6.2-18.6-8-22.7c-1.7-4.1-10.5-30.4-13.6-35.9c-3.1-5.4-7.5-21.3-7.5-21.3s20.1,26.8,34.7,64.5c2,1.4-4.2-67.7-5.7-93.5
	c10.3,28.2,11.4,109,11.4,109l5.6-7.9c0,0,2.6-18.5,3.3-27.6c0.7-9.1,3.7-30.4,3.7-30.4s0.6,19.1,0,21.3c-0.6,2.3,1.9,18.2,0,30.4
	c-1.9,12.3,2.4,19.5,2.4,19.5l2.1-11.5c0,0,2.9-14.4,3.8-16.7c0.9-2.3,0.5-10,2.5-20.4c2.1-10.4,5-20.4,5-20.4v9.5
	c0,0-0.7,25.9-2.1,36.8s-2.9,28.2-2.9,28.2l2.9-5c0,0,11.3-17.3,14.4-24.1c3.1-6.8,12.7-23.2,12.7-23.2s-5.4,21.3-9,30.4
	c-2.7,6.9-10.8,19.9-15.2,25.7c5.7-2.2,14.5-5.6,22.6-8.7c13.6-5.1,19-5.8,19-5.8l-43.3,20.5c34.2,3.5,69.1,4.9,110.5,2.8
	c44.2-2.3,106.4-10.3,170.9-19.3c0-1.1,0.1-2.2,0.1-3.5c0.3-12-5-23.5-14.4-31c-2.8-2.2-5.4-4.6-7.3-7.1
	c-7.7-10-14.5-30.4-15.8-37.2c-1.4-6.8,3.2-10.9,10-5.9c6.8,5,4.5,20.4,12.7,30.4c4.2,5.2,10,7.6,14.6,8.7
	c-0.3-16.5,0-51.7,0.2-81.6c0.1-11.6-5.8-22.5-15.7-28.6c-4.6-2.8-8.9-6.1-11.4-9.5c-6.9-9.4-9.1-25.1-7.4-40.2
	c-3.4-1-9.3-3.3-16.3-7.8c-10.9-7.1-12.1-17.1-12.7-26.2c-0.6-9.1,0.3-14.5,0-20.3c-0.3-5.8,8.7-8.8,8.7,0c0,0-0.6,10.6,1.2,18.2
	c1.8,7.6,2.1,13,9.4,18.5c4.1,3.1,8.2,4.2,11.1,4.6c1-17.6-1.2-43.4-0.9-51.6c0.5-9.5,2.5-11.6,9.7-9.8c7.2,1.8,4.4,33.8,5.3,52.7
	c0.9,18.9-2.3,26.5,3.7,39c3.4,7,10.1,11.7,15.3,14.4c0.7-28.4,4.6-55.7,1.9-72.4c-3-18.8-2.4-44.8,0-56.3
	c2.4-11.5,0.6-26,13.9-27.8c13.3-1.8,15.1,12.7,15.2,23.6c0.1,10.9-0.1,32.1,0,48.4c0.1,16.3,1.7,60.8,0.5,73.9
	c-1,10.4-0.4,52-0.1,79.3c0.1,5.4,5.8,9,10.6,6.6c4.1-2,7.9-5,10-9.4c6.3-13.2,10.4-21.3,12.2-30.9c1.8-9.5,3.6-40.2,2.7-50.3
	c-0.9-10.1-1.8-34.6,10-35.5c11.8-0.9,8.1,7.3,11.3,24.1c3.2,16.8,0.9,34.1,0,54c-0.9,20-1.4,32.7-8.6,42.7
	c-7.2,10-15.4,23.3-36.2,30.4l-0.2,0.1c-7,2.4-11.7,9-11.7,16.5v52.3c59.5-8.5,118.9-17.3,166-22.8c-4.8-1.4-10.9-3.2-16.4-5
	c-11.9-3.8-20.3-11.9-20.3-11.9l46.1,12.4c0,0-15.4-11-27.6-16.2c-12.3-5.2-16.6-17.9-16.6-17.9s24.1,15.4,29.4,17.2
	c5.3,1.9,17.9,8,17.9,8s-22.6-21.6-29.5-26.4c-6.8-4.7-16-19.1-16-19.1s13.5,6.5,18.5,11.5c5,5,22.5,18,22.5,18l11.1,8.3
	c0,0-13.3-18.5-16.8-25.7c-3.5-7.2-10-25-10-25l-1.4-9.3c0,0,8.8,8.6,12.3,15c3.5,6.5,16.1,28.1,16.1,28.1l5.9,10.6
	c0,0-4-21.5-4.4-26.7c-0.4-5.2-3.7-29.7-3.7-29.7l1.4-20.9c0,0,8.8,29.1,9.6,40.5c0.8,11.5,6,34.7,6,34.7s6.2-34.1,7-52.3
	c0.7-18.2,10.6-62.4,10.6-62.4s6.3,21.1,2.1,37.1c-4.2,16-12.6,85.5-12.6,85.5s11.6-24.8,17.5-44.4c5.9-19.6,15.5-41.2,15.5-41.2
	s-4.1,19.1-5.9,32.5c-1.8,13.4-19.2,57.3-19.2,57.3s15.4-16.3,21.4-22.5c6-6.3,27-27.7,31.9-31.3c4.9-3.7,12.7-9.8,12.7-9.8
	s-10.1,16.2-14.3,22.3c-4.2,6.1-18.5,23.5-18.5,23.5l-16.5,16.7c0,0,12.2-4.4,19.9-8.7c7.7-4.3,19-9.7,19-9.7l25.6-6.8
	c0,0-14.9,9.1-18.8,12.4c-3.9,3.3-27.2,14.9-27.2,14.9l-24,11c96.5-2,229.5,42,229.5,42v45.6l-705.9,5.1H0l0.9-42.5
	c0,0,72.1-15.7,158.2-29.6C169,560.4,176.1,551.7,175.8,541.7z"/>
<path class="st2" d="M940.4,107.2c0,0,143.2,0,177.8,0c34.6,0,173.1,0,173.1,0s-60.8-4.7-87-13.2c-26.2-8.6-38.4-15.8-55.2-14.9
	c-16.8,0.9-10.3,6.4-42.1,4.6s-40.2-12-65.5-4.6S965.7,102.6,940.4,107.2z"/>
<path class="st2" d="M743.9,91.5h186.2c0,0-26.2-10.9-44.9-14.5c-18.7-3.6-24.3,1.8-45.9,0C817.8,75.1,758.8,82.4,743.9,91.5z"/>
</svg>
