<?xml version="1.0" encoding="utf-8"?>
<!-- Generator: Adobe Illustrator 25.4.1, SVG Export Plug-In . SVG Version: 6.00 Build 0)  -->
<svg version="1.1" id="Layer_1" xmlns="http://www.w3.org/2000/svg" xmlns:xlink="http://www.w3.org/1999/xlink" x="0px" y="0px"
	 viewBox="0 0 900 900" style="enable-background:new 0 0 900 900;" xml:space="preserve">
<style type="text/css">
	.st0{fill:#FFC359;}
	.st1{fill:none;}
	.st2{opacity:0.57;fill:url(#SVGID_1_);enable-background:new    ;}
</style>
<path class="st0" d="M668.4,486.5c20.1-120.6-61.3-234.8-181.9-254.9c-120.6-20.1-234.7,61.3-254.8,182
	c-20.1,120.6,61.3,234.8,181.9,254.9C534.1,688.6,648.2,607.1,668.4,486.5z"/>
<rect x="325.5" y="346.1" class="st1" width="383" height="383"/>
<radialGradient id="SVGID_1_" cx="-508.6405" cy="1108.2538" r="0.8721" gradientTransform="matrix(516.003 0 0 -516.003 262910.0312 572312.25)" gradientUnits="userSpaceOnUse">
	<stop  offset="0" style="stop-color:#FFFFFF"/>
	<stop  offset="1" style="stop-color:#FFFFFF;stop-opacity:0"/>
</radialGradient>
<path class="st2" d="M450,900c248.5,0,450-201.5,450-450S698.5,0,450,0S0,201.5,0,450S201.5,900,450,900z"/>
<image style="overflow:visible;" width="1080" height="1080" xlink:href="../Logo/logo-ifelse.png"  transform="matrix(0.4048 0 0 0.4048 231.4286 231.4286)">
</image>
</svg>
