<?xml version="1.0" encoding="utf-8"?>
<!-- Generator: Adobe Illustrator 25.4.1, SVG Export Plug-In . SVG Version: 6.00 Build 0)  -->
<svg version="1.1" id="Layer_1" xmlns="http://www.w3.org/2000/svg" xmlns:xlink="http://www.w3.org/1999/xlink" x="0px" y="0px"
	 viewBox="0 0 2560 1244.5" style="enable-background:new 0 0 2560 1244.5;" xml:space="preserve">
<style type="text/css">
	.st0{fill:url(#SVGID_1_);}
	.st1{fill:url(#SVGID_00000098204720679024336130000014769785191013110165_);}
	.st2{opacity:0.32;fill:#F5C878;enable-background:new    ;}
	.st3{opacity:0.16;fill:#F5C878;enable-background:new    ;}
</style>
<g>
	
		<linearGradient id="SVGID_1_" gradientUnits="userSpaceOnUse" x1="1280.0042" y1="117.2194" x2="1280.0042" y2="1012.3359" gradientTransform="matrix(1 0 0 -1 0 1749.0583)">
		<stop  offset="0" style="stop-color:#BA4B00"/>
		<stop  offset="0.998" style="stop-color:#631D00"/>
	</linearGradient>
	<path class="st0" d="M0,676.2c0,0,315.5-37.2,389.9-21.3c74.4,15.9,232.4,58.7,232.4,58.7s45.6,12.8,91.1,27.8
		c5.2,1.7,10.5-2.1,10.5-7.4c0-17,0-33.3,0.4-41.8c0.1-3.6,0.3-9,0.4-15.9c-10.6-11.2-36.5-39.4-41.7-54.9
		c-6.6-19.5-17.2-95.1-18-112c-0.8-16.8,13.9-27.3,15.6,0c1.6,27.3,16.4,83.4,22.2,101c3.4,10.6,14.2,22,22.3,29.4
		c0.3-37.8,0.2-84.7-0.5-109.1c-1.1-39.5,0-80.2,25.2-79.6c15.2,0.3,15.7,41.1,13.7,83.9c3.4-2.9,10.9-7.1,18.8-12.6
		c0-22.8,0.7-102,9.7-108.9c9.2-7,4.5,77,3.2,98.3c0.8-0.8,1.6-1.6,2.4-2.5c11-12.2,16.5-60.2,27.2-61c10.7-0.8,7,26.1,2.9,44.4
		c-3.7,16.5-19.9,54-64.9,64.4c-1.3,20-2.8,40.2-3.4,58c-1.9,49.1-1,104.9-0.4,129.4c0.2,7.7,4.9,14.6,12.1,17.7
		c10.1,4.3,23.6,10.3,28,13.4c29.2,20.7,81,42,81,42s0.5,17.6,93.2,34.7c92.8,17.1,159.3,38.5,159.3,38.5s240,0,280.3,0
		c40.4,0,222-23.5,228.5-23.5c6.6,0,181.6-39.5,229.7-49.7c23.4-4.9,80.9-30.7,141.1-57.4c4.5-2,7.4-6.3,7.4-11.2
		c0.1-21.7,0.2-54.8,0.2-90.9c0-8.1-7.4-14.2-15.6-13.1c-22,3-50.4-3.2-52.8-25.7c-0.8-7.5-0.5-35.3,0.7-67.8c0,0-35.2-11.1-34.4-60
		c0.8-48.9,7.4-50.5,13.1-48.1c5.7,2.4-4.2,47.3,4,59.3c0.7,1.1,1.5,2.1,2.4,3.1c5.6,6.7,16.7,3.1,17.2-5.5
		c2.3-39.7,5.6-74.5,9.2-77.7c8.2-7.2,13.9,4.8,12.3,32.9c-1.6,28.1-3.3,152.3,6.6,160.3c5.2,4.2,13.1,0.6,13.1-6
		c0.1-26.5,1.2-72.7,6.6-72.3c5.5,0.4,4.5,47.5,3.5,73.5c-0.2,4.3,3.7,7.6,8.1,6.9l0.1,0c3.4-0.5,5.8-3.4,5.8-6.7
		c0.1-59.7,0-118-0.3-140.4c-0.8-52.9,8.2-121.8,26.3-121c18,0.8,8.2,100.2,5.7,195.6c-0.2,8.1-0.4,16.5-0.7,24.9
		c-0.2,6,3.9,11.4,9.9,12.9c2.4,0.6,4.9,1.1,7.4,1.4c1.1-29.5,1.4-276.8,9.6-276.4c8.1,0.5,7,244.7,5.3,275.5c3.2-1.1,6-3.1,7.8-6.2
		c9.8-16.8-3.3-199.6,13.1-199.6c16.4,0,12.3,201.2,5.7,214.8c-5.3,11-27.6,10.6-46.8,9.6c-7.1-0.4-13,5-13.2,11.9
		c-1.1,41.3-2.2,80.6-2.9,107.4c-0.3,11,11.2,18.6,21.5,14.1c43.9-18.9,83.8-34.7,106.8-39.4c4.9-1,10.4-2.1,16.5-3.2
		c-10.5-7.3-32.5-22.7-33.7-25.1c-1.7-3.2,14.8,4.8,20.5,6.4c5.7,1.6,27.9,12.8,27.9,10.4c0-2.4-15.6-16-18.1-18.4
		c-2.5-2.4-22.2-20-22.2-23.2c0-3.2,17.2,6.4,32,17.6c14.8,11.2,18.1,9.6,18.1,9.6l4.1-7.8c0,0-9.8-27.5-13.1-33.1
		c-3.3-5.6-14.8-32.1-14.8-32.1l28.7,33.7c0,0,18,34.5,23.6,31.3c5.5-3.2-0.6-39.3,0.2-41.7c0.8-2.4-0.8-34.5,0-55.3
		c0.8-20.8,6.6-42.5,6.6-42.5s10.7,39.3,6.3,68c-4.4,28.7,4.4,58.7,4.4,58.7s10.7-32.1,14.8-47.3c4.1-15.2,32-47.3,32-47.3
		s-9,42.5-16.4,59.3c-7.4,16.8-13.9,34.5-13.9,34.5s30.4-34.5,34.5-42.5c4.1-8,32-17.6,32-17.6l-14.8,13.6c0,0-8.2,12-13.1,21.6
		c-4.9,9.6-24.6,33.7-24.6,33.7l5.8-4.8c0,0,27.9-12.8,32.8-20.8c4.9-8,27.1-7.2,27.1-7.2l-9,6.4c0,0-13.9,18.4-23,27.3
		c-4.9,4.8-13.5,10.5-20.2,14.8c58.8-9.8,112.1-18.4,112.1-18.4l142.2,21.8v570H0V676.2z"/>
	
		<linearGradient id="SVGID_00000055706793790516183580000011557553848027007396_" gradientUnits="userSpaceOnUse" x1="1627.8479" y1="498.108" x2="1627.8479" y2="791.4869" gradientTransform="matrix(1 0 0 -1 0 1749.0583)">
		<stop  offset="0" style="stop-color:#BA4B00"/>
		<stop  offset="0.998" style="stop-color:#631D00"/>
	</linearGradient>
	<path style="fill:url(#SVGID_00000055706793790516183580000011557553848027007396_);" d="M741.7,973.5c0,0,181.4-34.2,361.6-59.9
		c180.2-25.7,246.8-0.6,361.4-25.7c114.7-25,188.9-92,319.5-96.3c130.6-4.3,140.9,91.9,310.6,33.1c169.7-58.8,419.3-82.3,419.3-82.3
		v387.2H752.3L741.7,973.5z"/>
	<path class="st2" d="M916.6,434.9h875.1c0,0-119.4-11.2-169-17.7c-49.6-6.4-119.1-13.9-165.4-15.8c-46.3-1.9-61.2,21.1-117.4,0
		c-56.2-21.1-109.1-15.8-150.5,0C1148.1,417.2,936.4,418.8,916.6,434.9z"/>
	<path class="st3" d="M0,231.8c0,0-3,3.4,102.9,3.4c105.9,0,96.7-6.4,233.7,0c137,6.4,171.6,21.1,286.7,26.6
		c115.1,5.5,192.1-25.9,385.1-29.4c192.9-3.6,202.1,10.1,342.6,15.1c140.5,4.9,122,7.1,274,0.6s214.2-21.4,276.3,0
		c62.2,21.4,222.2,38.5,336.8,42.8c114.6,4.3,321.8,0,321.8,0v120.3c0,0-428.3-42.7-559.6-47.3c-131.3-4.6-235.2,15.1-395-7.6
		c-159.9-22.7-229-9.4-378.7-20.3c-149.7-10.9-246.4,6.2-428.3,10.5s-225.7,10.7-354.6-8.6C314.8,318.7,0,333.1,0,333.1V231.8z"/>
	<path class="st3" d="M0,130.6c0,0,107.4,13.8,305.8,13.8c198.4,0,324.1-16,515.9-22.5c191.8-6.4,714.3-73.8,823.5-57.8
		c0,0-199.5-32.1-349.5-28.9c-149.9,3.2-291,9.6-486.7,16c-195.7,6.4-534.1-16.3-534.1-16.3L0,26.2V130.6z"/>
	<path class="st2" d="M1613.7,172.1c0,0,253,0,314.2,0c61.2,0,305.9,0,305.9,0s-107.5-8.2-153.8-23.4c-46.3-15.1-67.8-28-97.6-26.4
		c-29.8,1.6-18.2,11.3-74.4,8.1c-56.2-3.2-71.1-21.1-115.8-8.2C1747.6,135.2,1658.4,164.1,1613.7,172.1z"/>
	<path class="st2" d="M1266.5,144.4h329.1c0,0-46.3-19.3-79.4-25.7c-33.1-6.4-43,3.2-81,0C1397.1,115.5,1292.9,128.4,1266.5,144.4z"
		/>
</g>
</svg>
