<svg width="897" height="629" viewBox="0 0 897 629" fill="none" xmlns="http://www.w3.org/2000/svg">
<path d="M93.5651 547.232C54.7355 545.673 21.3826 502.538 8.3294 452.071C-4.72382 401.604 -0.772933 345.632 8.79815 293.706C17.0921 248.706 29.6909 204.606 49.8997 167.479C70.1085 130.347 98.4678 100.515 131.161 89.461C213.249 61.7044 295.113 154.493 379.047 140.889C417.585 134.643 452.115 106.542 486.438 81.5831C544.764 39.1662 607.605 3.71348 673.498 0.245703C739.386 -3.22208 809.09 29.9682 848.422 102.959C889.447 179.102 890.906 281.361 890.696 376.225C890.61 414.06 890.414 452.794 880.976 488.318C871.539 523.843 850.843 556.11 823.827 562.706C692.004 562.706 558.119 566.494 426.3 566.494L93.5651 547.232Z" fill="white"/>
<path opacity="0.5" d="M93.5651 547.232C54.7355 545.673 21.3826 502.538 8.3294 452.071C-4.72382 401.604 -0.772933 345.632 8.79815 293.706C17.0921 248.706 29.6909 204.606 49.8997 167.479C70.1085 130.347 98.4678 100.515 131.161 89.461C213.249 61.7044 295.113 154.493 379.047 140.889C417.585 134.643 452.115 106.542 486.438 81.5831C544.764 39.1662 607.605 3.71348 673.498 0.245703C739.386 -3.22208 809.09 29.9682 848.422 102.959C889.447 179.102 890.906 281.361 890.696 376.225C890.61 414.06 890.414 452.794 880.976 488.318C871.539 523.843 850.843 556.11 823.827 562.706C692.004 562.706 558.119 566.494 426.3 566.494L93.5651 547.232Z" fill="url(#paint0_linear_1045_3476)"/>
<path d="M123.445 545.153C96.0476 545.205 68.6545 547.334 41.5627 551.519C37.9897 552.069 34.3402 552.686 31.1738 554.485C28.0073 556.283 25.3718 559.521 25.214 563.252C25.0418 567.423 28.0217 571.183 31.6186 573.086C35.2155 574.985 39.3529 575.406 43.3756 575.789C66.9565 578.042 90.5326 580.295 114.114 582.552C139.737 585.001 164.647 592.171 188.224 602.823C207.194 611.395 228.919 614.571 249.816 616.972C388.298 632.885 528.549 632.33 666.911 615.317C681.026 613.58 695.845 611.289 709.07 606.124C733.306 596.662 759.03 592.142 784.926 591.248C822.172 589.966 859.342 579.964 893.451 564.333C895.512 563.386 896.981 561.315 896.995 558.986C897.014 554.781 892.843 553.715 889.447 553.294C851.928 548.654 814.065 547.033 776.307 548.444C750.97 549.391 726.079 544.607 700.733 543.861L123.445 545.153Z" fill="url(#paint1_linear_1045_3476)"/>
<path d="M25.2187 559.08C25.0417 562.357 28.0264 565.303 31.6281 566.8C35.225 568.288 39.3625 568.618 43.3851 568.919C64.8997 570.531 86.4191 572.148 107.934 573.76C109.995 573.918 112.057 574.071 114.118 574.224C139.742 576.151 164.652 581.776 188.233 590.137C194.145 592.232 200.325 593.916 206.667 595.303C220.668 598.36 235.448 599.948 249.831 601.244C388.307 613.737 528.564 613.302 666.921 599.943C681.036 598.58 695.85 596.781 709.08 592.73C733.316 585.302 759.04 581.753 784.936 581.054C802.265 580.59 819.58 578.634 836.579 575.439C850.498 572.837 864.197 569.398 877.523 565.26C882.899 563.596 888.218 561.807 893.46 559.927C895.517 559.19 896.99 557.559 897 555.732C897.019 552.432 892.853 551.595 889.452 551.265C851.938 547.625 814.07 546.352 776.312 547.462C750.97 548.208 726.084 544.454 700.738 543.865L123.455 544.874C96.0571 544.913 68.664 546.582 41.5723 549.868C37.9993 550.303 34.3449 550.782 31.1833 552.197C28.0073 553.613 25.3718 556.158 25.2187 559.08Z" fill="url(#paint2_linear_1045_3476)"/>
<g opacity="0.37">
<path d="M107.929 573.759C109.99 573.916 112.052 574.069 114.114 574.222C139.737 576.15 164.648 581.775 188.228 590.136C194.14 592.231 200.32 593.915 206.663 595.302L285.106 597.024C319.248 597.77 353.893 598.526 388.714 598.526C434.025 598.526 479.627 597.244 524.799 592.977C552.766 590.337 581.04 586.51 608.385 582.803C644.392 577.925 681.624 572.878 718.302 570.554C762.68 567.736 801.533 569.286 836.579 575.442C850.498 572.84 864.197 569.401 877.523 565.264C858.242 559.62 837.914 555.568 816.131 553.014C786.084 549.489 753.788 548.896 717.412 551.211C680.233 553.564 642.747 558.649 606.496 563.556C579.289 567.244 551.159 571.051 523.484 573.663C444.399 581.129 363.583 579.36 285.422 577.647L107.929 573.759Z" fill="white"/>
</g>
<path opacity="0.3" d="M378.87 557.984C378.87 559.51 346.708 560.749 307.037 560.749C267.366 560.749 235.204 559.51 235.204 557.984C235.204 556.459 267.366 555.22 307.037 555.22C346.708 555.22 378.87 556.459 378.87 557.984Z" fill="black"/>
<path opacity="0.3" d="M289.904 553.568C386.034 553.568 463.962 552.331 463.962 550.804C463.962 549.277 386.034 548.039 289.904 548.039C193.774 548.039 115.845 549.277 115.845 550.804C115.845 552.331 193.774 553.568 289.904 553.568Z" fill="black"/>
<path opacity="0.3" d="M855.181 551.353C855.181 552.879 785.663 554.118 699.91 554.118C614.158 554.118 544.64 552.879 544.64 551.353C544.64 549.828 614.158 548.589 699.91 548.589C785.663 548.589 855.181 549.828 855.181 551.353Z" fill="black"/>
<path opacity="0.3" d="M498.224 559.645C498.224 561.17 476.824 562.409 450.426 562.409C424.028 562.409 402.628 561.17 402.628 559.645C402.628 558.119 424.028 556.88 450.426 556.88C476.824 556.88 498.224 558.119 498.224 559.645Z" fill="black"/>
<path opacity="0.3" d="M516.735 556.329C543.133 556.329 564.533 555.091 564.533 553.564C564.533 552.038 543.133 550.8 516.735 550.8C490.337 550.8 468.937 552.038 468.937 553.564C468.937 555.091 490.337 556.329 516.735 556.329Z" fill="black"/>
<path opacity="0.3" d="M668.968 559.645C668.968 561.17 639.777 562.409 603.764 562.409C567.752 562.409 538.561 561.17 538.561 559.645C538.561 558.119 567.752 556.88 603.764 556.88C639.772 556.88 668.968 558.119 668.968 559.645Z" fill="black"/>
<path d="M684.332 247.868C683.083 244.836 679.597 240.851 677.028 240.751C676.057 240.713 674.919 241.244 673.795 242.076C671.982 243.425 670.226 245.563 669.332 247.39C662.784 260.735 656.666 274.305 650.835 287.98C648.736 292.906 646.215 295.245 640.499 295.274C629.503 295.336 618.501 296.231 607.524 297.039C603.578 297.331 600.933 296.365 598.441 293.007C591.491 283.622 584.211 274.458 576.754 265.466C574.248 262.438 573.875 260.104 575.582 256.502C582.236 242.449 588.554 228.238 594.94 214.061C597.542 208.269 597.728 205.27 594.729 202.825C592.572 201.075 589.712 200.525 587.043 201.161C587.038 201.166 587.033 201.166 587.033 201.166C586.65 201.252 586.277 201.371 585.904 201.51L578.749 204.203C575.721 205.341 572.832 206.805 570.12 208.57C559.702 215.357 550.198 223.125 543.133 233.782C523.852 262.878 524.833 299.923 546.152 327.804C548.715 331.162 548.864 333.535 547.017 337.294C521.155 389.799 495.608 442.456 469.702 494.947C462.346 509.846 462.442 524.167 471.778 537.756C479.575 549.087 490.26 554.478 503.079 554.511C505.504 554.521 508.001 554.339 510.574 553.971C510.622 553.966 510.78 553.932 511.029 553.889C512.76 553.554 514.454 553.105 516.104 552.536C523.379 550.068 529.803 545.457 534.404 539.215C538.513 533.628 541.531 527.247 544.253 520.479C565.121 468.649 586.555 417.048 607.615 365.295C609.26 361.248 611.164 359.598 615.765 359.268C671.37 355.245 705.598 299.66 684.332 247.868ZM510.23 528.845C509.221 529.529 508.106 530.098 506.915 530.524C499.382 533.202 490.882 529.199 488.295 521.761C485.697 514.28 489.777 505.886 497.316 503.212C503.476 501.031 510.464 503.437 514.157 508.516C514.918 509.573 515.549 510.75 515.994 512.018C518.189 518.284 515.616 525.2 510.23 528.845Z" fill="url(#paint3_linear_1045_3476)"/>
<path opacity="0.2" d="M587.023 201.17C568.254 216.38 549.476 230.084 544.664 256.855C540.249 281.436 550.901 305.926 554.426 330.65C561.5 380.28 539.091 430.244 506.92 468.682C499.147 477.971 490.739 486.848 484.75 497.376C478.766 507.894 475.38 520.55 478.632 532.207C481.89 543.868 493.164 553.688 505.208 552.463C504.524 553.176 503.811 553.86 503.079 554.506C490.255 554.472 479.57 549.087 471.773 537.75C462.437 524.162 462.346 509.841 469.697 494.946C495.598 442.456 521.155 389.798 547.012 337.289C548.859 333.534 548.71 331.161 546.142 327.804C524.828 299.923 523.843 262.877 543.124 233.777C550.193 223.12 559.697 215.347 570.11 208.56C572.822 206.8 575.711 205.331 578.739 204.198L585.899 201.51C586.272 201.376 586.641 201.261 587.023 201.17Z" fill="white"/>
<path opacity="0.2" d="M615.756 359.263C611.154 359.593 609.251 361.248 607.605 365.29C586.545 417.044 565.112 468.644 544.243 520.474C541.526 527.242 538.508 533.623 534.394 539.21C529.793 545.452 523.369 550.063 516.094 552.531C512.224 545.476 510.254 537.129 510.23 528.845C515.616 525.205 518.189 518.284 515.994 512.018C515.554 510.745 514.922 509.569 514.157 508.516C519.854 493.373 530.668 480.238 541.77 468.199C555.11 453.74 569.541 439.673 577.959 421.884C585.794 405.325 587.841 386.738 591.175 368.719C594.514 350.706 599.656 332.152 612.135 318.731C621.395 308.767 633.874 302.54 645.559 295.566C657.245 288.597 668.877 280.116 674.569 267.757C679.242 257.636 676.942 250.571 673.794 242.081C674.918 241.249 676.057 240.718 677.028 240.756C679.596 240.856 683.083 244.841 684.332 247.873C705.598 299.66 671.369 355.245 615.756 359.263Z" fill="black"/>
<path d="M784.414 536.29C783.204 537.271 781.721 537.883 780.009 537.993L766.702 538.864L740.601 540.567L712.275 542.422L686.173 544.125L657.847 545.976L631.741 547.684L603.415 549.535L577.314 551.238L564.002 552.104L560.946 552.304C557.119 552.558 553.159 550.162 550.676 546.254C550.27 545.618 549.906 544.934 549.586 544.221L545.979 536.195C543.707 531.125 544.315 525.5 547.462 522.357L559.133 510.739L577.706 492.242L597.857 472.177L616.425 453.686L636.577 433.62L655.15 415.124L675.301 395.058L693.869 376.567L703.311 367.168C704.536 365.943 705.99 365.231 707.535 364.977C711.978 364.241 717.154 367.307 719.698 372.975L720.669 375.127L747.555 435.036L786.533 521.884C789.063 527.547 787.916 533.454 784.414 536.29Z" fill="url(#paint4_linear_1045_3476)"/>
<path d="M603.415 549.53L577.314 551.237L564.605 522.926L559.133 510.734L577.706 492.237L582.408 502.717L603.415 549.53Z" fill="url(#paint5_linear_1045_3476)"/>
<path d="M657.847 545.97L631.741 547.678L604.286 486.511L597.852 472.171L616.421 453.68L625.107 473.032L657.847 545.97Z" fill="url(#paint6_linear_1045_3476)"/>
<path d="M712.275 542.418L686.173 544.121L647.057 456.977L636.572 433.616L655.145 415.124L666.237 439.848L712.275 542.418Z" fill="url(#paint7_linear_1045_3476)"/>
<path d="M766.702 538.859L740.601 540.561L714.198 481.738L686.03 418.983L675.292 395.058L693.86 376.566L703.469 397.976L733.048 463.888L766.702 538.859Z" fill="url(#paint8_linear_1045_3476)"/>
<path d="M814.132 546.096L801.49 551.769C796.831 553.859 791.364 551.779 789.274 547.12L784.414 536.286L743.868 445.933L715.346 382.384L707.53 364.973L702.67 354.139C700.575 349.48 702.656 344.013 707.315 341.923L719.957 336.25C724.615 334.16 730.082 336.241 732.173 340.899L737.319 352.365L747.871 375.869L818.786 533.876C820.867 538.539 818.786 544.006 814.132 546.096Z" fill="url(#paint9_linear_1045_3476)"/>
<path opacity="0.2" d="M737.315 352.369C735.559 354.57 733.847 356.545 732.828 358.009C728.815 363.744 724.768 369.455 720.66 375.128C718.9 377.558 717.13 379.978 715.346 382.389C711.462 387.64 707.511 392.84 703.469 397.977C703.316 398.178 703.158 398.369 703.005 398.57C697.533 405.506 691.889 412.336 686.034 418.984C679.702 426.183 673.12 433.171 666.242 439.848C660.095 445.827 653.71 451.558 647.061 456.977C642.202 460.937 637.199 464.735 632.038 468.337C629.761 469.93 627.446 471.489 625.107 473.034C618.248 477.568 611.188 481.95 604.286 486.508C596.618 491.564 589.161 496.825 582.403 502.718C575.572 508.668 569.464 515.26 564.6 522.927C563.978 523.903 563.375 524.898 562.797 525.907C558.874 532.771 555.923 540.476 550.667 546.254C550.26 545.618 549.897 544.934 549.576 544.222L545.97 536.195C543.698 531.125 544.305 525.5 547.452 522.358L559.123 510.74L577.696 492.243L597.848 472.178L616.416 453.686L636.567 433.621L655.14 415.124L675.292 395.059L693.86 376.567L703.302 367.169C704.526 365.944 705.98 365.231 707.525 364.978L702.665 354.144C700.57 349.485 702.651 344.018 707.31 341.928L719.952 336.255C724.611 334.165 730.078 336.245 732.168 340.904L737.315 352.369Z" fill="white"/>
<path opacity="0.2" d="M814.132 546.097L801.49 551.769C796.831 553.86 791.364 551.779 789.274 547.12L784.414 536.286C783.204 537.267 781.721 537.879 780.009 537.989L766.702 538.86L740.601 540.563L712.275 542.418L686.173 544.121L657.847 545.972L631.741 547.68L603.415 549.531L577.314 551.234L564.002 552.099C564.834 549.416 566.264 546.881 568.058 544.724C571.779 540.247 576.893 537.152 582.054 534.45C610.241 519.674 642.221 514.093 672.178 503.35C686.891 498.079 701.604 491.033 714.202 481.739C721.282 476.526 727.686 470.604 733.053 463.889C737.415 458.441 741.084 452.471 743.868 445.933C743.992 445.651 744.111 445.368 744.226 445.081C745.575 441.805 746.675 438.442 747.546 435.032C749.55 427.188 750.382 419.061 750.401 410.949C750.425 401.66 744.843 386.464 747.077 377.969C747.283 377.18 747.546 376.486 747.861 375.869L818.776 533.876C820.867 538.539 818.786 544.006 814.132 546.097Z" fill="black"/>
<path d="M409.908 506.304C408.349 512.196 401.7 516.889 393.292 516.889H172.406C164.007 516.889 157.348 512.196 155.789 506.304C155.249 504.271 155.32 502.099 156.129 499.923L162.428 483.01L174.788 449.838L188.19 413.836L200.55 380.665L213.962 344.667L226.321 311.491L239.733 275.493L252.093 242.317L259.842 221.515C261.946 215.856 268.581 211.968 276.119 211.968H288.024C289.713 211.968 291.358 212.164 292.917 212.532C298.289 213.795 302.637 217.105 304.287 221.472L312.169 242.322L324.711 275.498L338.319 311.496L350.86 344.671L364.468 380.669L377.01 413.84L390.618 449.843L403.159 483.014L409.535 499.875C410.377 502.061 410.449 504.256 409.908 506.304Z" fill="url(#paint10_linear_1045_3476)"/>
<path d="M324.716 275.497H239.738L252.098 242.321H312.174L324.716 275.497Z" fill="url(#paint11_linear_1045_3476)"/>
<path d="M350.87 344.672H213.967L226.326 311.496H338.328L350.87 344.672Z" fill="url(#paint12_linear_1045_3476)"/>
<path d="M377.019 413.835H188.195L200.555 380.664H364.478L377.019 413.835Z" fill="url(#paint13_linear_1045_3476)"/>
<path d="M403.169 483.01H162.433L174.793 449.839H390.627L403.169 483.01Z" fill="url(#paint14_linear_1045_3476)"/>
<path d="M438.483 518.812V537.562C438.483 544.468 432.882 550.07 425.975 550.07H139.723C132.816 550.07 127.215 544.468 127.215 537.562V518.812C127.215 511.905 132.816 506.304 139.723 506.304H425.979C432.882 506.304 438.483 511.905 438.483 518.812Z" fill="url(#paint15_linear_1045_3476)"/>
<path opacity="0.2" d="M287.326 211.973C287.144 212.154 286.967 212.341 286.795 212.528C280.907 218.927 277.468 226.762 274.54 234.865C273.641 237.347 272.742 239.839 271.843 242.322C267.834 253.38 263.831 264.439 259.827 275.498C255.484 287.494 251.141 299.495 246.793 311.496C243.828 319.684 240.862 327.878 237.897 336.076C236.859 338.941 235.821 341.811 234.788 344.672C230.44 356.668 226.097 368.669 221.753 380.669C220.194 384.979 218.635 389.289 217.076 393.598C214.636 400.343 212.187 407.096 209.748 413.841C205.4 425.842 201.057 437.838 196.709 449.843C195.064 454.397 193.409 458.955 191.763 463.509C189.429 469.952 187.09 476.433 185.167 483.014C183.388 489.118 181.972 495.307 181.264 501.635C181.092 503.195 180.963 504.749 180.872 506.313C180.666 509.834 180.657 513.364 180.8 516.898C181.168 526.307 182.575 535.715 183.971 545.042C184.22 546.688 184.454 548.381 184.603 550.074H139.723C132.816 550.074 127.215 544.473 127.215 537.566V518.816C127.215 511.91 132.816 506.308 139.723 506.308H155.794C155.253 504.276 155.325 502.104 156.133 499.928L162.433 483.014L174.793 449.843L188.195 413.841L200.555 380.669L213.967 344.672L226.326 311.496L239.738 275.498L252.098 242.322L259.846 221.52C261.951 215.861 268.585 211.973 276.124 211.973H287.326Z" fill="white"/>
<path opacity="0.2" d="M438.483 518.813V537.563C438.483 544.469 432.882 550.071 425.975 550.071H250.232C250.247 549.989 250.266 549.908 250.285 549.827C252.198 541.427 259.679 535.209 267.801 532.349C275.923 529.489 284.719 529.398 293.324 529.24C312.15 528.886 333.019 526.982 348.029 516.895C352.238 514.068 355.993 510.59 359.106 506.319C359.111 506.314 359.111 506.31 359.116 506.31C364.066 499.522 366.75 491.4 367.73 483.016C368.252 478.61 368.3 474.133 367.96 469.733C367.443 462.993 366.099 456.378 364.358 449.844C362.809 443.985 360.943 438.188 359.082 432.429C357.083 426.235 355.084 420.041 353.089 413.846C349.521 402.788 345.953 391.734 342.384 380.675C338.515 368.679 334.641 356.678 330.771 344.677L320.066 311.502C316.197 299.505 312.327 287.504 308.453 275.504C305.444 266.176 302.431 256.84 299.422 247.513C298.877 245.829 298.341 244.097 297.825 242.328C295.055 232.871 292.817 222.353 292.922 212.543C298.293 213.806 302.641 217.116 304.292 221.483L312.174 242.332L324.716 275.508L338.324 311.506L350.865 344.682L364.473 380.68L377.014 413.851L390.623 449.854L403.164 483.025L409.54 499.886C410.367 502.076 410.444 504.272 409.903 506.319H425.97C432.882 506.305 438.483 511.906 438.483 518.813Z" fill="black"/>
<path d="M366.037 298.751L369.409 307.107C370.466 309.748 373.437 310.953 376.039 309.805L384.438 306.093C386.863 309.48 389.824 312.503 393.258 315.004L389.747 323.647C388.657 326.321 389.876 329.339 392.464 330.396L400.672 333.73C403.26 334.783 406.244 333.467 407.325 330.789L410.516 322.954L410.841 322.15C415.045 322.753 419.274 322.653 423.373 321.921L425.602 327.464L426.798 330.435C427.859 333.07 430.825 334.276 433.432 333.128L441.668 329.488C444.27 328.34 445.519 325.274 444.452 322.638L441.018 314.124C444.385 311.565 447.399 308.466 449.929 304.888L458.29 308.289C460.877 309.341 463.862 308.021 464.943 305.347L468.392 296.862C469.482 294.188 468.263 291.17 465.675 290.113L457.314 286.717C457.998 282.393 457.998 278.069 457.371 273.888L465.775 270.177C468.373 269.024 469.621 265.958 468.554 263.327L465.187 254.971C464.125 252.331 461.16 251.125 458.558 252.273L450.154 255.985C447.733 252.599 444.773 249.576 441.338 247.074L444.849 238.431C445.94 235.757 444.72 232.739 442.132 231.682L433.92 228.348C431.337 227.296 428.352 228.611 427.266 231.29L423.755 239.928C422.598 239.765 421.436 239.651 420.283 239.593C417.236 239.431 414.199 239.631 411.224 240.162L408.205 232.682L407.789 231.644C406.967 229.601 405.006 228.42 402.949 228.525C402.351 228.554 401.748 228.692 401.16 228.951L396.085 231.189L392.919 232.586C390.321 233.734 389.073 236.8 390.139 239.435L391.22 242.114L393.569 247.959C391.407 249.604 389.384 251.475 387.547 253.55C386.528 254.703 385.567 255.913 384.663 257.19L376.302 253.794C373.709 252.742 370.729 254.057 369.644 256.726L366.2 265.212C365.109 267.886 366.329 270.904 368.917 271.961L377.278 275.362C376.594 279.686 376.594 284.005 377.22 288.19L368.816 291.897C366.224 293.05 364.975 296.116 366.037 298.751ZM408.641 302.353C406.197 301.358 404.025 299.961 402.174 298.263C401.648 297.785 401.146 297.278 400.672 296.747C397.204 292.882 395.171 287.846 394.947 282.546C394.918 281.824 394.923 281.092 394.956 280.36C395.09 277.791 395.65 275.189 396.678 272.664C397.706 270.134 399.117 267.881 400.815 265.948C401.299 265.398 401.806 264.872 402.332 264.375C406.192 260.739 411.161 258.544 416.342 258.2C417.049 258.147 417.767 258.133 418.475 258.157C420.981 258.228 423.512 258.74 425.956 259.74C428.405 260.73 430.576 262.131 432.423 263.825C432.953 264.303 433.451 264.81 433.929 265.341C437.397 269.206 439.425 274.247 439.65 279.542C439.688 280.264 439.679 280.996 439.64 281.728C439.511 284.296 438.952 286.899 437.923 289.424C436.895 291.954 435.484 294.207 433.781 296.14C433.303 296.69 432.796 297.216 432.265 297.713C428.409 301.353 423.44 303.544 418.26 303.893C417.552 303.946 416.834 303.955 416.126 303.936C413.615 303.86 411.085 303.343 408.641 302.353Z" fill="url(#paint16_linear_1045_3476)"/>
<path opacity="0.2" d="M448.049 274.85C450.603 284.918 449.403 295.819 445.088 305.261C440.941 314.339 433.991 322.064 425.602 327.464L426.797 330.435C427.859 333.07 430.825 334.276 433.432 333.128L441.668 329.488C444.27 328.34 445.519 325.274 444.452 322.638L441.018 314.124C444.385 311.565 447.398 308.466 449.929 304.888L458.29 308.289C460.877 309.341 463.862 308.021 464.943 305.347L468.392 296.862C469.482 294.188 468.263 291.17 465.675 290.113L457.314 286.717C457.998 282.393 457.998 278.069 457.371 273.888L465.775 270.177C468.373 269.024 469.621 265.958 468.554 263.327L465.187 254.971C464.125 252.331 461.16 251.125 458.558 252.273L450.154 255.985C447.733 252.599 444.773 249.576 441.338 247.074L444.849 238.431C445.94 235.757 444.72 232.739 442.132 231.682L433.92 228.348C431.337 227.296 428.352 228.611 427.266 231.29L423.755 239.928C422.598 239.765 421.436 239.651 420.283 239.593C422.937 241.396 425.525 243.319 427.998 245.381C437.282 253.115 445.079 263.141 448.049 274.85Z" fill="white"/>
<path opacity="0.12" d="M366.037 298.751L369.409 307.107C370.466 309.748 373.437 310.953 376.039 309.805L384.438 306.093C386.863 309.48 389.824 312.503 393.258 315.004L389.747 323.648C388.657 326.321 389.876 329.34 392.464 330.397L400.672 333.73C403.26 334.783 406.244 333.467 407.325 330.789L410.516 322.954C410.449 322.82 410.382 322.686 410.31 322.552C406.206 314.717 398.529 309.408 393.277 302.286C385.323 291.5 383.481 277.16 385.395 263.892C385.897 260.395 386.638 256.956 387.547 253.555C386.528 254.708 385.567 255.918 384.663 257.195L376.302 253.799C373.709 252.747 370.729 254.062 369.644 256.731L366.2 265.217C365.109 267.89 366.329 270.909 368.917 271.966L377.278 275.367C376.594 279.69 376.594 284.01 377.22 288.195L368.816 291.902C366.224 293.05 364.975 296.116 366.037 298.751Z" fill="black"/>
<path d="M439.014 215.566L439.846 222.133C440.104 224.209 441.989 225.615 444.05 225.29L450.708 224.223C451.799 227.084 453.339 229.781 455.31 232.202L451.201 237.688C449.929 239.381 450.23 241.758 451.871 242.988L457.08 246.891C458.72 248.125 461.088 247.747 462.355 246.044L466.086 241.074L466.464 240.567C469.339 241.777 472.362 242.5 475.409 242.744L475.959 247.101L476.255 249.435C476.518 251.506 478.398 252.913 480.464 252.587L486.993 251.54C489.055 251.21 490.514 249.263 490.251 247.192L489.404 240.5C492.274 239.309 494.996 237.674 497.459 235.607L502.763 239.587C504.404 240.821 506.772 240.438 508.039 238.74L512.071 233.359C513.344 231.666 513.042 229.289 511.402 228.059L506.097 224.085C507.389 221.143 508.197 218.067 508.532 214.982L515.195 213.916C517.251 213.581 518.715 211.639 518.447 209.568L517.615 203.005C517.352 200.929 515.472 199.523 513.411 199.853L506.748 200.92C505.662 198.064 504.122 195.362 502.151 192.946L506.26 187.46C507.532 185.767 507.231 183.39 505.59 182.16L500.381 178.257C498.741 177.028 496.378 177.406 495.106 179.104L490.997 184.585C490.208 184.251 489.404 183.954 488.591 183.7C486.458 183.016 484.262 182.591 482.048 182.414L481.301 176.535L481.201 175.722C481 174.12 479.823 172.914 478.345 172.604C477.915 172.513 477.46 172.498 476.997 172.575L472.974 173.221L470.463 173.622C468.406 173.952 466.947 175.899 467.21 177.97L467.478 180.075L468.057 184.662C466.211 185.427 464.431 186.379 462.733 187.508C461.796 188.134 460.887 188.818 460.007 189.555L454.702 185.58C453.062 184.346 450.694 184.724 449.422 186.422L445.389 191.808C444.117 193.501 444.419 195.878 446.059 197.108L451.364 201.087C450.072 204.029 449.264 207.1 448.929 210.19L442.271 211.251C440.214 211.553 438.755 213.495 439.014 215.566ZM468.602 226.084C467.052 224.917 465.771 223.525 464.776 221.97C464.493 221.535 464.23 221.076 463.991 220.612C462.25 217.221 461.748 213.265 462.575 209.458C462.69 208.936 462.829 208.42 462.992 207.908C463.565 206.11 464.45 204.364 465.651 202.761C466.851 201.159 468.277 199.82 469.846 198.763C470.291 198.461 470.75 198.184 471.218 197.93C474.638 196.07 478.58 195.438 482.325 196.161C482.837 196.256 483.349 196.381 483.846 196.529C485.616 197.05 487.314 197.887 488.864 199.05C490.418 200.212 491.7 201.609 492.695 203.158C492.982 203.598 493.24 204.053 493.479 204.517C495.22 207.908 495.718 211.868 494.89 215.671C494.78 216.192 494.642 216.709 494.474 217.221C493.905 219.024 493.02 220.765 491.819 222.367C490.619 223.97 489.194 225.309 487.625 226.366C487.185 226.667 486.725 226.945 486.252 227.198C482.837 229.064 478.895 229.695 475.15 228.973C474.638 228.877 474.127 228.753 473.629 228.605C471.855 228.079 470.157 227.241 468.602 226.084Z" fill="url(#paint17_linear_1045_3476)"/>
<path opacity="0.2" d="M501.735 213.907C501.668 221.536 498.779 229.055 493.953 234.957C489.313 240.635 482.932 244.82 475.963 247.092L476.26 249.426C476.523 251.498 478.403 252.904 480.469 252.579L486.998 251.531C489.06 251.201 490.519 249.254 490.255 247.183L489.409 240.492C492.279 239.301 495 237.665 497.464 235.598L502.768 239.578C504.409 240.812 506.776 240.429 508.044 238.731L512.076 233.35C513.348 231.657 513.047 229.28 511.407 228.051L506.102 224.076C507.393 221.134 508.202 218.059 508.537 214.974L515.2 213.907C517.256 213.572 518.72 211.63 518.452 209.559L517.62 202.996C517.357 200.921 515.477 199.514 513.415 199.844L506.753 200.911C505.667 198.056 504.127 195.353 502.156 192.938L506.265 187.451C507.537 185.758 507.236 183.381 505.595 182.152L500.386 178.248C498.746 177.019 496.383 177.397 495.11 179.095L491.002 184.577C490.212 184.242 489.409 183.945 488.596 183.692C490.145 185.471 491.623 187.317 492.996 189.245C498.148 196.458 501.812 205.034 501.735 213.907Z" fill="white"/>
<path opacity="0.12" d="M439.014 215.566L439.846 222.134C440.104 224.21 441.989 225.616 444.05 225.291L450.708 224.224C451.799 227.084 453.339 229.782 455.31 232.202L451.201 237.689C449.929 239.382 450.23 241.759 451.871 242.988L457.08 246.891C458.72 248.125 461.088 247.747 462.355 246.045L466.086 241.075C466.062 240.97 466.043 240.86 466.014 240.75C464.56 234.417 460.102 229.213 457.701 223.172C454.066 214.026 455.434 203.494 459.27 194.43C460.279 192.043 461.451 189.733 462.728 187.489C461.791 188.116 460.882 188.8 460.002 189.537L454.698 185.562C453.057 184.328 450.689 184.706 449.417 186.404L445.385 191.789C444.112 193.483 444.414 195.86 446.054 197.089L451.359 201.069C450.067 204.01 449.259 207.081 448.924 210.171L442.266 211.233C440.214 211.553 438.755 213.495 439.014 215.566Z" fill="black"/>
<path d="M491.738 398.248C487.166 391.762 481.689 386.621 475.308 382.832C468.368 378.714 460.366 376.184 451.287 375.251C448.613 374.969 445.844 374.83 442.984 374.83C439.851 374.83 436.832 374.983 433.929 375.284C416.365 377.107 402.987 384.459 393.799 397.325C383.089 412.325 377.732 435.887 377.732 468.02C377.732 498.671 383.209 521.764 394.172 537.294C404.977 552.61 420.952 560.378 442.094 560.588C442.39 560.593 442.687 560.593 442.988 560.593C447.867 560.593 452.473 560.23 456.797 559.498C459.17 559.101 461.456 558.599 463.661 557.982C475.629 554.638 485.133 548.071 492.178 538.285C502.888 523.409 508.245 499.991 508.245 468.02C508.24 437.121 502.739 413.865 491.738 398.248ZM455.898 509.791C455.53 510.944 455.128 512.006 454.683 512.986C452.091 518.765 448.192 521.654 442.979 521.654C438.751 521.654 435.374 519.755 432.858 515.966C431.791 514.364 430.887 512.427 430.127 510.155C427.572 502.492 426.295 488.444 426.295 468.011C426.295 447.414 427.572 433.242 430.127 425.493C430.892 423.183 431.81 421.207 432.882 419.586C435.393 415.779 438.765 413.875 442.979 413.875C447.231 413.875 450.622 415.889 453.143 419.906C454.191 421.571 455.09 423.575 455.836 425.928C458.385 433.964 459.667 447.988 459.667 468.011C459.667 487.956 458.414 501.88 455.898 509.791Z" fill="url(#paint18_linear_1045_3476)"/>
<path d="M364.253 486.679H345.847C345.431 486.679 345.101 486.344 345.101 485.937V378.173C345.101 377.762 344.767 377.427 344.355 377.427H300.388C300.14 377.427 299.91 377.546 299.771 377.752L295.945 383.353L224.982 487.114C224.901 487.234 224.853 487.382 224.853 487.535V522.399C224.853 522.811 225.188 523.145 225.599 523.145H296.155C296.567 523.145 296.897 523.48 296.897 523.887V557.374C296.897 557.785 297.232 558.12 297.643 558.12H344.35C344.767 558.12 345.097 557.785 345.097 557.374V523.887C345.097 523.475 345.431 523.145 345.843 523.145H364.248C364.664 523.145 364.994 522.811 364.994 522.399V487.43C364.999 487.014 364.664 486.679 364.253 486.679ZM297.404 448.026C297.38 448.547 297.356 449.093 297.332 449.662C297.04 456.377 296.897 461.711 296.897 465.666V485.933C296.897 486.344 296.562 486.674 296.155 486.674H268.518C267.92 486.674 267.562 486.009 267.897 485.512L287.139 456.889C290.344 451.891 293.247 446.558 295.849 440.89C296.055 440.44 296.256 439.99 296.461 439.536C296.581 439.268 296.849 439.096 297.141 439.096C297.581 439.096 297.925 439.479 297.882 439.919C297.748 441.196 297.586 443.893 297.404 448.026Z" fill="url(#paint19_linear_1045_3476)"/>
<path opacity="0.2" d="M332.282 377.423H305.899H300.388C300.14 377.423 299.91 377.542 299.771 377.748L224.982 487.11C224.901 487.23 224.853 487.378 224.853 487.531V522.395C224.853 522.807 225.188 523.141 225.599 523.141H237.715C234.314 512.418 232.487 501.426 234.687 490.516C237.16 478.242 244.478 467.595 251.629 457.321C259.832 445.535 268.03 433.749 276.229 421.964C283.738 411.178 291.243 400.392 298.748 389.606C298.815 389.51 298.887 389.409 298.963 389.304C301.986 385.181 306.626 382.546 311.701 381.9C318.703 381.001 326.614 379.599 332.282 377.423Z" fill="white"/>
<path opacity="0.2" d="M364.999 487.427V522.396C364.999 522.808 364.664 523.143 364.253 523.143H345.847C345.431 523.143 345.101 523.477 345.101 523.884V557.371C345.101 557.782 344.766 558.117 344.355 558.117H303.268C303.713 555.367 304.818 552.769 306.654 550.607C311.399 545.03 319.33 543.648 325.715 540.07C338.902 532.68 344.518 516.226 344.35 501.111C344.183 485.997 339.438 471.351 337.027 456.427C334.741 442.255 334.626 427.738 336.583 413.522C337.649 405.735 338.166 391.97 345.101 386.383V485.939C345.101 486.351 345.436 486.681 345.847 486.681H364.253C364.664 486.681 364.999 487.015 364.999 487.427Z" fill="black"/>
<path opacity="0.2" d="M304.311 529.732C303.593 539.437 301.431 549.037 297.911 558.115H297.648C297.236 558.115 296.902 557.78 296.902 557.369V527.867C297.308 527.474 297.724 527.087 298.159 526.714C300.661 524.542 304.555 526.432 304.311 529.732Z" fill="white"/>
<path opacity="0.2" d="M299.14 483.843C298.958 485.746 298.332 488.114 296.442 488.425C295.237 488.621 294.06 487.765 293.491 486.674H296.151C296.562 486.674 296.892 486.339 296.892 485.933V465.667C296.892 461.711 297.035 456.378 297.327 449.662C297.351 449.093 297.375 448.548 297.399 448.026C297.581 447.921 297.772 447.845 297.968 447.806C300.24 447.347 299.944 460.807 299.982 463.213C300.078 470.096 299.8 476.988 299.14 483.843Z" fill="white"/>
<path opacity="0.2" d="M267.896 485.518C267.562 486.015 267.92 486.68 268.518 486.68H282.442C280.347 487.732 277.979 488.301 275.631 488.459C271.599 488.732 267.576 487.938 263.606 487.144C263.214 487.015 270.977 471.517 271.747 470.187C277.448 460.344 284.513 451.299 292.702 443.402C293.902 442.249 295.079 440.991 295.849 440.896C293.247 446.564 290.344 451.902 287.139 456.895L267.896 485.518Z" fill="black"/>
<path d="M658.909 486.679H640.504C640.088 486.679 639.757 486.344 639.757 485.937V378.173C639.757 377.762 639.423 377.427 639.011 377.427H595.045C594.796 377.427 594.566 377.546 594.428 377.752L590.601 383.353L519.638 487.114C519.557 487.234 519.509 487.382 519.509 487.535V522.399C519.509 522.811 519.844 523.145 520.255 523.145H590.816C591.228 523.145 591.558 523.48 591.558 523.887V557.374C591.558 557.785 591.893 558.12 592.304 558.12H639.011C639.427 558.12 639.757 557.785 639.757 557.374V523.887C639.757 523.475 640.092 523.145 640.504 523.145H658.909C659.325 523.145 659.655 522.811 659.655 522.399V487.43C659.655 487.014 659.321 486.679 658.909 486.679ZM592.06 448.026C592.036 448.547 592.012 449.093 591.988 449.662C591.696 456.377 591.553 461.711 591.553 465.666V485.933C591.553 486.344 591.218 486.674 590.812 486.674H563.174C562.577 486.674 562.218 486.009 562.553 485.512L581.795 456.889C585 451.891 587.903 446.558 590.505 440.89C590.711 440.44 590.912 439.99 591.118 439.536C591.237 439.268 591.505 439.096 591.797 439.096C592.237 439.096 592.581 439.479 592.538 439.919C592.404 441.196 592.246 443.893 592.06 448.026Z" fill="url(#paint20_linear_1045_3476)"/>
<path opacity="0.2" d="M626.939 377.423H600.555H595.045C594.796 377.423 594.566 377.542 594.428 377.748L519.638 487.11C519.557 487.23 519.509 487.378 519.509 487.531V522.395C519.509 522.807 519.844 523.141 520.255 523.141H532.371C528.97 512.418 527.143 501.426 529.343 490.516C531.816 478.242 539.134 467.595 546.285 457.321C554.488 445.535 562.687 433.749 570.885 421.964C578.394 411.178 585.899 400.392 593.404 389.606C593.471 389.51 593.543 389.409 593.619 389.304C596.642 385.181 601.282 382.546 606.357 381.9C613.359 381.001 621.271 379.599 626.939 377.423Z" fill="white"/>
<path opacity="0.2" d="M659.655 487.427V522.396C659.655 522.808 659.321 523.143 658.909 523.143H640.504C640.088 523.143 639.757 523.477 639.757 523.884V557.371C639.757 557.782 639.423 558.117 639.011 558.117H597.924C598.369 555.367 599.474 552.769 601.311 550.607C606.055 545.03 613.986 543.648 620.371 540.07C633.559 532.68 639.174 516.226 639.007 501.111C638.839 485.997 634.094 471.351 631.684 456.427C629.397 442.255 629.282 427.738 631.239 413.522C632.305 405.735 632.822 391.97 639.757 386.383V485.939C639.757 486.351 640.092 486.681 640.504 486.681H658.909C659.321 486.681 659.655 487.015 659.655 487.427Z" fill="black"/>
<path opacity="0.2" d="M598.967 529.732C598.249 539.437 596.087 549.037 592.567 558.115H592.304C591.893 558.115 591.558 557.78 591.558 557.369V527.867C591.964 527.474 592.38 527.087 592.816 526.714C595.317 524.542 599.211 526.432 598.967 529.732Z" fill="white"/>
<path opacity="0.2" d="M593.796 483.843C593.614 485.746 592.988 488.114 591.099 488.425C589.893 488.621 588.716 487.765 588.147 486.674H590.807C591.218 486.674 591.548 486.339 591.548 485.933V465.667C591.548 461.711 591.692 456.378 591.983 449.662C592.007 449.093 592.031 448.548 592.055 448.026C592.237 447.921 592.428 447.845 592.624 447.806C594.896 447.347 594.6 460.807 594.638 463.213C594.739 470.096 594.456 476.988 593.796 483.843Z" fill="white"/>
<path opacity="0.2" d="M562.553 485.518C562.218 486.015 562.577 486.68 563.175 486.68H577.098C575.003 487.732 572.636 488.301 570.287 488.459C566.255 488.732 562.232 487.938 558.262 487.144C557.87 487.015 565.633 471.517 566.403 470.187C572.105 460.344 579.169 451.299 587.358 443.402C588.559 442.249 589.735 440.991 590.505 440.896C587.903 446.564 585 451.902 581.795 456.895L562.553 485.518Z" fill="black"/>
<path opacity="0.2" d="M442.089 560.584C420.948 560.374 404.967 552.606 394.167 537.29C383.204 521.759 377.727 498.666 377.727 468.016C377.727 435.883 383.084 412.321 393.794 397.321C402.987 384.454 416.361 377.107 433.924 375.28C433.776 378.882 432.738 382.469 430.61 385.784C425.889 393.136 417.906 397.603 411.377 403.415C397.941 415.363 390.766 433.152 388.551 450.988C386.337 468.834 388.642 486.909 391.574 504.65C394.148 520.214 398.137 537.219 410.917 546.474C416.782 550.721 423.88 552.812 430.686 555.294C434.618 556.724 438.574 558.37 442.089 560.584Z" fill="white"/>
<path opacity="0.2" d="M508.24 468.015C508.24 499.986 502.883 523.404 492.174 538.28C485.128 548.061 475.619 554.628 463.656 557.977C461.451 558.594 459.165 559.101 456.793 559.493C456.113 559.196 455.448 558.857 454.803 558.479C450.924 556.212 447.829 552.069 448.073 547.583C448.508 539.614 457.84 535.974 465.029 532.497C481.526 524.528 493.168 508.371 498.353 490.793C503.538 473.219 502.797 454.345 499.238 436.375C496.689 423.513 492.623 410.723 485.157 399.941C480.799 393.656 475.313 388.175 469.071 383.765C464.269 380.378 456.314 378.456 451.292 375.246C460.37 376.184 468.377 378.709 475.313 382.827C481.694 386.62 487.175 391.757 491.743 398.243C502.739 413.865 508.24 437.121 508.24 468.015Z" fill="black"/>
<path opacity="0.2" d="M468.143 492.563C467.631 496.902 466.875 501.307 464.823 505.172C462.776 509.032 459.232 512.322 454.922 513.059C454.846 513.069 454.765 513.049 454.683 512.987C455.123 512.007 455.53 510.94 455.898 509.792C458.409 501.881 459.667 487.957 459.667 468.016C459.667 447.999 458.385 433.97 455.836 425.934C455.09 423.581 454.191 421.577 453.143 419.912C453.985 419.773 454.922 419.893 455.97 420.338C462.264 423.016 465.589 446.009 466.727 452.079C469.229 465.405 469.741 479.104 468.143 492.563Z" fill="black"/>
<path opacity="0.2" d="M430.131 510.16C430.892 512.432 431.801 514.369 432.862 515.971C432.839 515.976 432.819 515.976 432.796 515.976C430.184 516.057 427.859 514.096 426.711 511.753C425.563 509.409 425.348 506.73 425.157 504.128C423.87 486.78 422.579 469.426 421.292 452.078C420.57 442.406 419.494 429.171 427.974 422.289C429.672 420.911 431.327 420.026 432.886 419.591C431.815 421.217 430.897 423.188 430.131 425.498C427.577 433.247 426.3 447.419 426.3 468.015C426.3 488.449 427.577 502.497 430.131 510.16Z" fill="white"/>
<defs>
<linearGradient id="paint0_linear_1045_3476" x1="-169.353" y1="272.338" x2="1237.69" y2="293.519" gradientUnits="userSpaceOnUse">
<stop offset="0.00465116" stop-color="#FFBE54"/>
<stop offset="1" stop-color="#F799AB"/>
</linearGradient>
<linearGradient id="paint1_linear_1045_3476" x1="896.996" y1="586.184" x2="25.2078" y2="586.184" gradientUnits="userSpaceOnUse">
<stop stop-color="#635743"/>
<stop offset="1" stop-color="#521D27"/>
</linearGradient>
<linearGradient id="paint2_linear_1045_3476" x1="25.2097" y1="577.083" x2="896.994" y2="577.083" gradientUnits="userSpaceOnUse">
<stop offset="0.00465116" stop-color="#FFBE54"/>
<stop offset="1" stop-color="#F799AB"/>
</linearGradient>
<linearGradient id="paint3_linear_1045_3476" x1="519.189" y1="369.575" x2="637.383" y2="408.973" gradientUnits="userSpaceOnUse">
<stop stop-color="#E67975"/>
<stop offset="0.9907" stop-color="#945075"/>
</linearGradient>
<linearGradient id="paint4_linear_1045_3476" x1="551.03" y1="451.692" x2="792.602" y2="471.641" gradientUnits="userSpaceOnUse">
<stop stop-color="#F69D80"/>
<stop offset="1" stop-color="#C9546A"/>
</linearGradient>
<linearGradient id="paint5_linear_1045_3476" x1="558.354" y1="520.155" x2="605.519" y2="524.05" gradientUnits="userSpaceOnUse">
<stop stop-color="#FFDFAB"/>
<stop offset="1" stop-color="#F75775"/>
</linearGradient>
<linearGradient id="paint6_linear_1045_3476" x1="595.693" y1="498.336" x2="661.332" y2="503.757" gradientUnits="userSpaceOnUse">
<stop stop-color="#FFDFAB"/>
<stop offset="1" stop-color="#F75775"/>
</linearGradient>
<linearGradient id="paint7_linear_1045_3476" x1="633.029" y1="476.515" x2="717.142" y2="483.461" gradientUnits="userSpaceOnUse">
<stop stop-color="#FFDFAB"/>
<stop offset="1" stop-color="#F75775"/>
</linearGradient>
<linearGradient id="paint8_linear_1045_3476" x1="670.368" y1="454.693" x2="772.951" y2="463.165" gradientUnits="userSpaceOnUse">
<stop stop-color="#FFDFAB"/>
<stop offset="1" stop-color="#F75775"/>
</linearGradient>
<linearGradient id="paint9_linear_1045_3476" x1="694.537" y1="438.547" x2="826.904" y2="449.478" gradientUnits="userSpaceOnUse">
<stop stop-color="#FFDFAB"/>
<stop offset="1" stop-color="#F75775"/>
</linearGradient>
<linearGradient id="paint10_linear_1045_3476" x1="155.444" y1="364.431" x2="410.254" y2="364.431" gradientUnits="userSpaceOnUse">
<stop stop-color="#F69D80"/>
<stop offset="1" stop-color="#C9546A"/>
</linearGradient>
<linearGradient id="paint11_linear_1045_3476" x1="239.736" y1="258.91" x2="324.717" y2="258.91" gradientUnits="userSpaceOnUse">
<stop stop-color="#FFDFAB"/>
<stop offset="1" stop-color="#F75775"/>
</linearGradient>
<linearGradient id="paint12_linear_1045_3476" x1="213.968" y1="328.083" x2="350.868" y2="328.083" gradientUnits="userSpaceOnUse">
<stop stop-color="#FFDFAB"/>
<stop offset="1" stop-color="#F75775"/>
</linearGradient>
<linearGradient id="paint13_linear_1045_3476" x1="188.196" y1="397.252" x2="377.019" y2="397.252" gradientUnits="userSpaceOnUse">
<stop stop-color="#FFDFAB"/>
<stop offset="1" stop-color="#F75775"/>
</linearGradient>
<linearGradient id="paint14_linear_1045_3476" x1="162.432" y1="466.425" x2="403.171" y2="466.425" gradientUnits="userSpaceOnUse">
<stop stop-color="#FFDFAB"/>
<stop offset="1" stop-color="#F75775"/>
</linearGradient>
<linearGradient id="paint15_linear_1045_3476" x1="127.214" y1="528.185" x2="438.482" y2="528.185" gradientUnits="userSpaceOnUse">
<stop stop-color="#FFDFAB"/>
<stop offset="1" stop-color="#F75775"/>
</linearGradient>
<linearGradient id="paint16_linear_1045_3476" x1="466.677" y1="301.109" x2="367.92" y2="260.974" gradientUnits="userSpaceOnUse">
<stop stop-color="#FEBD9E"/>
<stop offset="0.6814" stop-color="#FE858F"/>
</linearGradient>
<linearGradient id="paint17_linear_1045_3476" x1="510.061" y1="236.038" x2="447.405" y2="189.089" gradientUnits="userSpaceOnUse">
<stop stop-color="#FEBD9E"/>
<stop offset="0.6814" stop-color="#FE858F"/>
</linearGradient>
<linearGradient id="paint18_linear_1045_3476" x1="377.728" y1="467.709" x2="508.241" y2="467.709" gradientUnits="userSpaceOnUse">
<stop stop-color="#FDE260"/>
<stop offset="1" stop-color="#F59BA8"/>
</linearGradient>
<linearGradient id="paint19_linear_1045_3476" x1="224.846" y1="467.769" x2="364.998" y2="467.769" gradientUnits="userSpaceOnUse">
<stop stop-color="#FDE260"/>
<stop offset="1" stop-color="#F59BA8"/>
</linearGradient>
<linearGradient id="paint20_linear_1045_3476" x1="519.503" y1="467.769" x2="659.655" y2="467.769" gradientUnits="userSpaceOnUse">
<stop stop-color="#FDE260"/>
<stop offset="1" stop-color="#F59BA8"/>
</linearGradient>
</defs>
</svg>
