<?xml version="1.0" encoding="utf-8"?>
<!-- Generator: Adobe Illustrator 25.4.1, SVG Export Plug-In . SVG Version: 6.00 Build 0)  -->
<svg version="1.1" id="Layer_1" xmlns="http://www.w3.org/2000/svg" xmlns:xlink="http://www.w3.org/1999/xlink" x="0px" y="0px"
	 viewBox="0 0 1440 1051.8" style="enable-background:new 0 0 1440 1051.8;" xml:space="preserve">
<style type="text/css">
	.st0{fill:url(#SVGID_1_);}
	.st1{fill:url(#SVGID_00000000204440769866659550000018316368973117791661_);}
	.st2{opacity:0.32;fill:#F5C878;enable-background:new    ;}
	.st3{opacity:0.16;fill:#F5C878;enable-background:new    ;}
	.st4{fill:#FFC359;}
	.st5{opacity:0.56;fill:#422416;fill-opacity:0.4;enable-background:new    ;}
	.st6{fill:url(#SVGID_00000143614396492477718290000015085674792485660080_);}
	.st7{opacity:0.33;fill:#422416;enable-background:new    ;}
	.st8{opacity:0.16;fill:#FFC359;enable-background:new    ;}
	.st9{fill:url(#SVGID_00000013175525009706195690000002605071500885236397_);}
	.st10{opacity:7.000000e-02;fill:#FFC359;enable-background:new    ;}
	.st11{opacity:9.000000e-02;fill:#FFC359;enable-background:new    ;}
	.st12{opacity:0.22;fill:#422416;enable-background:new    ;}
	.st13{opacity:0.26;fill:#422416;enable-background:new    ;}
	.st14{fill:url(#SVGID_00000052783716477924985330000017087241232650484618_);}
	.st15{fill:url(#SVGID_00000085218143826542481320000011653259642751144610_);}
	.st16{opacity:0.11;enable-background:new    ;}
	.st17{fill:url(#SVGID_00000155127870105573210860000015024441396096337024_);}
</style>
<linearGradient id="SVGID_1_" gradientUnits="userSpaceOnUse" x1="709.7569" y1="463.0531" x2="709.7569" y2="1099.7366" gradientTransform="matrix(1 0 0 -1 0 1212)">
	<stop  offset="0" style="stop-color:#F59D00"/>
	<stop  offset="1" style="stop-color:#F57300"/>
</linearGradient>
<path class="st0" d="M1416.6,28.4H2.9v1023.6h1413.7V28.4z"/>
<linearGradient id="SVGID_00000012430533909430883380000010759603275171624101_" gradientUnits="userSpaceOnUse" x1="721.4413" y1="505.8199" x2="721.4413" y2="1069.0347" gradientTransform="matrix(1 -5.177066e-03 -5.177066e-03 -1 3.5767 1215.6798)">
	<stop  offset="0" style="stop-color:#F59D00"/>
	<stop  offset="0.4979" style="stop-color:#F57300"/>
	<stop  offset="1" style="stop-color:#F5C878"/>
</linearGradient>
<path style="fill:url(#SVGID_00000012430533909430883380000010759603275171624101_);" d="M1440,0H0l2.9,1051.9H1440V0z"/>
<path class="st2" d="M554.6,445.1h498.8c0,0-68.1-6.6-96.4-10.4c-28.3-3.8-67.9-8.1-94.2-9.3c-26.4-1.1-34.9,12.4-66.9,0
	c-32-12.4-62.2-9.3-85.8,0C686.6,434.8,565.9,435.7,554.6,445.1z"/>
<path class="st3" d="M0,326.2c0,0,30.6,1.7,88.4,1.7c57.8,0,52.8-3.8,127.6,0c74.8,3.8,93.6,12.4,156.4,15.6s104.8-15.2,210.1-17.3
	c105.3-2.1,110.3,5.9,187,8.8s66.6,4.1,149.5,0.4c82.9-3.8,116.9-12.6,150.8,0c33.9,12.6,121.3,22.6,183.8,25.1
	c62.5,2.5,175.6,0,175.6,0v70.7c0,0-233.7-25.1-305.4-27.8c-71.6-2.7-128.3,8.9-215.6-4.4c-87.3-13.3-125-5.5-206.6-11.9
	c-81.7-6.4-134.5,3.6-233.7,6.1c-99.3,2.5-123.1,6.3-193.5-5C204,376.9,0,388.2,0,388.2V326.2z"/>
<path class="st3" d="M0.7,240.3c0,0,92.7,11,205.8,11c113.1,0,184.7-9.4,294-13.2c109.3-3.8,407.1-43.3,469.3-33.9
	c0,0-113.7-18.8-199.2-17c-85.4,1.9-165.9,5.7-277.4,9.4c-111.5,3.8-289.6-9.3-289.6-9.3L2.9,186.8L0.7,240.3z"/>
<path class="st3" d="M0,206.1c0,0,85.8,15.1,225.3,18.8c139.5,3.8,207.5-2.5,343.1-18.8s238.1-30.1,327.4-26.4
	c89.2,3.8,110-13.2,194.8,0c84.8,13.2,136.5,22.3,165.3,20.6c28.8-1.8,184.2,0,184.2,0v-94.1H0V206.1z"/>
<path class="st2" d="M952,290.9c0,0,144.2,0,179.1,0s174.4,0,174.4,0s-61.3-4.8-87.7-13.7c-26.4-8.9-38.6-16.4-55.6-15.5
	c-17,0.9-10.4,6.6-42.4,4.7c-32-1.9-40.5-12.4-66-4.8S977.4,286.1,952,290.9z"/>
<path class="st2" d="M754,274.6h187.5c0,0-26.4-11.3-45.2-15.1c-18.8-3.8-24.5,1.9-46.2,0C828.5,257.6,769.1,265.2,754,274.6z"/>
<path class="st4" d="M554.9,551.9c8.1-48.3-24.5-93.9-72.8-102c-48.3-8.1-94,24.5-102,72.8c-8.1,48.3,24.5,93.9,72.8,102
	C501.2,632.8,546.9,600.2,554.9,551.9z"/>
<path class="st5" d="M730.1,354c0,0,10.2-7.9,16.9,0c0,0-9-2.3-16.9,7.3c-7.9-9.6-16.9-7.3-16.9-7.3
	C719.9,346.1,730.1,354,730.1,354z"/>
<path class="st5" d="M663.6,337c0,0,5.1-4,8.5,0c0,0-4.5-1.1-8.5,3.7c-4-4.8-8.5-3.7-8.5-3.7C658.5,333,663.6,337,663.6,337z"/>
<path class="st5" d="M787.1,292.6c0,0,5.1-4,8.5,0c0,0-4.5-1.1-8.5,3.7c-4-4.8-8.5-3.7-8.5-3.7C782.1,288.7,787.1,292.6,787.1,292.6
	z"/>
<path class="st5" d="M843.4,311.5c0,0,3.6-2.8,6,0c0,0-3.2-0.8-6,2.6c-2.8-3.4-6-2.6-6-2.6C839.8,308.7,843.4,311.5,843.4,311.5z"/>
<path class="st5" d="M701.3,302.3c0,0,7.1-5.5,11.9,0c0,0-6.3-1.6-11.9,5.1c-5.5-6.7-11.9-5.1-11.9-5.1
	C694.2,296.8,701.3,302.3,701.3,302.3z"/>
<path class="st5" d="M735.3,320.6c0,0,5.1-4,8.5,0c0,0-4.5-1.1-8.5,3.7c-4-4.8-8.5-3.7-8.5-3.7C730.2,316.6,735.3,320.6,735.3,320.6
	z"/>
<path class="st5" d="M672.1,378.4c0,0,2.5-2,4.2,0c0,0-2.3-0.6-4.2,1.8c-2-2.4-4.2-1.8-4.2-1.8C669.5,376.4,672.1,378.4,672.1,378.4
	z"/>
<path class="st5" d="M627.3,401c0,0,2.5-2,4.2,0c0,0-2.3-0.6-4.2,1.8c-2-2.4-4.2-1.8-4.2-1.8C624.7,399,627.3,401,627.3,401z"/>
<linearGradient id="SVGID_00000146460967309833139880000013519175396389539495_" gradientUnits="userSpaceOnUse" x1="617.54" y1="416.088" x2="617.54" y2="661.038" gradientTransform="matrix(1 0 0 -1 0 1212)">
	<stop  offset="0" style="stop-color:#F59D00"/>
	<stop  offset="1" style="stop-color:#F56600"/>
</linearGradient>
<path style="fill:url(#SVGID_00000146460967309833139880000013519175396389539495_);" d="M0,335.4h44.4L67,353.1l5,58.5l22.6,13
	l37.7,36.9v40h33.9l76,39.9L444,557.8l57.8-26.4l22.6,5.9l27.7,86.6h30.4l38.6-39.4l12.6-35.5l17.6-7.6l13.8,21
	c0,0,2.4,30.5,8.7,41.8s16.4,19.6,16.4,19.6h19.4l9.4-43l18.4-72.2l73.4-29l6.3,57.7l43.6,50.7l152.4,7.1l75.4-133.6l17.6-60.7
	l33.6-26.4l29.2,12.7l25.1,114.4l41,102.7l-52.6,200.6H0V335.4z"/>
<path class="st7" d="M88.6,500.5l6-75.8l-22.6-13l5.6,54.9L88.6,500.5z"/>
<path class="st8" d="M651.3,541.4l-13.8,58.5l-55,24l38.6-39.4l12.6-35.5L651.3,541.4z"/>
<path class="st8" d="M709.8,623.9l54.3-125.7l-26.5,10.5L709.8,623.9z"/>
<linearGradient id="SVGID_00000107583380001824867170000001225073679951294861_" gradientUnits="userSpaceOnUse" x1="841.186" y1="336.2083" x2="734.4481" y2="632.6783" gradientTransform="matrix(1 0 0 -1 0 1212)">
	<stop  offset="0" style="stop-color:#F58000"/>
	<stop  offset="1" style="stop-color:#B54B00"/>
</linearGradient>
<path style="fill:url(#SVGID_00000107583380001824867170000001225073679951294861_);" d="M493.3,637.2l23.6-63.1l47.7-16.3l39.2,6.3
	c0,0,9.6,35.2,17.2,40.2l18.2,6.9c0,0,9.6,28.3,20.2,37.1c10.6,8.8,67.1,0,67.1,0l37.4-80.4l21.8-123.1l6.7-46.5l82.4-32.4
	l26.4,13.6l17.6-26.3c0,0,27-10.7,36.4-9.5c9.4,1.3,43.4,7.5,43.4,7.5s27.7,35.2,37.1,44l5,16.5l25.1,14.3l9.4,91l122.5,246.9
	l-787.9,17.6L493.3,637.2z"/>
<path class="st10" d="M487.1,671.6l48.3-87.1l25.4-14.8l43-5.7l-39.2-6.3l-47.7,16.3l-23.6,63.1L462.8,690L487.1,671.6z"/>
<path class="st11" d="M649.4,660.2H667l59.7-11.9c0,0-56.5,8.8-67.1,0s-20.2-37.1-20.2-37.1l-18.2-6.9l12,12.4L649.4,660.2z"/>
<path class="st10" d="M785.9,444.7l-21.8,123.1l-37.4,80.4l-44.6,57.6l51.5,11.2c0,0,30.8-38,36.5-51.2
	c5.7-13.2,16.3-71.6,16.3-71.6l12.6-56.5l-10,8.2l-13.8,28.9l6.3-37.1L804,473l8.2-74.7l62.8-32.4l-82.4,32.4L785.9,444.7z"/>
<path class="st12" d="M875,365.8c0,0,0.3,30.1,0,39c-0.3,9-2.2,41-2.2,41l-5.7,38.6l4,32.4l6.4-41.4l19.8-82.4l4.1-13.7L875,365.8z"
	/>
<path class="st10" d="M871.1,516.9l-4,49l-17.9,62.2l-64.7,92.3l52.8,10.7l23.2-98.9l23.7-72.5l2.7-73.5l25.8-105.5l11.3-22
	l28.9-11.3l45.9,3.8c0,0-33.9-6.3-43.4-7.5c-9.4-1.3-36.4,9.5-36.4,9.5l-17.6,26.3l-23.9,96.1L871.1,516.9z"/>
<path class="st13" d="M975.5,365.8l-33.9,115.4l25.1,134.4l-9.1,153.6l240.3-5.4l-122.5-246.9l-9.4-91l-25.1-14.3l14.4,109.7
	l-32.7-15.7l-23.9-36.4l5-37l-5-30.1v-50.9L975.5,365.8z"/>
<linearGradient id="SVGID_00000154400276356750125240000005556734104352141456_" gradientUnits="userSpaceOnUse" x1="477.1288" y1="389.9029" x2="547.0662" y2="735.9796" gradientTransform="matrix(1 0 0 -1 0 1212)">
	<stop  offset="0" style="stop-color:#D46500"/>
	<stop  offset="0.1573" style="stop-color:#C55600"/>
	<stop  offset="0.4606" style="stop-color:#AE4000"/>
	<stop  offset="0.7478" style="stop-color:#A13300"/>
	<stop  offset="1" style="stop-color:#9C2E00"/>
</linearGradient>
<path style="fill:url(#SVGID_00000154400276356750125240000005556734104352141456_);" d="M827.1,711.7l-0.2-16.1
	c2.1-1.9,5.9-5.4,7.5-7.4c2.4-2.8,4.7-11.5,5.2-15.1c0.5-3.5,2.1-9.9,0-9.6c-2.1,0.2-3.1,12.7-6.1,19.1c-1.8,3.7-4.6,6.3-6.7,7.8
	l-0.2-12.3c0,0,2.2-30.1-1.9-30.1c-3.3,0-3.3,18.8-3.2,32.4c-2-2.2-4.7-5.4-6.2-8.4c-2.8-5.4-3.3-11.8-5.2-11.8
	c-1.9,0-0.9,5.9,0,9.6c0.8,3,8.4,13.2,11.5,17.2c0,0.5,0,1,0,1.4v22.8c0,3.5-2.9,6.3-6.3,6.2l-21.6-0.4c0,0-70.6-22.3-103.3-21
	c-32.7,1.3-162.2-46.5-162.2-46.5l-49-110.5l-49-22.6h-64.1L351,537.6v-67.8c0,0-2.5-26.4-12.6-32.7c-10-6.3-67.9-46.5-76.7-49
	c-8.8-2.5-32.7,0-32.7,0l-40.2,56.5v63.9l-37.7,15.2l-16.3,22.6l-7.5,49l-26.4,47.7c0,0-36.4,31.4-46.5,36.4C44.4,684.6,0,703,0,703
	v85.9h911.4l87.3-67.8l-165.6-3.3C829.8,717.7,827.1,715,827.1,711.7z"/>
<path class="st13" d="M351,537.7l7.2,46.8l20.7,15.4l7.5,71.6l8.5,17.9l5.7,27.6v-53.1l-6.6-83.1l6.6-43.2l29.5-21.4h-64.1
	L351,537.7z"/>
<path class="st13" d="M188.9,508.6l27.7,7.7l13.8,18.8l5.9,101.7l23,120l30.2,18.3c0,0-8.8-46.6-10.7-58.2
	c-1.9-11.6-5.6-57.1-6.3-77.1c-0.7-20-2.5-89-5-105.4c-2.5-16.3-25.8-54.6-28.3-66.6c-2.5-11.9-5-57.1-5-57.1l-5-22.6l-40.2,56.5
	L188.9,508.6L188.9,508.6z"/>
<path class="st10" d="M272.9,447.2c4.2,8.5,16.5,19.3,16.5,19.3l5.7,38.6l11.3,11.2l-3.8-55l-3.4-50.4c-16.6-11-33-21.5-37.4-22.8
	l6.9,29.8C268.7,418,268.7,438.8,272.9,447.2z"/>
<path class="st13" d="M134.9,546.5l-7.5,49l-26.4,47.7c0,0-36.4,31.4-46.5,36.4C44.4,684.6,0,703,0,703v47l215.9-8.8l-46.5-72.9
	c0,0-8.8-46.5-11.3-57.1c-2.5-10.7-12.6-53.4-12.6-53.4l5.7-33.9L134.9,546.5z"/>
<path class="st10" d="M431.4,516.9l40.4,26l12.7,51.8l38.2,61.2c0,0,25.9,24,36.3,30.1c10.4,6.1,76.3,19.8,76.3,19.8
	s33.9-6.6,47.6-6.6c13.6,0,50.5,2,50.7,2c-16-3.3-31.9-5.7-43.3-5.3c-32.7,1.3-162.2-46.5-162.2-46.5l-49-110.5L431.4,516.9z"/>
<linearGradient id="SVGID_00000103267537918711605370000014503278180829554335_" gradientUnits="userSpaceOnUse" x1="1016.3136" y1="-4.4339" x2="703.2417" y2="555.3663" gradientTransform="matrix(1 0 0 -1 0 1212)">
	<stop  offset="0" style="stop-color:#BA4B00"/>
	<stop  offset="1" style="stop-color:#822600"/>
</linearGradient>
<path style="fill:url(#SVGID_00000103267537918711605370000014503278180829554335_);" d="M1400.3,469.9l-33.9-38.9
	c0,0-11.3-26.4-18.8-45.2c-6.3-55.3-7.5-71.6-7.5-71.6l-10-13.8v-21.3l-54-12.6l-65.3,23.9l-21.4,95.5l-15.1,59
	c0,0-45.2,15.1-47.7,33.9c-1.3,9.6-7.8,43.4-13.9,74.2c-7,35.5-29.7,66-61.7,83c-57.8,30.7-149.8,80-189.6,104
	c-50.8,30.7-186.6,15-255,16.8c2.8-9.5,7.6-26.6,5.1-27.1c-2.5-0.5-6.7,17.8-8.7,27.2c-0.2,0-0.4,0-0.5,0c0.1-7.6,0.1-32-2.8-31.7
	c-2,0.2-1.7,11-1.1,20.4c-2.1-9.1-4.9-19.3-6.7-18.8c-2.5,0.7,2.5,18.4,5.2,27.7c-7.6-6-16.9-12.8-18-11.1
	c-1.1,1.6,7.6,8.4,15.3,13.9c-7.3,0.5-13.5,1.4-18.1,2.7c-45,12.6-224.7,2.5-282.5,8.8c-57.8,6.3-290.4,58.3-290.4,58.3l0.1,75.6
	l1437.1,4.8l-1-353.9L1400.3,469.9z"/>
<path class="st13" d="M1174.1,444.7c0,0,25.8,8.5,30.5,18.8c4.7,10.4,9.4,60.3,9.4,60.3l17.9,60.6l21.7,132.5h-62.2l-8.5-113.1
	c0,0-1-17.9,5.7-39.6c6.6-21.7,2.8-36.7,2.8-36.7l-17.3-25.4V444.7z"/>
<path class="st10" d="M1076.1,643.8l12.3-6.8c11.8-6.5,20.5-17.6,23.8-30.7c4.9-18.8,11.6-45.1,13.5-53.6
	c3.1-13.8,6.9-69.7,6.9-69.7l7.2-21.6c-7.1,5-12.7,10.9-13.5,17.2c-1.3,9.6-7.8,43.4-13.9,74.2c-7,35.5-29.6,66-61.7,83
	c-36,19.1-85.1,45.4-126.7,68.3L1076.1,643.8z"/>
<path class="st10" d="M1213.9,393.4c-0.5-20.7,6.8-96.7,6.8-96.7l26.2-19.5l-36.2,13.2l-21.3,95.5l-15.1,59l20.9,9.6
	C1195,454.5,1214.4,414.1,1213.9,393.4z"/>
<path class="st13" d="M1440.6,548.1l-40.3-78.2l-33.9-38.9c0,0-11.3-26.4-18.8-45.2c-6.3-55.3-7.5-71.6-7.5-71.6l-10-13.8v-21.3
	l-54-12.6v58.7l5,21.7l7.1,28.7l19.3,57.5l2.8,44.3l-4.7-27.8l-12.3-30.6l-17.3-4.2c0,0-8.2,10.4-11,23.6c-2.8,13.2,0,123.4,0,123.4
	l28.3,138.5l5.7,50.9h83.9h60.3V557.8L1440.6,548.1z"/>
<path class="st10" d="M1271.4,416.6l-27.1,11.4c-5.5,2.3-9.6,7.1-11,12.8l-10.9,43.5l3.1,22.2l12-23.9l6.3-45.8L1271.4,416.6z"/>
<path class="st16" d="M690.3,758.4c0.4,0.1,88.2,18,125.4,28.3c37.3,10.4,113.6,0,145.7,0c32,0,84.8,13.2,84.8,13.2l47.1-49
	c0,0-128.2,1.9-177.2,0c-49-1.9-100.4,3.4-100.4,3.4C779.5,760.1,733.2,759.6,690.3,758.4z"/>
<linearGradient id="SVGID_00000073696581251591950370000004127037377705607331_" gradientUnits="userSpaceOnUse" x1="720" y1="-66.3" x2="720" y2="459.693" gradientTransform="matrix(1 0 0 -1 0 1212)">
	<stop  offset="0.4246" style="stop-color:#BA4B00"/>
	<stop  offset="0.8416" style="stop-color:#631D00"/>
</linearGradient>
<path style="fill:url(#SVGID_00000073696581251591950370000004127037377705607331_);" d="M1440,715.5c0,0-170.4-20.6-213.1-11.3
	c-42.7,9.4-133.5,34.5-133.5,34.5s-26.2,7.5-52.3,16.3c-3,1-6.1-1.2-6-4.3c0-10,0-19.6-0.2-24.6c-0.1-2.1-0.2-5.3-0.2-9.4
	c6.1-6.6,20.9-23.2,23.9-32.3c3.8-11.5,9.9-55.9,10.4-65.8c0.5-9.9-8-16-9,0c-0.9,16-9.4,49-12.7,59.4c-2,6.2-8.2,12.9-12.8,17.3
	c-0.2-22.2-0.1-49.8,0.3-64.1c0.6-23.2,0-47.1-14.5-46.8c-8.7,0.2-9,24.1-7.9,49.3c-2-1.7-6.3-4.1-10.8-7.4c0-13.4-0.4-60-5.6-64
	c-5.3-4.1-2.6,45.2-1.8,57.8c-0.5-0.5-0.9-1-1.4-1.5c-6.3-7.2-9.5-35.4-15.6-35.9c-6.1-0.5-4,15.3-1.7,26.1
	c2.1,9.7,11.4,31.7,37.3,37.8c0.7,11.8,1.6,23.6,2,34.1c1.1,28.8,0.5,61.6,0.2,76c-0.1,4.5-2.8,8.6-7,10.4
	c-5.8,2.5-13.6,6.1-16.1,7.9c-16.8,12.2-46.5,24.7-46.5,24.7s-0.3,10.4-53.5,20.4c-53.3,10-91.5,22.6-91.5,22.6s-137.8,0-161,0
	c-23.2,0-127.5-13.8-131.3-13.8c-3.8,0-104.3-23.2-131.9-29.2c-13.4-2.9-46.5-18-81.1-33.7c-2.6-1.2-4.3-3.7-4.3-6.6
	c0-12.8-0.1-32.2-0.1-53.4c0-4.8,4.2-8.3,9-7.7c12.6,1.7,28.9-1.9,30.3-15.1c0.5-4.4,0.3-20.8-0.4-39.8c0,0,20.2-6.5,19.7-35.3
	c-0.5-28.7-4.2-29.7-7.5-28.3c-3.3,1.4,2.4,27.8-2.3,34.9c-0.4,0.6-0.9,1.2-1.4,1.8c-3.2,3.9-9.6,1.8-9.9-3.3
	c-1.3-23.3-3.2-43.8-5.3-45.7c-4.7-4.2-8,2.8-7.1,19.3c0.9,16.5,1.9,89.5-3.8,94.2c-3,2.5-7.5,0.4-7.5-3.5
	c-0.1-15.5-0.7-42.7-3.8-42.5c-3.2,0.2-2.6,27.9-2,43.2c0.1,2.5-2.1,4.5-4.6,4.1l-0.1,0c-1.9-0.3-3.4-2-3.4-4
	c0-35.1,0-69.3,0.2-82.5c0.5-31.1-4.7-71.6-15.1-71.1s-4.7,58.9-3.3,114.9c0.1,4.8,0.2,9.7,0.4,14.6c0.1,3.5-2.2,6.7-5.7,7.6
	c-1.4,0.3-2.8,0.6-4.2,0.8c-0.6-17.3-0.8-162.7-5.5-162.4c-4.7,0.3-4,143.8-3.1,161.9c-1.9-0.7-3.4-1.8-4.5-3.6
	c-5.7-9.9,1.9-117.3-7.5-117.3c-9.4,0-7.1,118.2-3.3,126.2c3.1,6.5,15.8,6.2,26.9,5.6c4.1-0.2,7.5,3,7.6,7
	c0.6,24.3,1.3,47.4,1.7,63.1c0.2,6.5-6.4,10.9-12.4,8.3c-25.2-11.1-48.2-20.4-61.4-23.1c-2.8-0.6-6-1.2-9.5-1.9
	c6-4.3,18.7-13.3,19.4-14.8c0.9-1.9-8.5,2.8-11.8,3.8c-3.3,0.9-16,7.5-16,6.1c0-1.4,9-9.4,10.4-10.8c1.4-1.4,12.7-11.8,12.7-13.7
	c0-1.9-9.9,3.8-18.4,10.4c-8.5,6.6-10.4,5.7-10.4,5.7l-2.4-4.6c0,0,5.7-16.1,7.5-19.4c1.9-3.3,8.5-18.8,8.5-18.8l-16.5,19.8
	c0,0-10.4,20.3-13.5,18.4c-3.2-1.9,0.3-23.1-0.1-24.5c-0.5-1.4,0.5-20.3,0-32.5c-0.5-12.2-3.8-25-3.8-25s-6.1,23.1-3.6,39.9
	c2.5,16.9-2.5,34.5-2.5,34.5s-6.1-18.8-8.5-27.8s-18.4-27.8-18.4-27.8s5.2,25,9.4,34.9c4.2,9.9,8,20.3,8,20.3s-17.4-20.3-19.8-25
	c-2.4-4.7-18.4-10.4-18.4-10.4l8.5,8c0,0,4.7,7.1,7.5,12.7c2.8,5.7,14.1,19.8,14.1,19.8l-3.3-2.8c0,0-16-7.5-18.8-12.2
	c-2.8-4.7-15.6-4.2-15.6-4.2l5.2,3.8c0,0,8,10.8,13.2,16c2.8,2.8,7.7,6.2,11.6,8.7c-33.8-5.8-64.4-10.8-64.4-10.8L0,713.9v338h1440
	V715.5z"/>
</svg>
