<svg width="91" height="20" viewBox="0 0 91 20" fill="none" xmlns="http://www.w3.org/2000/svg">
<path d="M6.92606 19.288C5.58206 19.288 4.29406 19.112 3.06206 18.76C1.83006 18.392 0.838063 17.92 0.0860625 17.344L1.40606 14.416C2.12606 14.928 2.97406 15.352 3.95006 15.688C4.94206 16.008 5.94206 16.168 6.95006 16.168C7.71806 16.168 8.33406 16.096 8.79806 15.952C9.27806 15.792 9.63006 15.576 9.85406 15.304C10.0781 15.032 10.1901 14.72 10.1901 14.368C10.1901 13.92 10.0141 13.568 9.66206 13.312C9.31006 13.04 8.84606 12.824 8.27006 12.664C7.69406 12.488 7.05406 12.328 6.35006 12.184C5.66206 12.024 4.96606 11.832 4.26206 11.608C3.57406 11.384 2.94206 11.096 2.36606 10.744C1.79006 10.392 1.31806 9.928 0.950063 9.352C0.598063 8.776 0.422063 8.04 0.422063 7.144C0.422063 6.184 0.678063 5.312 1.19006 4.528C1.71806 3.728 2.50206 3.096 3.54206 2.632C4.59806 2.152 5.91806 1.912 7.50206 1.912C8.55806 1.912 9.59806 2.04 10.6221 2.296C11.6461 2.536 12.5501 2.904 13.3341 3.4L12.1341 6.352C11.3501 5.904 10.5661 5.576 9.78206 5.368C8.99806 5.144 8.23006 5.032 7.47806 5.032C6.72606 5.032 6.11006 5.12 5.63006 5.296C5.15006 5.472 4.80606 5.704 4.59806 5.992C4.39006 6.264 4.28606 6.584 4.28606 6.952C4.28606 7.384 4.46206 7.736 4.81406 8.008C5.16606 8.264 5.63006 8.472 6.20606 8.632C6.78206 8.792 7.41406 8.952 8.10206 9.112C8.80606 9.272 9.50206 9.456 10.1901 9.664C10.8941 9.872 11.5341 10.152 12.1101 10.504C12.6861 10.856 13.1501 11.32 13.5021 11.896C13.8701 12.472 14.0541 13.2 14.0541 14.08C14.0541 15.024 13.7901 15.888 13.2621 16.672C12.7341 17.456 11.9421 18.088 10.8861 18.568C9.84606 19.048 8.52606 19.288 6.92606 19.288ZM21.8948 19.192C20.8228 19.192 19.8628 18.984 19.0148 18.568C18.1828 18.152 17.5348 17.52 17.0708 16.672C16.6068 15.808 16.3748 14.712 16.3748 13.384V6.088H20.1188V12.832C20.1188 13.904 20.3428 14.696 20.7908 15.208C21.2548 15.704 21.9028 15.952 22.7348 15.952C23.3108 15.952 23.8228 15.832 24.2708 15.592C24.7188 15.336 25.0708 14.952 25.3268 14.44C25.5828 13.912 25.7108 13.256 25.7108 12.472V6.088H29.4548V19H25.9028V15.448L26.5508 16.48C26.1188 17.376 25.4788 18.056 24.6308 18.52C23.7988 18.968 22.8868 19.192 21.8948 19.192ZM40.5553 19.192C39.4193 19.192 38.4433 18.952 37.6273 18.472C36.8113 17.992 36.1873 17.264 35.7553 16.288C35.3233 15.296 35.1073 14.048 35.1073 12.544C35.1073 11.024 35.3313 9.776 35.7793 8.8C36.2433 7.824 36.8833 7.096 37.6993 6.616C38.5153 6.136 39.4673 5.896 40.5553 5.896C41.7713 5.896 42.8593 6.168 43.8193 6.712C44.7953 7.256 45.5633 8.024 46.1233 9.016C46.6993 10.008 46.9873 11.184 46.9873 12.544C46.9873 13.888 46.6993 15.056 46.1233 16.048C45.5633 17.04 44.7953 17.816 43.8193 18.376C42.8593 18.92 41.7713 19.192 40.5553 19.192ZM32.9233 19V1.192H36.6673V8.704L36.4273 12.52L36.4993 16.36V19H32.9233ZM39.9073 16.12C40.5313 16.12 41.0833 15.976 41.5633 15.688C42.0593 15.4 42.4513 14.992 42.7393 14.464C43.0433 13.92 43.1953 13.28 43.1953 12.544C43.1953 11.792 43.0433 11.152 42.7393 10.624C42.4513 10.096 42.0593 9.688 41.5633 9.4C41.0833 9.112 40.5313 8.968 39.9073 8.968C39.2833 8.968 38.7233 9.112 38.2273 9.4C37.7313 9.688 37.3393 10.096 37.0513 10.624C36.7633 11.152 36.6193 11.792 36.6193 12.544C36.6193 13.28 36.7633 13.92 37.0513 14.464C37.3393 14.992 37.7313 15.4 38.2273 15.688C38.7233 15.976 39.2833 16.12 39.9073 16.12ZM66.0296 5.896C67.0536 5.896 67.9576 6.104 68.7416 6.52C69.5416 6.92 70.1656 7.544 70.6136 8.392C71.0776 9.224 71.3096 10.296 71.3096 11.608V19H67.5656V12.184C67.5656 11.144 67.3496 10.376 66.9176 9.88C66.4856 9.384 65.8776 9.136 65.0936 9.136C64.5496 9.136 64.0616 9.264 63.6296 9.52C63.1976 9.76 62.8616 10.128 62.6216 10.624C62.3816 11.12 62.2616 11.752 62.2616 12.52V19H58.5176V12.184C58.5176 11.144 58.3016 10.376 57.8696 9.88C57.4536 9.384 56.8536 9.136 56.0696 9.136C55.5256 9.136 55.0376 9.264 54.6056 9.52C54.1736 9.76 53.8376 10.128 53.5976 10.624C53.3576 11.12 53.2376 11.752 53.2376 12.52V19H49.4936V6.088H53.0696V9.616L52.3976 8.584C52.8456 7.704 53.4776 7.04 54.2936 6.592C55.1256 6.128 56.0696 5.896 57.1256 5.896C58.3096 5.896 59.3416 6.2 60.2216 6.808C61.1176 7.4 61.7096 8.312 61.9976 9.544L60.6776 9.184C61.1096 8.176 61.7976 7.376 62.7416 6.784C63.7016 6.192 64.7976 5.896 66.0296 5.896ZM74.6655 19V6.088H78.4095V19H74.6655ZM76.5375 4.288C75.8495 4.288 75.2895 4.088 74.8575 3.688C74.4255 3.288 74.2095 2.792 74.2095 2.2C74.2095 1.608 74.4255 1.112 74.8575 0.711999C75.2895 0.311999 75.8495 0.111999 76.5375 0.111999C77.2255 0.111999 77.7855 0.303999 78.2175 0.688C78.6495 1.056 78.8655 1.536 78.8655 2.128C78.8655 2.752 78.6495 3.272 78.2175 3.688C77.8015 4.088 77.2415 4.288 76.5375 4.288ZM87.1643 19.192C85.6443 19.192 84.4603 18.808 83.6123 18.04C82.7643 17.256 82.3403 16.096 82.3403 14.56V3.232H86.0843V14.512C86.0843 15.056 86.2283 15.48 86.5163 15.784C86.8043 16.072 87.1963 16.216 87.6923 16.216C88.2843 16.216 88.7883 16.056 89.2043 15.736L90.2123 18.376C89.8283 18.648 89.3643 18.856 88.8203 19C88.2923 19.128 87.7403 19.192 87.1643 19.192ZM80.3483 9.256V6.376H89.3003V9.256H80.3483Z" fill="url(#paint0_linear_1131_452)"/>
<defs>
<linearGradient id="paint0_linear_1131_452" x1="-2.5" y1="10.8919" x2="92.5" y2="10.8919" gradientUnits="userSpaceOnUse">
<stop stop-color="#521737"/>
<stop offset="0.148958" stop-color="#732648"/>
<stop offset="0.294792" stop-color="#92373B"/>
<stop offset="0.482292" stop-color="#AD462F"/>
<stop offset="0.675" stop-color="#C15127"/>
<stop offset="0.836458" stop-color="#D55C1E"/>
<stop offset="0.951042" stop-color="#FF730C"/>
<stop offset="1" stop-color="#FFA42E"/>
</linearGradient>
</defs>
</svg>
