<?xml version="1.0" encoding="utf-8"?>
<!-- Generator: Adobe Illustrator 25.4.1, SVG Export Plug-In . SVG Version: 6.00 Build 0)  -->
<svg version="1.1" id="Layer_1" xmlns="http://www.w3.org/2000/svg" xmlns:xlink="http://www.w3.org/1999/xlink" x="0px" y="0px"
	 viewBox="0 0 1440 608.9" style="enable-background:new 0 0 1440 608.9;" xml:space="preserve">
<style type="text/css">
	.st0{fill:#FFC359;}
	.st1{fill:url(#SVGID_1_);}
	.st2{fill:url(#SVGID_00000088849960454462715870000012120524339380801668_);}
</style>
<path class="st0" d="M892.8,364.2c18.8-112.3-57.1-218.5-169.4-237.3S504.7,184,486,296.3c-18.8,112.3,57.1,218.5,169.4,237.3
	C767.8,552.4,874,476.5,892.8,364.2z"/>
<linearGradient id="SVGID_1_" gradientUnits="userSpaceOnUse" x1="720" y1="71.593" x2="720" y2="637.184" gradientTransform="matrix(1 0 0 -1 0 908)">
	<stop  offset="0" style="stop-color:#BA4B00"/>
	<stop  offset="0.998" style="stop-color:#631D00"/>
</linearGradient>
<path class="st1" d="M1440,221.6c0,0-86-12.6-131.9-2.5c-45.9,10.1-143.5,37.1-143.5,37.1s-28.2,8.1-56.3,17.6
	c-3.2,1.1-6.5-1.3-6.5-4.7c0-10.7,0-21-0.2-26.4c-0.1-2.2-0.2-5.7-0.2-10.1c6.5-7.1,22.5-24.9,25.7-34.7
	c4.1-12.3,10.6-60.1,11.1-70.7c0.5-10.6-8.6-17.2-9.6,0c-1,17.2-10.1,52.7-13.7,63.8c-2.1,6.7-8.8,13.9-13.8,18.6
	c-0.2-23.9-0.1-53.5,0.3-68.9c0.7-25,0-50.7-15.5-50.3c-9.4,0.2-9.7,26-8.4,53c-2.1-1.8-6.8-4.5-11.6-8c0-14.4-0.4-64.5-6-68.8
	c-5.7-4.4-2.8,48.6-2,62.1c-0.5-0.5-1-1-1.5-1.6c-6.8-7.7-10.2-38-16.8-38.6s-4.3,16.5-1.8,28.1c2.3,10.5,12.3,34.1,40.1,40.7
	c0.8,12.6,1.7,25.4,2.1,36.7c1.2,31,0.6,66.3,0.2,81.8c-0.1,4.9-3,9.2-7.5,11.2c-6.2,2.7-14.6,6.5-17.3,8.5
	c-18,13.1-50,26.6-50,26.6s-0.3,11.1-57.5,21.9c-57.3,10.8-98.4,24.3-98.4,24.3s-148.2,0-173.1,0c-24.9,0-137.1-14.9-141.1-14.9
	c-4.1,0-112.1-25-141.9-31.4c-14.4-3.1-50-19.4-87.1-36.2c-2.8-1.3-4.6-4-4.6-7.1c0-13.7-0.1-34.6-0.1-57.5c0-5.1,4.5-9,9.6-8.3
	c13.6,1.9,31.1-2,32.6-16.2c0.5-4.8,0.3-22.3-0.4-42.8c0,0,21.7-7,21.2-37.9c-0.5-30.9-4.6-31.9-8.1-30.4
	c-3.5,1.5,2.6,29.9-2.5,37.5c-0.4,0.7-1,1.3-1.5,2c-3.5,4.2-10.3,1.9-10.6-3.5c-1.4-25.1-3.4-47.1-5.7-49.1c-5.1-4.6-8.6,3-7.6,20.8
	c1,17.7,2,96.2-4.1,101.3c-3.2,2.7-8.1,0.4-8.1-3.8c-0.1-16.7-0.7-45.9-4.1-45.7c-3.4,0.2-2.8,30-2.1,46.4c0.1,2.7-2.3,4.8-5,4.4
	l-0.1,0c-2.1-0.3-3.6-2.1-3.6-4.3c0-37.7,0-74.5,0.2-88.7c0.5-33.4-5.1-77-16.2-76.5s-5.1,63.3-3.5,123.6c0.1,5.1,0.3,10.4,0.4,15.7
	c0.1,3.8-2.4,7.2-6.1,8.1c-1.5,0.4-3,0.7-4.6,0.9C271.1,156,270.9-0.3,265.9,0c-5,0.3-4.3,154.6-3.3,174.1c-2-0.7-3.7-1.9-4.8-3.9
	c-6.1-10.6,2-126.1-8.1-126.1c-10.1,0-7.6,127.1-3.5,135.7c3.3,7,17,6.7,28.9,6c4.4-0.2,8,3.2,8.2,7.5c0.7,26.1,1.4,50.9,1.8,67.9
	c0.2,6.9-6.9,11.7-13.3,8.9c-27.1-11.9-51.8-21.9-66-24.9c-3-0.6-6.4-1.3-10.2-2c6.5-4.6,20.1-14.3,20.8-15.9c1-2-9.1,3-12.7,4.1
	c-3.5,1-17.2,8.1-17.2,6.6c0-1.5,9.6-10.1,11.1-11.6c1.5-1.5,13.7-12.7,13.7-14.7s-10.6,4.1-19.8,11.1c-9.1,7.1-11.1,6.1-11.1,6.1
	l-2.5-4.9c0,0,6.1-17.4,8.1-20.9c2-3.5,9.1-20.3,9.1-20.3l-17.7,21.3c0,0-11.1,21.8-14.6,19.8c-3.4-2,0.4-24.8-0.1-26.3
	c-0.5-1.5,0.5-21.8,0-34.9c-0.5-13.2-4.1-26.8-4.1-26.8s-6.6,24.8-3.9,43c2.7,18.1-2.7,37.1-2.7,37.1s-6.6-20.3-9.1-29.9
	c-2.5-9.6-19.8-29.9-19.8-29.9s5.6,26.8,10.1,37.5c4.6,10.6,8.6,21.8,8.6,21.8s-18.7-21.8-21.3-26.8c-2.5-5.1-19.8-11.1-19.8-11.1
	l9.1,8.6c0,0,5.1,7.6,8.1,13.7c3,6.1,15.2,21.3,15.2,21.3l-3.5-3c0,0-17.2-8.1-20.3-13.2c-3-5.1-16.7-4.6-16.7-4.6l5.6,4.1
	c0,0,8.6,11.7,14.2,17.2c3,3,8.3,6.7,12.5,9.3C88.7,224.4,55.8,219,55.8,219L0,209.6v318.2L1440,593V221.6z"/>
<linearGradient id="SVGID_00000140713505332768580450000016369188319954514619_" gradientUnits="userSpaceOnUse" x1="720" y1="404.9577" x2="720" y2="491.6798" gradientTransform="matrix(1 0 0 -1 0 908)">
	<stop  offset="0" style="stop-color:#BA4B00"/>
	<stop  offset="0.998" style="stop-color:#631D00"/>
</linearGradient>
<path style="fill:url(#SVGID_00000140713505332768580450000016369188319954514619_);" d="M1440,480.6c0,0-132.4-18.6-292.2-35.4
	c-159.8-16.8-218.9-0.4-320.6-16.8c-101.7-16.4-167.6-60.4-283.4-63.2c-115.8-2.8-125,60.3-275.5,21.7C117.8,348.3,0,352.4,0,352.4
	v256.5h1440V480.6z"/>
</svg>
