<svg xmlns="http://www.w3.org/2000/svg" xmlns:xlink="http://www.w3.org/1999/xlink" viewBox="0 0 1921 979.95"><defs><style>.cls-1{fill:none;stroke:#fff;stroke-miterlimit:10;}.cls-2{fill:url(#linear-gradient);}.cls-3,.cls-4{fill:#ffc359;}.cls-3,.cls-4,.cls-5,.cls-6{isolation:isolate;}.cls-3{opacity:0.07;}.cls-4{opacity:0.09;}.cls-5,.cls-6{fill:#422416;}.cls-5{opacity:0.22;}.cls-6{opacity:0.26;}</style><linearGradient id="linear-gradient" x1="458.86" y1="3186.33" x2="312.28" y2="3593.47" gradientTransform="matrix(1, 0, 0, -1, 662.36, 3917.34)" gradientUnits="userSpaceOnUse"><stop offset="0" stop-color="#f58000"/><stop offset="1" stop-color="#b54b00"/></linearGradient></defs><g id="Layer_2" data-name="Layer 2"><g id="Layer_1-2" data-name="Layer 1"><rect class="cls-1" x="0.5" y="568.35" width="1920" height="411.1"/><path class="cls-2" d="M643.49,403.33l32.36-86.63,65.57-22.43,53.89,8.61s13.2,48.31,23.66,55.2L844,367.57s13.22,38.82,27.8,50.9,92.2,0,92.2,0l51.39-110.41,29.92-169,9.21-63.84,113.12-44.56,36.24,18.68,24.15-36.17s37.1-14.7,50-13,59.54,10.35,59.54,10.35,38,48.31,50.91,60.37l6.92,22.67,34.5,19.58,12.94,125,168.26,339-1082,24.14Z"/><path class="cls-3" d="M635,450.58,701.29,331l35-20.29,59.07-7.76-53.89-8.64L675.85,316.7l-32.36,86.63-41.86,72.51Z"/><path class="cls-4" d="M857.9,434.88h24.15l82-16.38s-77.63,12.08-92.21,0S844,367.6,844,367.6l-25.06-9.5,16.52,17Z"/><path class="cls-3" d="M1045.34,139l-29.92,169L964,418.5l-61.24,79.12,70.69,15.32s42.35-52.19,50.11-70.3S1046,344.31,1046,344.31l17.26-77.62-13.79,11.2-19,39.67,8.62-50.9,31.06-88.83,11.21-102.65,86.28-44.56L1054.58,75.18Z"/><path class="cls-5" d="M1167.67,30.62s.44,41.33,0,53.62-3,56.28-3,56.28l-7.77,53,5.49,44.56,8.75-56.85L1198.3,68.06l5.61-18.75Z"/><path class="cls-3" d="M1162.37,238.12l-5.49,67.35-24.59,85.39-88.87,126.79,72.48,14.67,31.92-135.84,32.56-99.62,3.68-100.92L1219.44,51,1235,20.84l39.63-15.52,63,5.17S1291,1.88,1278.1.14s-50,13-50,13l-24.15,36.18-32.79,132Z"/><path class="cls-6" d="M1305.72,30.62l-46.59,158.44,34.53,184.57-12.45,210.91,330-7.35L1442.91,238.12l-12.94-125-34.5-19.59,19.85,150.7-44.89-21.55-32.77-50,6.89-50.87-6.89-41.4V10.52Z"/></g></g></svg>