<svg xmlns="http://www.w3.org/2000/svg" xmlns:xlink="http://www.w3.org/1999/xlink" viewBox="0 0 1921.67 975.52"><defs><style>.cls-1{fill:url(#linear-gradient);}.cls-2{fill:#422416;opacity:0.33;}.cls-2,.cls-3{isolation:isolate;}.cls-3{fill:#ffc359;opacity:0.16;}.cls-4{fill:#f67800;}</style><linearGradient id="linear-gradient" x1="164.66" y1="3302.66" x2="164.66" y2="3625.55" gradientTransform="matrix(1, 0, 0, -1, 662.36, 3909.65)" gradientUnits="userSpaceOnUse"><stop offset="0" stop-color="#f59d00"/><stop offset="1" stop-color="#f56600"/></linearGradient></defs><g id="Layer_2" data-name="Layer 2"><g id="Layer_1-2" data-name="Layer 1"><path class="cls-1" d="M1.67,0H84.48l29.81,23.22,6.64,77.17,29.82,17.16,49.69,48.61v52.75h44.72l100.21,52.66L611.23,293.1l76.2-34.77,29.82,7.8,36.45,114.1h40.1l50.89-51.93,16.67-46.8,23.18-10,18.22,27.72s3.18,40.21,11.52,55.11S936,380.23,936,380.23h25.59L974,323.53l24.22-95.2,96.71-38.2,8.27,76,57.47,66.81,200.91,9.34L1461,166.18l23.18-80.05,44.31-34.77L1567,68.1l33.1,150.84,54,135.43-69.38,264.49H0Z"/><path class="cls-2" d="M142.79,217.55l8-100-29.82-17.16,7.4,72.4Z"/><path class="cls-3" d="M884.54,271.49l-18.21,77.07L793.8,380.23l50.89-51.93,16.67-46.8Z"/><path class="cls-3" d="M961.57,380.23l71.58-165.71-34.93,13.81Z"/><rect class="cls-4" x="1.67" y="428.23" width="1920" height="547.29"/></g></g></svg>