<svg xmlns="http://www.w3.org/2000/svg" xmlns:xlink="http://www.w3.org/1999/xlink" viewBox="0 0 1921.05 901.65"><defs><style>.cls-1{fill:none;stroke:#fff;stroke-miterlimit:10;}.cls-2{fill:url(#linear-gradient);}.cls-3{fill:#422416;opacity:0.26;}.cls-3,.cls-4{isolation:isolate;}.cls-4{fill:#ffc359;opacity:0.07;}</style><linearGradient id="linear-gradient" x1="-40.74" y1="3199.89" x2="49.72" y2="3647.56" gradientTransform="matrix(1, 0, 0, -1, 662.36, 3760.74)" gradientUnits="userSpaceOnUse"><stop offset="0" stop-color="#d46500"/><stop offset="0.16" stop-color="#c55600"/><stop offset="0.46" stop-color="#ae4000"/><stop offset="0.75" stop-color="#a13300"/><stop offset="1" stop-color="#9c2e00"/></linearGradient></defs><g id="Layer_2" data-name="Layer 2"><g id="Layer_1-2" data-name="Layer 1"><rect class="cls-1" x="1.1" y="430.91" width="1919.45" height="470.24"/><path class="cls-2" d="M1079.79,417.66l-.3-20.68a132.69,132.69,0,0,0,9.68-9.55c3-3.64,6.06-14.84,6.67-19.4s2.72-12.72,0-12.41-3.93,16.36-7.88,24.53a28.24,28.24,0,0,1-8.56,10.09l-.22-15.86s2.84-38.78-2.43-38.78c-4.29,0-4.26,24.24-4.12,41.72a55.13,55.13,0,0,1-8-10.81c-3.64-7-4.25-15.15-6.67-15.15s-1.21,7.56,0,12.41c1,3.87,10.82,17,14.74,22.13v31.15a8,8,0,0,1-8.14,8l-27.82-.55s-90.82-28.7-132.92-27.08-208.63-59.8-208.63-59.8L632.14,195.36l-63-29.09H486.64l-19.4,27.47V106.47s-3.23-33.94-16.18-42-87.3-59.8-98.62-63-42,0-42,0L258.68,74.18v82.23L210.18,176l-21,29.09-9.71,63-33.95,61.4s-46.87,40.41-59.82,46.86S0,408,0,408V517H1188.28l112.36-87.27-213.05-4.21A8,8,0,0,1,1079.79,417.66Z"/><path class="cls-3" d="M467.26,193.81,476.55,254l26.68,19.78,9.7,92.11,10.91,23,7.27,35.57V356.23l-8.48-106.86,8.48-55.56,38-27.49H486.66Z"/><path class="cls-3" d="M258.71,156.46l35.57,9.89,17.78,24.24,7.59,130.85,29.58,154.37L388,499.4s-11.32-59.93-13.74-74.88S367,351,366.21,325.32,363,210.78,359.73,189.76s-33.15-70.3-36.37-85.64-6.48-73.52-6.48-73.52L310.41,1.51,258.68,74.25v82.21Z"/><path class="cls-4" d="M366.82,77.45C372.27,88.36,388,102.3,388,102.3l7.28,49.7,14.55,14.35L405,95.63l-4.44-64.84C379.16,16.58,358.08,3.11,352.48,1.51l8.9,38.37S361.36,66.55,366.82,77.45Z"/><path class="cls-3" d="M189.18,205.11l-9.7,63-33.95,61.4S98.65,370,85.7,376.4,0,408,0,408v59.58l293.44-12-59.83-93.74S222.31,302,219.08,288.3s-16.17-68.67-16.17-68.67L210.18,176Z"/><path class="cls-4" d="M570.69,167.05l52,33.4,16.37,66.67,49.11,78.78s33.35,30.91,46.68,38.79,98.22,25.45,98.22,25.45,43.65-8.48,61.23-8.48,65,2.57,65.21,2.57c-20.54-4.29-41-7.37-55.65-6.82-42.1,1.63-208.63-59.8-208.63-59.8L632.17,195.39Z"/></g></g></svg>