<svg xmlns="http://www.w3.org/2000/svg" xmlns:xlink="http://www.w3.org/1999/xlink" viewBox="0 0 1922.56 1075.44"><defs><style>.cls-1{fill:url(#linear-gradient);}.cls-2{fill:#422416;opacity:0.26;}.cls-2,.cls-3,.cls-4{isolation:isolate;}.cls-3{fill:#ffc359;opacity:0.07;}.cls-4{opacity:0.11;}.cls-5{fill:none;stroke:#fff;stroke-miterlimit:10;}</style><linearGradient id="linear-gradient" x1="688.24" y1="2848.03" x2="267.23" y2="3600.84" gradientTransform="matrix(1, 0, 0, -1, 662.36, 4108.31)" gradientUnits="userSpaceOnUse"><stop offset="0" stop-color="#ba4b00"/><stop offset="1" stop-color="#822600"/></linearGradient></defs><g id="Layer_2" data-name="Layer 2"><g id="Layer_1-2" data-name="Layer 1"><path class="cls-1" d="M1865.91,269.79l-45-51.64s-15-35-25-60c-8.33-73.27-10-94.92-10-94.92L1772.63,45V16.66L1701,0l-86.64,31.65L1586,158.23l-20,78.26s-60,20-63.29,45c-1.7,12.74-10.35,57.57-18.39,98.42a159.54,159.54,0,0,1-81.75,110c-76.65,40.67-198.57,106-251.4,137.91-67.35,40.67-247.36,19.94-338.15,22.31,3.78-12.59,10.05-35.25,6.8-35.9s-8.92,23.66-11.49,36c-.25,0-.48,0-.73,0,.1-10,.1-42.42-3.77-42.05-2.6.23-2.25,14.62-1.48,27.06-2.77-12.12-6.44-25.61-8.89-24.88-3.25,1,3.25,24.45,6.87,36.72-10.05-7.95-22.34-16.94-23.84-14.72s10.07,11.15,20.24,18.47c-9.7.7-17.84,1.82-24,3.57-59.68,16.66-297.91,3.32-374.55,11.66S1.28,729.09,1.28,729.09L0,843.51H1922.56V379.7Z"/><path class="cls-2" d="M1566,236.49s34.16,11.24,40.41,25,12.5,79.94,12.5,79.94l23.73,80.36,28.75,175.69H1589l-11.24-149.89s-1.26-23.73,7.49-52.45S1589,346.4,1589,346.4L1566,312.68Z"/><path class="cls-3" d="M1436.09,500.46l16.26-9A65,65,0,0,0,1484,450.77c6.46-25,15.38-59.78,18-71.07,4.17-18.31,9.16-92.42,9.16-92.42l9.58-28.58c-9.36,6.67-16.79,14.41-17.89,22.76-1.7,12.74-10.35,57.57-18.4,98.42a159.47,159.47,0,0,1-81.74,110c-47.67,25.3-112.85,60.12-168,90.55Z"/><path class="cls-3" d="M1618.84,168.39c-.63-27.47,8.94-128.22,8.94-128.22l34.74-25.88-48.06,17.56-28.31,126.58-20,78.26,27.66,12.71S1619.46,195.87,1618.84,168.39Z"/><path class="cls-2" d="M1919.37,373.53l-53.46-103.74-45-51.64s-15-35-25-60c-8.33-73.27-10-94.92-10-94.92L1772.63,45V16.66L1701,0V77.86l6.67,28.73,9.37,38.1,25.62,76.19,3.75,58.7-6.24-36.84-16.26-40.6L1701,196.52s-10.82,13.74-14.57,31.23,0,163.62,0,163.62L1723.89,575l7.51,67.45h191.16v-256Z"/><path class="cls-3" d="M1695,199.12l-35.93,15.11a25.07,25.07,0,0,0-14.59,17L1630,288.9l4.1,29.4L1650,286.55l8.31-60.78Z"/><path class="cls-4" d="M924.69,652.31c.57.13,116.88,23.86,166.21,37.58s150.66,0,193.14,0,112.46,17.48,112.46,17.48l62.47-65s-169.93,2.5-234.9,0-133.17,4.52-133.17,4.52C1042.89,654.64,981.54,654,924.69,652.31Z"/><rect class="cls-5" x="1.28" y="846.42" width="1920" height="228.52"/></g></g></svg>