<svg xmlns="http://www.w3.org/2000/svg" xmlns:xlink="http://www.w3.org/1999/xlink" viewBox="0 0 1921 739.49"><defs><style>.cls-1{fill:url(#linear-gradient);}.cls-2{fill:none;stroke:#fff;stroke-miterlimit:10;}.cls-3{fill:url(#linear-gradient-2);}</style><linearGradient id="linear-gradient" x1="298.14" y1="2431.41" x2="298.14" y2="3111.01" gradientTransform="matrix(1, 0, 0, -1, 662.36, 3436.41)" gradientUnits="userSpaceOnUse"><stop offset="0" stop-color="#ba4b00"/><stop offset="1" stop-color="#631d00"/></linearGradient><linearGradient id="linear-gradient-2" x1="30.64" y1="2600.59" x2="30.64" y2="2835" xlink:href="#linear-gradient"/></defs><g id="Layer_2" data-name="Layer 2"><g id="Layer_1-2" data-name="Layer 1"><path class="cls-1" d="M1920.5,292s-258.76-40.79-314-28.71S1434,307.79,1434,307.79s-33.85,9.73-67.63,21.1a5.89,5.89,0,0,1-7.79-5.6c0-12.9,0-25.26-.27-31.72-.1-2.7-.19-6.86-.27-12.1,7.84-8.47,27.06-29.94,30.93-41.67,4.87-14.81,12.79-72.23,13.4-85s-10.35-20.7-11.58,0-12.17,63.29-16.43,76.68c-2.56,8-10.57,16.7-16.58,22.35-.21-28.68-.15-64.34.36-82.82.8-30,0-60.86-18.68-60.45-11.28.25-11.61,31.19-10.15,63.69-2.54-2.17-8.12-5.36-14-9.57,0-17.33-.49-77.46-7.18-82.65-6.85-5.31-3.36,58.45-2.37,74.64-.6-.61-1.19-1.24-1.75-1.9-8.13-9.25-12.27-45.72-20.19-46.33s-5.19,19.82-2.14,33.74c2.75,12.57,14.73,41,48.17,48.89.95,15.19,2,30.55,2.55,44,1.44,37.27.72,79.63.28,98.25a15.07,15.07,0,0,1-9,13.42c-7.48,3.26-17.52,7.83-20.75,10.2-21.66,15.7-60.09,31.91-60.09,31.91s-.34,13.39-69.16,26.37-118.21,29.21-118.21,29.21h-208c-30,0-164.72-17.84-169.6-17.84s-134.75-30-170.47-37.74c-17.37-3.75-60-23.3-104.72-43.55a9.32,9.32,0,0,1-5.51-8.47c-.05-16.51-.12-41.63-.17-69a10.1,10.1,0,0,1,11.57-9.94c16.29,2.24,37.38-2.41,39.16-19.47.59-5.72.34-26.83-.53-51.47,0,0,26.1-8.44,25.49-45.57S467.23,101,463,102.86s3.12,35.9-3,45c-.54.81-1.15,1.61-1.76,2.36A7.22,7.22,0,0,1,445.46,146c-1.7-30.11-4.11-56.57-6.82-59-6.09-5.48-10.35,3.65-9.13,25s2.44,115.64-4.87,121.73a5.94,5.94,0,0,1-9.72-4.56c-.1-20.08-.85-55.18-4.89-54.89s-3.34,36-2.58,55.77a5.15,5.15,0,0,1-6,5.26l-.09,0a5.18,5.18,0,0,1-4.34-5.11c0-45.3,0-89.56.25-106.63.6-40.16-6.09-92.5-19.49-91.9s-6.09,76.08-4.26,148.5c.15,6.19.32,12.52.49,18.87a9.76,9.76,0,0,1-7.33,9.76c-1.78.44-3.63.81-5.48,1.08C360.37,187.45,360.15-.36,354.06,0s-5.16,185.75-3.94,209.19a10.4,10.4,0,0,1-5.8-4.7C337,191.71,346.76,53,334.58,53s-9.13,152.76-4.26,163.11c3.94,8.37,20.45,8,34.75,7.25a9.31,9.31,0,0,1,9.81,9.06c.83,31.38,1.64,61.2,2.2,81.58a11.38,11.38,0,0,1-16,10.71c-32.56-14.32-62.22-26.37-79.27-29.9-3.61-.75-7.72-1.56-12.25-2.43,7.79-5.53,24.11-17.24,25-19.09,1.22-2.43-11,3.65-15.22,4.87s-20.7,9.74-20.7,7.91,11.57-12.17,13.4-14,16.44-15.21,16.44-17.65-12.79,4.87-23.75,13.39-13.39,7.31-13.39,7.31l-3-5.92s7.31-20.86,9.74-25.12,11-24.35,11-24.35l-21.31,25.57S234.34,271.42,230.25,269s.43-29.82-.17-31.65.6-26.17,0-42-4.87-32.26-4.87-32.26-7.92,29.83-4.68,51.61-3.24,44.55-3.24,44.55-7.91-24.34-11-35.9-23.74-35.91-23.74-35.91,6.69,32.25,12.17,45,10.35,26.17,10.35,26.17-22.52-26.17-25.57-32.26S155.8,213,155.8,213l11,10.35a187.45,187.45,0,0,1,9.74,16.43c3.65,7.3,18.26,25.56,18.26,25.56l-4.26-3.65s-20.7-9.74-24.35-15.82-20.09-5.48-20.09-5.48l6.69,4.87s10.35,14,17.05,20.69c3.65,3.65,10,8,15,11.22-43.65-7.47-83.22-14-83.22-14L.5,279.05V712.54h1920Z"/><polygon class="cls-2" points="1920.5 738.9 0.5 738.99 0.5 712.54 1920.5 712.54 1920.5 738.9"/><path class="cls-3" d="M1385.51,609.47s-141.93-26.7-282.9-46.72-193.07-.5-282.81-20S672,471,569.84,467.67s-110.24,71.66-243,25.82-325.76-64-325.76-64L.5,738.9l1376.67-7.7Z"/></g></g></svg>