<svg xmlns="http://www.w3.org/2000/svg" viewBox="0 0 1920.89 875.82"><defs><style>.cls-1{fill:#451400;}</style></defs><g id="Layer_2" data-name="Layer 2"><g id="Layer_1-2" data-name="Layer 1"><path class="cls-1" d="M1675.66,717.49c1.23-40.46,3.69-114.6,7.15-179,18.79-4.87,72.68-21.16,86.1-50.78,16.35-36,22.72-141.21,21.27-162.51S1793.75,128,1792,110.27,1796.45-.79,1780.83,0s-20.1,64.25-23.8,130.89-9.4,187.91-12.89,228.07-3.84,91.51-14.42,104.33a31.55,31.55,0,0,1-8.52,6.63c.15-38.88-.28-136-8.65-136.1-9-.07-8.68,112.19-8.41,143.66-6.42,2.29-12.81,4.17-17.8,5.52.8-10.77,1.64-20.63,2.54-29.25,8.69-85.49-8.16-158.71-1.69-219.35s7.25-169.86-19.27-170.06c-37.54-.26-26.33,138.39-27.75,168.52-1.23,25.81-6.7,150.85-10.66,205.7-8.9-19.06-21.53-49.79-27-80.64-9-50.13,2.17-178.76-17.38-185.92-15.51-5.68-18.95,52.06-20.06,104.19a73,73,0,0,1-24-46.32c-3.78-33.76,11.34-122,.92-126.12s-21,13.52-22.88,50.85-6.32,94.36,3.11,124.94c6.87,22.34,30.48,43.94,42.7,54,3.42,59.43,24.33,152.92,58.68,184.87-1.42,25.34-3,54.33-5.4,81-12.77-15-41.59-50.61-55.23-81.48-17.82-40.3-31.27-106.77-52.74-102.65s25.66,130.8,52.23,171.67c16.9,26,37.27,48.57,49.84,61.56a486.65,486.65,0,0,0-5.31,72.76,8.74,8.74,0,0,1-9.81,8.67h-.09c-134-16.07-189.08-7.23-345.8,16.08-31.53,4.7-60.13,9.37-86.87,13.81-7-.65-14.83-.77-20.42.82-12.66,3.61-45.57,0-45.57,0l16.9-9s23.25-15.06,33.49-19.88,22.3-12,22.3-12-22.9,4.21-41.59,12.65-44.6,21.69-44.6,21.69L1101.42,739s32.33-28.32,38.36-33.74,15.67-17.48,15.67-17.48-44.6,24.71-57,35S1068.2,754,1068.2,754s8.29-24.7,10.61-30.13,14-40.36,18.1-47.6,10-28.31,10-28.31-26.76,35.55-46.26,85.55c-2.63,1.81,5.64-89.77,7.61-124.12C1054.53,646.78,1053,754,1053,754l-7.42-10.44s-3.43-24.51-4.37-36.56-4.89-40.37-4.89-40.37-.77,25.31,0,28.32-2.58,24.1,0,40.37-3.19,25.91-3.19,25.91L1030.34,746s-3.81-19.09-5-22.11-.6-13.25-3.38-27.11-6.63-27.09-6.63-27.09v12.63s1,34.34,2.78,48.8,3.85,37.36,3.85,37.36l-3.85-6.63S1003,739,998.9,729.93,982,699.2,982,699.2s7.18,28.32,12,40.37c3.61,9.16,14.32,26.34,20.3,34-7.65-3-19.29-7.47-30.09-11.54-18.08-6.82-25.32-7.64-25.32-7.64l57.7,27.21a932.23,932.23,0,0,1-147.12,3.71c-58.91-3-141.68-13.61-227.61-25.64,0-1.45-.07-3-.12-4.6A50.83,50.83,0,0,1,660.85,714a57.13,57.13,0,0,0,9.69-9.39c10.25-13.26,19.29-40.37,21.1-49.41s-4.22-14.46-13.26-7.84-6,27.12-16.88,40.37c-5.64,6.9-13.35,10-19.5,11.55.38-21.89,0-68.57-.22-108.21a44.12,44.12,0,0,1,20.86-37.92c6.1-3.73,11.79-8.07,15.14-12.62,9.18-12.51,12.1-33.36,9.88-53.29a86.16,86.16,0,0,0,21.68-10.39c14.46-9.45,16.08-22.7,16.87-34.75s-.4-19.28,0-26.92-11.62-11.74-11.64,0c0,0,.8,14.05-1.62,24.1s-2.82,17.28-12.46,24.51a32.38,32.38,0,0,1-14.8,6.14c-1.33-23.35,1.63-57.65,1.13-68.4-.6-12.65-3.28-15.37-12.85-13s-5.84,44.9-7,70,3,35.19-5,51.7c-4.48,9.3-13.43,15.5-20.4,19.14-.94-37.63-6.17-73.85-2.58-96.09,4-24.9,3.21-59.46,0-74.72s-.79-34.53-18.49-36.94-20.08,16.87-20.18,31.33.1,42.58,0,64.27-2.32,80.65-.72,98c1.28,13.79.53,68.93.17,105.16a9.85,9.85,0,0,1-14.18,8.74c-5.45-2.67-10.49-6.62-13.31-12.46-8.44-17.47-13.86-28.31-16.28-41s-4.82-53.31-3.61-66.71,2.41-46-13.26-47.17-10.85,9.65-15.07,31.94-1.21,45.19,0,71.7,1.81,43.38,11.45,56.64S556,653,583.72,662.45l.24.07a23,23,0,0,1,15.63,21.83v69.42c-79.23-11.31-158.26-22.95-221-30.2,6.46-1.91,14.47-4.29,21.82-6.65a77.39,77.39,0,0,0,27-15.74l-61.46,16.41s20.47-14.53,36.8-21.45,22.06-23.76,22.06-23.76-32.07,20.41-39.11,22.87-23.87,10.6-23.87,10.6,30.09-28.7,39.23-35,21.34-25.28,21.34-25.28-18,8.65-24.65,15.3-29.92,23.86-29.92,23.86l-14.75,11s17.77-24.58,22.35-34.08,13.36-33.19,13.36-33.19l1.9-12.34s-11.77,11.35-16.39,19.93-21.44,37.31-21.44,37.31l-7.81,14s5.3-28.46,5.91-35.37,4.94-39.39,4.94-39.39L354,585s-11.67,38.56-12.73,53.77-8,46.08-8,46.08S325,639.6,324.05,615.5,310,532.69,310,532.69s-8.39,28-2.85,49.26,16.76,113.39,16.76,113.39-15.48-32.85-23.31-58.87S280,581.83,280,581.83s5.4,25.35,7.78,43.16,25.63,76,25.63,76-20.52-21.57-28.54-29.91-36-36.71-42.46-41.55-16.9-13-16.9-13,13.42,21.45,19,29.57,24.6,31.23,24.6,31.23l22,22.23s-16.25-5.81-26.45-11.55-25.36-12.84-25.36-12.84l-34.09-9s19.84,12.12,25.07,16.51,36.22,19.74,36.22,19.74l32,14.53C169.84,714.31,0,765.6,0,765.6L.89,875.82h1920v-87s-108.33-26-223-44.41A26.48,26.48,0,0,1,1675.66,717.49Z"/></g></g></svg>