<?xml version="1.0" encoding="utf-8"?>
<!-- Generator: Adobe Illustrator 25.4.1, SVG Export Plug-In . SVG Version: 6.00 Build 0)  -->
<svg version="1.1" id="Layer_1" xmlns="http://www.w3.org/2000/svg" xmlns:xlink="http://www.w3.org/1999/xlink" x="0px" y="0px"
	 viewBox="0 0 1920.5 1270.3" style="enable-background:new 0 0 1920.5 1270.3;" xml:space="preserve">
<style type="text/css">
	.st0{opacity:0.32;fill:#F5C878;enable-background:new    ;}
	.st1{opacity:0.16;fill:#F5C878;enable-background:new    ;}
	.st2{fill:#FFC359;}
	.st3{opacity:0.56;fill:#422416;fill-opacity:0.4;enable-background:new    ;}
	.st4{fill:url(#SVGID_1_);}
	.st5{opacity:0.33;fill:#422416;enable-background:new    ;}
	.st6{opacity:0.1;fill:#FFC359;enable-background:new    ;}
	.st7{fill:none;stroke:url(#SVGID_00000011029223118527369990000001110769038491335080_);stroke-miterlimit:10;}
</style>
<g id="Layer_2_00000049904009562261383480000009246959197996519046_">
	<g id="Layer_1-2">
		<path class="st0" d="M739.1,436.7h666.3c0,0-90.9-8.8-128.7-13.9s-90.7-10.9-125.9-12.4s-46.6,16.6-89.4,0
			c-36.8-14.6-77.8-14.6-114.6,0C915.3,422.9,754.2,424.1,739.1,436.7z"/>
		<path class="st1" d="M73.5,277.4c0,0-34.5,2.7,42.7,2.7s70.5-5,170.4,0s125.1,16.5,209,20.8s140.1-20.3,280.7-23.1
			s147.4,7.9,249.8,11.8s89,5.5,199.8,0.5s156.1-16.8,201.4,0s162,30.2,245.5,33.5s234.6,0,234.6,0v94.4c0,0-312.2-33.5-408-37.1
			s-171.4,11.8-288-6s-166.9-7.4-276.1-15.9s-179.6,4.9-312.2,8.2s-164.5,8.4-258.5-6.7s-297.8-1.5-297.8-1.5L73.5,277.4z"/>
		<path class="st1" d="M114.5,250.2c0,0,53,8.8,204.1,8.8s246.8-12.6,392.8-17.6s543.9-57.9,627-45.3c0,0-151.9-25.2-266.1-22.7
			S850.8,181,701.8,186s-406.7-12.8-406.7-12.8l-200.8-1.1L114.5,250.2z"/>
		<path class="st1" d="M19.1,133.4c0,0,112.4,20.1,298.8,25.2s277.2-3.4,458.3-25.2s318.1-40.3,437.3-35.2s146.9-17.6,260.2,0
			s182.4,29.8,220.9,27.5s204.2,10.4,204.2,10.4V10.4L19.1,0V133.4z"/>
		<path class="st0" d="M1269.9,230.6h472.2c0,0-81.8-6.5-117.1-18.3s-51.6-22-74.3-20.7s-13.8,8.8-56.7,6.3s-54.1-16.6-88.1-6.4
			S1303.9,224.4,1269.9,230.6z"/>
		<path class="st0" d="M1078.1,153h250.6c0,0-35.2-15.1-60.4-20.2s-32.7,2.5-61.7,0S1098.3,140.4,1078.1,153z"/>
		<path class="st2" d="M739.5,579.4c10.8-64.5-32.8-125.5-97.3-136.3s-125.5,32.8-136.3,97.3s32.8,125.5,97.3,136.3c0,0,0,0,0,0
			C667.7,687.5,728.7,644,739.5,579.4C739.5,579.5,739.5,579.4,739.5,579.4z"/>
		<path class="st3" d="M973.5,315c0,0,13.6-10.5,22.6,0c0,0-12.1-3-22.6,9.8c-10.5-12.9-22.6-9.8-22.6-9.8
			C959.9,304.4,973.5,315,973.5,315z"/>
		<path class="st3" d="M884.6,292.2c0,0,6.8-5.3,11.3,0c0,0-6-1.5-11.3,4.9c-5.3-6.4-11.3-4.9-11.3-4.9
			C877.9,287,884.6,292.2,884.6,292.2z"/>
		<path class="st3" d="M1049.7,233c0,0,6.8-5.3,11.3,0c0,0-6-1.5-11.3,4.9c-5.3-6.4-11.3-4.9-11.3-4.9
			C1042.9,227.7,1049.7,233,1049.7,233z"/>
		<path class="st3" d="M1124.9,258.2c0,0,4.8-3.8,8,0c0,0-4.3-1.1-8,3.5c-3.8-4.6-8.1-3.5-8.1-3.5
			C1120,254.5,1124.9,258.2,1124.9,258.2z"/>
		<path class="st3" d="M935,246c0,0,9.5-7.4,15.8,0c0,0-8.5-2.1-15.8,6.9c-7.4-9-15.8-6.9-15.8-6.9C925.5,238.6,935,246,935,246z"/>
		<path class="st3" d="M980.4,270.4c0,0,6.8-5.3,11.3,0c0,0-6-1.5-11.3,4.9c-5.3-6.4-11.3-4.9-11.3-4.9
			C973.6,265.1,980.4,270.4,980.4,270.4z"/>
		<path class="st3" d="M896,347.5c0,0,3.4-2.6,5.7,0c0,0-3-0.8-5.7,2.4c-2.7-3.2-5.7-2.4-5.7-2.4C892.6,344.9,896,347.5,896,347.5z"
			/>
		<path class="st3" d="M836.1,377.8c0,0,3.4-2.6,5.7,0c0,0-3-0.8-5.7,2.4c-2.6-3.2-5.7-2.4-5.7-2.4
			C832.7,375.2,836.1,377.8,836.1,377.8z"/>
		
			<linearGradient id="SVGID_1_" gradientUnits="userSpaceOnUse" x1="839.95" y1="1312.5698" x2="839.95" y2="801.5898" gradientTransform="matrix(1 0 0 1 0 -61.6699)">
			<stop  offset="0" style="stop-color:#F59D00"/>
			<stop  offset="1" style="stop-color:#F56600"/>
		</linearGradient>
		<path class="st4" d="M0,290.3h89.2l30.2,23.5l6.7,78.2l30.2,17.4l50.4,49.3v53.5H252l101.6,53.4l269.5,21.8l77.2-35.2l30.2,7.9
			l36.9,115.6h40.6l51.6-52.6l16.9-47.4l23.5-10.1l18.5,28.1c0,0,3.2,40.8,11.7,55.9s22,26.2,22,26.2h25.9l12.6-57.5l24.5-96.5
			l98-38.7l8.4,77l58.2,67.7l203.6,9.5l100.8-178.5l23.5-81.1l44.9-35.2l39,17l33.6,152.9l54.7,137.3l-330.7,620.2H0V290.3z"/>
		<path class="st5" d="M146.7,510.7l8.1-101.3L124.6,392l7.5,73.4L146.7,510.7z"/>
		<path class="st6" d="M899.2,566.4l-18.5,78.1l-73.5,32.1l51.6-52.6l16.9-47.4L899.2,566.4z"/>
		<path class="st6" d="M977.5,676.3l72.6-168l-35.4,14L977.5,676.3z"/>
		
			<linearGradient id="SVGID_00000021110482209862763280000001548690591102231446_" gradientUnits="userSpaceOnUse" x1="1336.64" y1="36.3298" x2="1920.5" y2="36.3298" gradientTransform="matrix(1 0 0 -1 0 1267.8899)">
			<stop  offset="0" style="stop-color:#F59D00"/>
			<stop  offset="1" style="stop-color:#F56600"/>
		</linearGradient>
		
			<rect x="1337.1" y="1193.3" style="fill:none;stroke:url(#SVGID_00000021110482209862763280000001548690591102231446_);stroke-miterlimit:10;" width="582.9" height="76.4"/>
	</g>
</g>
</svg>
