<svg xmlns="http://www.w3.org/2000/svg" xmlns:xlink="http://www.w3.org/1999/xlink" viewBox="0 0 1920.5 1270.28"><defs><style>.cls-1,.cls-2{fill:#f5c878;}.cls-1,.cls-2,.cls-4,.cls-6,.cls-7{isolation:isolate;}.cls-1{opacity:0.32;}.cls-2,.cls-7{opacity:0.16;}.cls-3,.cls-7{fill:#ffc359;}.cls-4,.cls-6{fill:#422416;}.cls-4{fill-opacity:0.4;opacity:0.56;}.cls-5{fill:url(#linear-gradient);}.cls-6{opacity:0.33;}.cls-8{fill:none;stroke-miterlimit:10;stroke:url(#linear-gradient-2);}</style><linearGradient id="linear-gradient" x1="839.97" y1="-470.68" x2="839.97" y2="40.3" gradientTransform="matrix(1, 0, 0, -1, 0, 780.22)" gradientUnits="userSpaceOnUse"><stop offset="0" stop-color="#f59d00"/><stop offset="1" stop-color="#f56600"/></linearGradient><linearGradient id="linear-gradient-2" x1="1336.64" y1="1231.56" x2="1920.5" y2="1231.56" gradientTransform="matrix(1, 0, 0, 1, 0, 0)" xlink:href="#linear-gradient"/></defs><g id="Layer_2" data-name="Layer 2"><g id="Layer_1-2" data-name="Layer 1"><path class="cls-1" d="M739.07,436.74h666.35s-90.93-8.82-128.72-13.85S1186,412,1150.79,410.53s-46.59,16.59-89.4,0a155.79,155.79,0,0,0-114.57,0C915.34,422.89,754.18,424.15,739.07,436.74Z"/><path class="cls-2" d="M73.46,277.44s-34.52,2.7,42.71,2.7,70.51-5,170.41,0,125.08,16.51,209,20.84,140.06-20.29,280.72-23.08,147.37,7.93,249.78,11.81,89,5.53,199.77.5,156.12-16.79,201.45,0,162,30.21,245.52,33.55,234.62,0,234.62,0v94.4s-312.25-33.53-408-37.1-171.43,11.83-288-5.95-166.93-7.35-276.07-15.9-179.62,4.85-312.25,8.2-164.51,8.38-258.54-6.72S66.77,359.2,66.77,359.2Z"/><path class="cls-2" d="M114.49,250.19s53,8.82,204.1,8.82,246.78-12.59,392.83-17.63,543.92-57.89,627-45.3c0,0-151.94-25.18-266.09-22.66S850.75,181,701.78,186s-406.69-12.77-406.69-12.77L94.34,172.16Z"/><path class="cls-2" d="M19.14,133.41s112.43,20.14,298.77,25.17,277.23-3.37,458.31-25.17,318.12-40.27,437.33-35.24,146.89-17.62,260.21,0,182.38,29.83,220.89,27.51,204.21,10.43,204.21,10.43V10.43L19.14,0Z"/><path class="cls-1" d="M1269.9,230.65h472.16s-81.84-6.47-117.1-18.32-51.62-22-74.29-20.69-13.84,8.83-56.66,6.31-54.13-16.58-88.13-6.41S1303.89,224.36,1269.9,230.65Z"/><path class="cls-1" d="M1078.13,153h250.56s-35.25-15.13-60.43-20.17-32.74,2.52-61.7,0S1098.28,140.39,1078.13,153Z"/><path class="cls-3" d="M739.48,579.42a118.42,118.42,0,1,0-136.31,97.26A118.38,118.38,0,0,0,739.48,579.42Z"/><path class="cls-4" d="M973.51,315s13.57-10.54,22.64,0c0,0-12.06-3-22.64,9.8C963,311.93,950.87,315,950.87,315,959.91,304.41,973.51,315,973.51,315Z"/><path class="cls-4" d="M884.64,292.25s6.8-5.29,11.31,0c0,0-6-1.51-11.31,4.91-5.29-6.42-11.3-4.91-11.3-4.91C877.87,287,884.64,292.25,884.64,292.25Z"/><path class="cls-4" d="M1049.68,233s6.8-5.28,11.31,0c0,0-6-1.51-11.31,4.91-5.28-6.42-11.3-4.91-11.3-4.91C1042.91,227.71,1049.68,233,1049.68,233Z"/><path class="cls-4" d="M1124.88,258.22s4.83-3.75,8,0c0,0-4.28-1.09-8,3.47-3.76-4.56-8.06-3.47-8.06-3.47C1120,254.47,1124.88,258.22,1124.88,258.22Z"/><path class="cls-4" d="M935,246s9.5-7.4,15.84,0c0,0-8.46-2.12-15.84,6.87-7.4-9-15.84-6.87-15.84-6.87C925.51,238.56,935,246,935,246Z"/><path class="cls-4" d="M980.38,270.37s6.8-5.28,11.31,0c0,0-6-1.51-11.31,4.91-5.28-6.42-11.3-4.91-11.3-4.91C973.58,265.09,980.38,270.37,980.38,270.37Z"/><path class="cls-4" d="M896,347.55s3.39-2.64,5.66,0c0,0-3-.75-5.66,2.44-2.65-3.19-5.67-2.44-5.67-2.44C892.58,344.91,896,347.55,896,347.55Z"/><path class="cls-4" d="M836.09,377.81s3.4-2.65,5.67,0c0,0-3-.76-5.67,2.44-2.64-3.2-5.66-2.44-5.66-2.44C832.69,375.16,836.09,377.81,836.09,377.81Z"/><path class="cls-5" d="M0,290.32H89.2l30.22,23.54,6.72,78.2,30.22,17.4,50.37,49.26v53.47h45.32l101.56,53.36,269.45,21.82,77.23-35.24L730.51,560l36.94,115.64h40.64L859.66,623l16.9-47.42,23.49-10.12,18.46,28.09s3.22,40.76,11.69,55.86,21.95,26.23,21.95,26.23h25.94l12.59-57.47,24.55-96.48,98-38.72,8.39,77,58.24,67.71,203.62,9.46,100.75-178.46,23.5-81.13,44.9-35.24,39,17,33.55,152.87,54.72,137.26-330.72,620.22H0Z"/><path class="cls-6" d="M116.5,510.69l8.06-101.32L94.34,392l7.51,73.38Z"/><path class="cls-7" d="M868.25,565.36l-18.46,78.11-73.5,32.1,51.57-52.64,16.89-47.42Z"/><path class="cls-7" d="M946.31,675.57l72.55-168-35.4,14Z"/><rect class="cls-8" x="1337.14" y="1193.34" width="582.86" height="76.44"/></g></g></svg>