<svg width="1440" height="1212" viewBox="0 0 1440 1212" fill="none" xmlns="http://www.w3.org/2000/svg">
<path d="M1416.6 28.3706H2.91382V1068.75H1416.6V28.3706Z" fill="url(#paint0_linear_418_2946)"/>
<path d="M1541 -6H-115.835V1211.24H1541V-6Z" fill="url(#paint1_linear_418_2946)"/>
<path opacity="0.32" d="M554.627 445.115H1053.41C1053.41 445.115 985.348 438.52 957.055 434.752C928.763 430.983 889.198 426.612 862.81 425.5C836.421 424.389 827.939 437.917 795.895 425.5C763.852 413.084 733.693 416.249 710.132 425.5C686.57 434.752 565.936 435.694 554.627 445.115Z" fill="#F5C878"/>
<path opacity="0.16" d="M-7.13275 325.884C-7.13275 325.884 30.5654 327.9 88.3756 327.9C146.186 327.9 141.153 324.132 215.927 327.9C290.702 331.669 309.551 340.26 372.375 343.501C435.199 346.742 477.214 328.315 582.505 326.223C687.796 324.132 692.81 332.158 769.469 335.06C846.128 337.962 836.063 339.205 918.999 335.437C1001.93 331.669 1035.86 322.869 1069.79 335.437C1103.72 348.004 1191.05 358.047 1253.57 360.553C1316.09 363.059 1429.19 360.553 1429.19 360.553V431.21C1429.19 431.21 1195.46 406.112 1123.83 403.437C1052.21 400.761 995.507 412.293 908.255 398.99C821.002 385.688 783.304 393.488 701.612 387.082C619.939 380.657 567.161 390.719 467.883 393.225C368.605 395.731 344.742 399.499 274.36 388.194C203.996 376.889 -12.1466 387.082 -12.1466 387.082L-7.13275 325.884Z" fill="#F5C878"/>
<path opacity="0.16" d="M-19.7051 238.1C-19.7051 238.1 93.3895 251.29 206.484 251.29C319.579 251.29 391.205 241.869 500.53 238.1C609.855 234.332 907.67 194.764 969.872 204.185C969.872 204.185 856.137 185.343 770.694 187.228C685.251 189.112 604.822 192.88 493.311 196.649C381.781 200.417 188.898 187.096 188.898 187.096L-34.7844 179.691L-19.7051 238.1Z" fill="#F5C878"/>
<path opacity="0.16" d="M-14.0504 206.069C-14.0504 206.069 85.8499 221.143 225.333 224.911C364.816 228.68 432.843 222.386 568.387 206.069C703.931 189.752 806.507 175.923 895.739 179.691C984.971 183.459 1005.69 166.502 1090.51 179.691C1175.33 192.88 1227.03 202.018 1255.85 200.285C1284.65 198.533 1449.9 200.285 1449.9 200.285V106.208H-14.0504V206.069Z" fill="#F5C878"/>
<path opacity="0.32" d="M951.966 290.857C951.966 290.857 1096.16 290.857 1131.03 290.857C1165.9 290.857 1305.39 290.857 1305.39 290.857C1305.39 290.857 1244.13 286.015 1217.74 277.141C1191.35 268.247 1179.1 260.711 1162.13 261.653C1145.17 262.595 1151.77 268.266 1119.72 266.382C1087.68 264.498 1079.2 253.965 1053.75 261.577C1028.3 269.189 977.412 286.147 951.966 290.857Z" fill="#F5C878"/>
<path opacity="0.32" d="M754.05 274.578H941.599C941.599 274.578 915.21 263.254 896.361 259.486C877.512 255.718 871.857 261.37 850.181 259.486C828.504 257.602 769.13 265.157 754.05 274.578Z" fill="#F5C878"/>
<path d="M554.936 551.916C563 503.647 530.391 457.983 482.103 449.922C433.816 441.862 388.134 474.458 380.07 522.727C372.007 570.996 404.615 616.66 452.903 624.72C501.191 632.78 546.873 600.185 554.936 551.916Z" fill="#FFC359"/>
<path opacity="0.56" d="M730.112 353.959C730.112 353.959 740.272 346.064 747.057 353.959C747.057 353.959 738.029 351.698 730.112 361.288C722.214 351.698 713.167 353.959 713.167 353.959C719.933 346.064 730.112 353.959 730.112 353.959Z" fill="#422416" fill-opacity="0.4"/>
<path opacity="0.56" d="M663.593 336.964C663.593 336.964 668.683 333.007 672.057 336.964C672.057 336.964 667.533 335.833 663.593 340.638C659.635 335.833 655.13 336.964 655.13 336.964C658.523 333.007 663.593 336.964 663.593 336.964Z" fill="#422416" fill-opacity="0.4"/>
<path opacity="0.56" d="M787.13 292.61C787.13 292.61 792.22 288.653 795.594 292.61C795.594 292.61 791.07 291.48 787.13 296.284C783.172 291.48 778.667 292.61 778.667 292.61C782.06 288.653 787.13 292.61 787.13 292.61Z" fill="#422416" fill-opacity="0.4"/>
<path opacity="0.56" d="M843.414 311.489C843.414 311.489 847.033 308.682 849.446 311.489C849.446 311.489 846.241 310.679 843.414 314.09C840.605 310.679 837.382 311.489 837.382 311.489C839.795 308.682 843.414 311.489 843.414 311.489Z" fill="#422416" fill-opacity="0.4"/>
<path opacity="0.56" d="M701.31 302.314C701.31 302.314 708.417 296.774 713.167 302.314C713.167 302.314 706.833 300.731 701.31 307.457C695.769 300.75 689.454 302.314 689.454 302.314C694.186 296.774 701.31 302.314 701.31 302.314Z" fill="#422416" fill-opacity="0.4"/>
<path opacity="0.56" d="M735.258 320.59C735.258 320.59 740.347 316.633 743.721 320.59C743.721 320.59 739.197 319.46 735.258 324.264C731.299 319.46 726.794 320.59 726.794 320.59C730.168 316.633 735.258 320.59 735.258 320.59Z" fill="#422416" fill-opacity="0.4"/>
<path opacity="0.56" d="M672.076 378.359C672.076 378.359 674.62 376.381 676.317 378.359C676.317 378.359 674.055 377.794 672.076 380.187C670.096 377.794 667.834 378.359 667.834 378.359C669.531 376.381 672.076 378.359 672.076 378.359Z" fill="#422416" fill-opacity="0.4"/>
<path opacity="0.56" d="M627.252 401.007C627.252 401.007 629.797 399.028 631.493 401.007C631.493 401.007 629.232 400.441 627.252 402.834C625.273 400.441 623.011 401.007 623.011 401.007C624.708 399.028 627.252 401.007 627.252 401.007Z" fill="#422416" fill-opacity="0.4"/>
<path d="M-7.13274 335.437H44.3818L67.0008 353.054L72.0335 411.595L94.6524 424.615L132.351 461.488V501.508H166.279L242.297 541.453L443.983 557.789L501.793 531.41L524.412 537.327L552.063 623.886H582.486L621.089 584.488L633.736 548.99L651.323 541.415L665.139 562.443C665.139 562.443 667.552 592.948 673.885 604.253C680.218 615.558 690.321 623.886 690.321 623.886H709.736L719.161 580.87L737.538 508.649L810.899 479.671L817.176 537.327L860.774 588.011L1013.19 595.095L1088.6 461.507L1106.19 400.78L1139.8 374.402L1169.01 387.101L1194.12 501.527L1235.08 604.271L1182.45 804.917H-19.7051L-7.13274 335.437Z" fill="url(#paint2_linear_418_2946)"/>
<path opacity="0.33" d="M88.6207 500.472L94.6524 424.634L72.0334 411.614L77.6505 466.538L88.6207 500.472Z" fill="#422416"/>
<path opacity="0.16" d="M651.323 541.396L637.506 599.862L582.486 623.886L621.089 584.488L633.736 548.99L651.323 541.396Z" fill="#FFC359"/>
<path opacity="0.16" d="M709.755 623.886L764.059 498.173L737.557 508.649L709.755 623.886Z" fill="#FFC359"/>
<path d="M493.311 637.188L516.872 574.105L564.617 557.77L603.861 564.044C603.861 564.044 613.474 599.221 621.089 604.233L639.335 611.148C639.335 611.148 648.967 639.411 659.579 648.21C670.191 657.009 726.719 648.21 726.719 648.21L764.135 567.812L785.924 444.719L792.634 398.236L875.005 365.791L901.394 379.395L918.98 353.054C918.98 353.054 945.991 342.352 955.415 343.595C964.84 344.858 998.768 351.132 998.768 351.132C998.768 351.132 1026.42 386.309 1035.84 395.09L1040.88 411.595L1066 425.858L1075.43 516.864L1197.95 763.748L410.073 781.327L493.311 637.188Z" fill="url(#paint3_linear_418_2946)"/>
<path opacity="0.07" d="M487.128 671.593L535.401 584.488L560.847 569.716L603.861 564.063L564.617 557.77L516.872 574.106L493.311 637.188L462.832 689.983L487.128 671.593Z" fill="#FFC359"/>
<path opacity="0.09" d="M649.438 660.156H667.024L726.7 648.229C726.7 648.229 670.172 657.028 659.56 648.229C648.948 639.43 639.316 611.167 639.316 611.167L621.07 604.252L633.096 616.669L649.438 660.156Z" fill="#FFC359"/>
<path opacity="0.07" d="M785.924 444.738L764.135 567.831L726.719 648.229L682.122 705.847L733.599 717.002C733.599 717.002 764.436 678.998 770.091 665.809C775.746 652.619 786.433 594.21 786.433 594.21L799.005 537.685L788.959 545.843L775.142 574.727L781.419 537.666L804.038 472.982L812.2 398.237L875.024 365.791L792.653 398.237L785.924 444.738Z" fill="#FFC359"/>
<path opacity="0.22" d="M875.005 365.791C875.005 365.791 875.325 395.881 875.005 404.831C874.685 413.781 872.8 445.812 872.8 445.812L867.145 484.438L871.141 516.883L877.512 475.488L897.303 393.055L901.394 379.395L875.005 365.791Z" fill="#422416"/>
<path opacity="0.07" d="M871.141 516.883L867.145 565.928L849.238 628.106L784.529 720.431L837.307 731.114L860.548 632.195L884.26 559.654L886.936 486.171L912.703 380.657L924.05 358.669L952.908 347.364L998.768 351.132C998.768 351.132 964.84 344.858 955.415 343.596C945.991 342.333 918.98 353.054 918.98 353.054L901.394 379.395L877.512 475.488L871.141 516.883Z" fill="#FFC359"/>
<path opacity="0.26" d="M975.527 365.791L941.599 481.159L966.743 615.557L957.677 769.137L1197.95 763.786L1075.43 516.883L1066 425.877L1040.88 411.614L1055.33 521.349L1022.65 505.653L998.787 469.213L1003.8 432.17L998.787 402.024V351.151L975.527 365.791Z" fill="#422416"/>
<path d="M827.091 711.67L826.864 695.598C828.938 693.695 832.726 690.172 834.385 688.174C836.741 685.348 839.097 676.643 839.569 673.101C840.04 669.559 841.68 663.209 839.569 663.454C837.458 663.699 836.515 676.172 833.443 682.522C831.633 686.271 828.806 688.853 826.789 690.36L826.619 678.037C826.619 678.037 828.825 647.891 824.734 647.891C821.398 647.891 821.417 666.732 821.53 680.317C819.513 678.113 816.874 674.947 815.31 671.914C812.482 666.487 812.011 660.138 810.126 660.138C808.241 660.138 809.184 666.016 810.126 669.785C810.88 672.799 818.533 682.993 821.587 686.987C821.587 687.477 821.587 687.948 821.587 688.382V711.199C821.587 714.666 818.722 717.473 815.253 717.398L793.633 716.965C793.633 716.965 723.044 694.656 690.322 695.918C657.599 697.181 528.163 649.436 528.163 649.436L479.155 538.891L430.147 516.281H366.061L350.981 537.628V469.798C350.981 469.798 348.474 443.42 338.409 437.145C328.362 430.871 270.552 390.663 261.75 388.157C252.947 385.651 229.084 388.157 229.084 388.157L188.879 444.701V508.612L151.181 523.836L134.839 546.446L127.299 595.435L100.91 643.161C100.91 643.161 64.475 674.57 54.4096 679.582C44.363 684.613 -12.1843 704.152 -12.1843 704.152V788.865H911.421L998.749 721.034L833.16 717.756C829.842 717.718 827.147 715.005 827.091 711.67Z" fill="url(#paint4_linear_418_2946)"/>
<path opacity="0.26" d="M351 537.685L358.219 584.488L378.953 599.863L386.493 671.461L394.975 689.361L400.63 717.002V663.925L394.033 580.87L400.63 537.685L430.166 516.318H366.079L351 537.685Z" fill="#422416"/>
<path opacity="0.26" d="M188.898 508.65L216.55 516.337L230.366 535.179L236.266 636.887L259.262 756.871L289.42 775.204C289.42 775.204 280.618 728.628 278.733 717.002C276.848 705.377 273.097 659.893 272.456 639.902C271.796 619.911 269.949 550.874 267.423 534.539C264.916 518.203 241.656 479.897 239.15 467.971C236.643 456.044 234.117 410.824 234.117 410.824L229.084 388.213L188.879 444.758V508.65H188.898Z" fill="#422416"/>
<path opacity="0.07" d="M272.927 447.245C277.168 455.723 289.42 466.557 289.42 466.557L295.075 505.183L306.384 516.337L302.615 461.376L299.165 410.974C282.521 399.933 266.141 389.457 261.787 388.213L268.705 418.04C268.686 418.04 268.686 438.766 272.927 447.245Z" fill="#FFC359"/>
<path opacity="0.26" d="M134.858 546.465L127.318 595.454L100.929 643.18C100.929 643.18 64.4939 674.589 54.4285 679.601C44.3819 684.632 -12.1654 704.171 -12.1654 704.171V750.484L215.909 741.139L169.408 668.277C169.408 668.277 160.605 621.795 158.098 611.13C155.592 600.447 145.526 557.752 145.526 557.752L151.181 523.836L134.858 546.465Z" fill="#422416"/>
<path opacity="0.07" d="M431.392 516.884L471.804 542.848L484.527 594.663L522.696 655.898C522.696 655.898 548.614 679.922 558.981 686.045C569.348 692.169 635.32 705.829 635.32 705.829C635.32 705.829 669.248 699.234 682.914 699.234C696.542 699.234 733.429 701.232 733.599 701.232C717.634 697.897 701.706 695.504 690.34 695.937C657.618 697.2 528.182 649.454 528.182 649.454L479.174 538.91L431.392 516.884Z" fill="#FFC359"/>
<path d="M1400.27 469.854L1366.34 430.908C1366.34 430.908 1355.03 404.53 1347.5 385.688C1341.22 330.425 1339.96 314.089 1339.96 314.089L1329.91 300.278V278.931L1275.87 266.363L1210.52 290.236L1189.16 385.707L1174.08 444.738C1174.08 444.738 1128.85 459.812 1126.34 478.654C1125.06 488.263 1118.54 522.084 1112.47 552.89C1105.45 588.426 1082.82 618.912 1050.81 635.888C993 666.563 901.035 715.853 861.188 739.914C810.39 770.588 674.62 754.949 606.141 756.739C608.988 747.243 613.719 730.153 611.268 729.664C608.724 729.155 604.539 747.507 602.598 756.852C602.409 756.852 602.24 756.871 602.051 756.871C602.127 749.316 602.127 724.878 599.205 725.16C597.245 725.33 597.508 736.183 598.093 745.566C596.001 736.428 593.23 726.253 591.383 726.8C588.932 727.534 593.833 745.246 596.566 754.497C588.989 748.505 579.715 741.722 578.584 743.399C577.472 745.038 586.18 751.803 593.852 757.323C586.538 757.851 580.394 758.699 575.719 760.018C530.707 772.585 351.019 762.524 293.209 768.817C235.399 775.091 -7.11389 812.775 -7.11389 812.775V902.593H1443V552.758L1400.27 469.854Z" fill="url(#paint5_linear_418_2946)"/>
<path opacity="0.26" d="M1174.08 444.738C1174.08 444.738 1199.85 453.217 1204.56 463.58C1209.27 473.943 1213.99 523.874 1213.99 523.874L1231.89 584.488L1253.57 717.002H1191.37L1182.89 603.951C1182.89 603.951 1181.94 586.052 1188.54 564.384C1195.14 542.715 1191.37 527.642 1191.37 527.642L1174.08 502.206V444.738Z" fill="#422416"/>
<path opacity="0.07" d="M1076.07 643.839L1088.34 637.075C1100.18 630.556 1108.79 619.458 1112.18 606.363C1117.05 587.521 1123.78 561.275 1125.72 552.758C1128.86 538.947 1132.63 483.044 1132.63 483.044L1139.85 461.489C1132.79 466.52 1127.19 472.361 1126.36 478.654C1125.08 488.263 1118.55 522.084 1112.48 552.89C1105.47 588.426 1082.84 618.912 1050.83 635.888C1014.87 654.975 965.707 681.24 924.088 704.19L1076.07 643.839Z" fill="#FFC359"/>
<path opacity="0.07" d="M1213.91 393.375C1213.44 372.65 1220.66 296.661 1220.66 296.661L1246.86 277.141L1210.61 290.386L1189.26 385.858L1174.18 444.889L1195.04 454.479C1195.02 454.46 1214.38 414.101 1213.91 393.375Z" fill="#FFC359"/>
<path opacity="0.26" d="M1440.59 548.104L1400.27 469.854L1366.34 430.908C1366.34 430.908 1355.03 404.53 1347.5 385.688C1341.22 330.425 1339.96 314.089 1339.96 314.089L1329.91 300.278V278.931L1275.87 266.363V325.093L1280.9 346.761L1287.97 375.495L1307.29 432.962L1310.12 477.24L1305.41 449.449L1293.15 418.831L1275.87 414.591C1275.87 414.591 1267.71 424.954 1264.88 438.144C1262.05 451.333 1264.88 561.557 1264.88 561.557L1293.15 700.044L1298.81 750.917H1382.69H1443V557.789L1440.59 548.104Z" fill="#422416"/>
<path opacity="0.07" d="M1271.36 416.551L1244.26 427.951C1238.77 430.249 1234.7 435.016 1233.25 440.782L1222.36 484.269L1225.45 506.445L1237.44 482.497L1243.71 436.655L1271.36 416.551Z" fill="#FFC359"/>
<path opacity="0.11" d="M690.34 758.378C690.774 758.473 778.498 776.372 815.706 786.717C853.008 797.079 929.347 786.717 961.39 786.717C993.434 786.717 1046.21 799.906 1046.21 799.906L1093.33 750.917C1093.33 750.917 965.16 752.801 916.153 750.917C867.145 749.033 815.706 754.328 815.706 754.328C779.497 760.131 733.222 759.622 690.34 758.378Z" fill="black"/>
<path d="M1453.05 717.002C1453.05 717.002 1269.59 694.844 1226.86 704.19C1184.13 713.554 1093.35 738.67 1093.35 738.67C1093.35 738.67 1067.15 746.207 1041.01 755.006C1038.03 756.004 1034.96 753.8 1034.98 750.672C1035 740.686 1034.96 731.115 1034.77 726.121C1034.69 724.03 1034.62 720.808 1034.56 716.757C1040.63 710.2 1055.5 693.582 1058.5 684.5C1062.27 673.044 1068.4 628.596 1068.87 618.704C1069.34 608.813 1060.86 602.689 1059.91 618.704C1058.97 634.72 1050.49 667.693 1047.19 678.056C1045.21 684.274 1039.01 690.982 1034.36 695.353C1034.2 673.157 1034.24 645.554 1034.64 631.253C1035.26 608.021 1034.64 584.149 1020.18 584.469C1011.45 584.657 1011.19 608.605 1012.32 633.759C1010.36 632.082 1006.04 629.614 1001.52 626.354C1001.52 612.939 1001.14 566.4 995.96 562.386C990.663 558.279 993.358 607.626 994.131 620.155C993.66 619.684 993.208 619.194 992.774 618.686C986.478 611.526 983.274 583.301 977.148 582.83C971.022 582.359 973.133 598.167 975.49 608.944C977.619 618.667 986.893 640.655 1012.77 646.779C1013.51 658.536 1014.36 670.425 1014.75 680.864C1015.86 709.71 1015.3 742.495 1014.96 756.909C1014.85 761.431 1012.13 765.482 1007.99 767.291C1002.2 769.815 994.433 773.358 991.926 775.185C975.169 787.338 945.425 799.887 945.425 799.887C945.425 799.887 945.161 810.25 891.894 820.293C838.607 830.335 800.4 842.903 800.4 842.903C800.4 842.903 662.576 842.903 639.391 842.903C616.207 842.903 511.896 829.092 508.126 829.092C504.356 829.092 403.834 805.86 376.183 799.887C362.743 796.985 329.719 781.855 295.131 766.179C292.549 765.011 290.871 762.448 290.871 759.622C290.834 746.847 290.777 727.403 290.74 706.187C290.74 701.42 294.962 697.859 299.693 698.499C312.303 700.233 328.626 696.634 330.002 683.426C330.455 678.998 330.266 662.662 329.588 643.594C329.588 643.594 349.794 637.056 349.323 608.323C348.851 579.589 345.082 578.647 341.783 580.06C338.484 581.473 344.196 607.852 339.464 614.917C339.05 615.539 338.579 616.161 338.107 616.745C334.884 620.664 328.513 618.554 328.23 613.485C326.911 590.178 325.045 569.697 322.953 567.813C318.24 563.573 314.942 570.639 315.884 587.126C316.827 603.612 317.769 676.624 312.114 681.335C309.117 683.803 304.612 681.693 304.594 677.811C304.518 662.267 303.934 635.097 300.805 635.323C297.619 635.549 298.223 663.209 298.807 678.489C298.901 681.014 296.658 682.974 294.17 682.559L294.095 682.54C292.153 682.22 290.74 680.543 290.74 678.584C290.702 643.519 290.721 609.265 290.928 596.057C291.399 564.968 286.216 524.458 275.849 524.929C265.482 525.4 271.136 583.81 272.55 639.864C272.663 644.65 272.795 649.548 272.927 654.466C273.021 657.99 270.684 661.174 267.254 662.022C265.878 662.361 264.445 662.644 263.013 662.851C262.372 645.535 262.202 500.171 257.49 500.454C252.815 500.736 253.494 644.216 254.436 662.361C252.57 661.701 250.987 660.552 249.95 658.724C244.295 648.833 251.835 541.434 242.41 541.434C232.986 541.434 235.342 659.667 239.112 667.674C242.165 674.156 254.945 673.892 266.01 673.289C270.062 673.063 273.493 676.247 273.606 680.298C274.247 704.585 274.869 727.666 275.302 743.437C275.472 749.9 268.856 754.346 262.937 751.727C237.736 740.648 214.778 731.322 201.583 728.59C198.794 728.006 195.608 727.384 192.102 726.706C198.134 722.428 210.763 713.366 211.479 711.934C212.422 710.049 202.997 714.76 199.698 715.702C196.4 716.644 183.677 723.239 183.677 721.826C183.677 720.412 192.63 712.405 194.044 710.991C195.457 709.578 206.767 699.215 206.767 697.331C206.767 695.447 196.871 701.1 188.389 707.694C179.907 714.289 178.022 713.347 178.022 713.347L175.666 708.768C175.666 708.768 181.321 692.621 183.205 689.323C185.09 686.026 191.688 670.482 191.688 670.482L175.195 690.266C175.195 690.266 164.828 710.52 161.661 708.636C158.494 706.752 162 685.555 161.529 684.142C161.058 682.729 162 663.887 161.529 651.64C161.058 639.393 157.759 626.675 157.759 626.675C157.759 626.675 151.633 649.756 154.14 666.619C156.647 683.483 151.633 701.1 151.633 701.1C151.633 701.1 145.507 682.258 143.151 673.308C140.795 664.358 124.773 645.516 124.773 645.516C124.773 645.516 129.957 670.482 134.198 680.374C138.439 690.266 142.209 700.629 142.209 700.629C142.209 700.629 124.773 680.374 122.417 675.663C120.061 670.953 104.039 665.3 104.039 665.3L112.521 673.308C112.521 673.308 117.234 680.374 120.061 686.026C122.888 691.679 134.198 705.81 134.198 705.81L130.899 702.984C130.899 702.984 114.877 695.447 112.05 690.737C109.223 686.026 96.4996 686.497 96.4996 686.497L101.683 690.266C101.683 690.266 109.694 701.1 114.877 706.281C117.705 709.107 122.624 712.48 126.507 714.967C92.7298 709.183 62.1 704.152 62.1 704.152L-19.5731 716.964V1051.93H1473.28L1453.05 717.002Z" fill="url(#paint6_linear_418_2946)"/>
<path d="M993.132 949.679C993.132 949.679 886.258 929.575 780.1 914.501C673.942 899.428 634.717 914.124 567.143 899.428C499.569 884.731 455.839 845.408 378.915 842.903C301.992 840.397 295.904 896.865 195.91 862.347C95.9153 827.829 -51.1077 814.018 -51.1077 814.018V1041.34H986.855L993.132 949.679Z" fill="url(#paint7_linear_418_2946)"/>
<defs>
<linearGradient id="paint0_linear_418_2946" x1="709.758" y1="760.788" x2="709.758" y2="113.642" gradientUnits="userSpaceOnUse">
<stop stop-color="#F59D00"/>
<stop offset="1" stop-color="#F57300"/>
</linearGradient>
<linearGradient id="paint1_linear_418_2946" x1="712.586" y1="809.647" x2="712.586" y2="162.501" gradientUnits="userSpaceOnUse">
<stop stop-color="#F59D00"/>
<stop offset="0.497917" stop-color="#F57300"/>
<stop offset="1" stop-color="#F5C878"/>
</linearGradient>
<linearGradient id="paint2_linear_418_2946" x1="607.705" y1="795.912" x2="607.705" y2="550.962" gradientUnits="userSpaceOnUse">
<stop stop-color="#F59D00"/>
<stop offset="1" stop-color="#F56600"/>
</linearGradient>
<linearGradient id="paint3_linear_418_2946" x1="841.199" y1="875.787" x2="734.461" y2="579.317" gradientUnits="userSpaceOnUse">
<stop stop-color="#F58000"/>
<stop offset="1" stop-color="#B54B00"/>
</linearGradient>
<linearGradient id="paint4_linear_418_2946" x1="470.991" y1="822.976" x2="541.308" y2="475.021" gradientUnits="userSpaceOnUse">
<stop stop-color="#D46500"/>
<stop offset="0.1573" stop-color="#C55600"/>
<stop offset="0.4606" stop-color="#AE4000"/>
<stop offset="0.7478" stop-color="#A13300"/>
<stop offset="1" stop-color="#9C2E00"/>
</linearGradient>
<linearGradient id="paint5_linear_418_2946" x1="1011.93" y1="1217.09" x2="692.939" y2="646.706" gradientUnits="userSpaceOnUse">
<stop stop-color="#BA4B00"/>
<stop offset="1" stop-color="#822600"/>
</linearGradient>
<linearGradient id="paint6_linear_418_2946" x1="726.723" y1="1278.3" x2="726.723" y2="752.307" gradientUnits="userSpaceOnUse">
<stop stop-color="#BA4B00"/>
<stop offset="0.998" stop-color="#631D00"/>
</linearGradient>
<linearGradient id="paint7_linear_418_2946" x1="471.003" y1="1112.56" x2="471.003" y2="940.316" gradientUnits="userSpaceOnUse">
<stop stop-color="#BA4B00"/>
<stop offset="0.998" stop-color="#631D00"/>
</linearGradient>
</defs>
</svg>
